<svg width="387" height="300" viewBox="0 0 387 300" fill="none" xmlns="http://www.w3.org/2000/svg">
<g filter="url(#filter0_i_7_271)">
<rect x="1" y="1.93506" width="385" height="297" rx="24" fill="url(#paint0_linear_7_271)" fill-opacity="0.05"/>
<path d="M34.072 204.223C32.392 204.223 30.96 203.927 29.776 203.335C28.608 202.727 27.712 201.791 27.088 200.527C26.464 199.263 26.152 197.655 26.152 195.703C26.152 192.823 26.848 190.687 28.24 189.295C29.648 187.887 31.6 187.183 34.096 187.183C35.472 187.183 36.704 187.415 37.792 187.879C38.896 188.343 39.76 189.039 40.384 189.967C41.024 190.879 41.344 192.047 41.344 193.471H38.608C38.608 192.591 38.424 191.855 38.056 191.263C37.688 190.671 37.16 190.223 36.472 189.919C35.8 189.615 35.016 189.463 34.12 189.463C33 189.463 32.048 189.687 31.264 190.135C30.496 190.567 29.912 191.223 29.512 192.103C29.128 192.983 28.936 194.103 28.936 195.463V195.991C28.936 197.351 29.128 198.471 29.512 199.351C29.912 200.231 30.496 200.887 31.264 201.319C32.032 201.735 32.984 201.943 34.12 201.943C35.048 201.943 35.856 201.799 36.544 201.511C37.232 201.207 37.76 200.759 38.128 200.167C38.512 199.575 38.704 198.839 38.704 197.959H41.344C41.344 199.383 41.024 200.559 40.384 201.487C39.76 202.415 38.896 203.103 37.792 203.551C36.704 203.999 35.464 204.223 34.072 204.223ZM48.8946 204.223C47.5826 204.223 46.4706 203.991 45.5586 203.527C44.6626 203.047 43.9826 202.319 43.5186 201.343C43.0706 200.367 42.8466 199.127 42.8466 197.623C42.8466 196.103 43.0706 194.863 43.5186 193.903C43.9826 192.927 44.6626 192.207 45.5586 191.743C46.4706 191.263 47.5826 191.023 48.8946 191.023C50.2386 191.023 51.3586 191.263 52.2546 191.743C53.1506 192.207 53.8226 192.927 54.2706 193.903C54.7346 194.863 54.9666 196.103 54.9666 197.623C54.9666 199.127 54.7346 200.367 54.2706 201.343C53.8226 202.319 53.1506 203.047 52.2546 203.527C51.3586 203.991 50.2386 204.223 48.8946 204.223ZM48.8946 202.159C49.6946 202.159 50.3506 202.007 50.8626 201.703C51.3746 201.383 51.7506 200.903 51.9906 200.263C52.2466 199.623 52.3746 198.815 52.3746 197.839V197.407C52.3746 196.431 52.2466 195.623 51.9906 194.983C51.7506 194.343 51.3746 193.871 50.8626 193.567C50.3506 193.247 49.6946 193.087 48.8946 193.087C48.1106 193.087 47.4626 193.247 46.9506 193.567C46.4386 193.871 46.0546 194.343 45.7986 194.983C45.5586 195.623 45.4386 196.431 45.4386 197.407V197.839C45.4386 198.815 45.5586 199.623 45.7986 200.263C46.0546 200.903 46.4386 201.383 46.9506 201.703C47.4626 202.007 48.1106 202.159 48.8946 202.159ZM57.0308 203.935V191.311H59.0948L59.3108 193.111H59.4788C59.7828 192.647 60.1428 192.263 60.5588 191.959C60.9748 191.655 61.4308 191.423 61.9268 191.263C62.4388 191.103 62.9988 191.023 63.6068 191.023C64.4068 191.023 65.1108 191.167 65.7188 191.455C66.3268 191.727 66.7988 192.175 67.1348 192.799C67.4868 193.423 67.6628 194.263 67.6628 195.319V203.935H65.1668V195.703C65.1668 195.223 65.1028 194.823 64.9748 194.503C64.8628 194.183 64.6948 193.927 64.4708 193.735C64.2468 193.543 63.9828 193.407 63.6788 193.327C63.3748 193.247 63.0388 193.207 62.6708 193.207C62.0948 193.207 61.5668 193.351 61.0868 193.639C60.6228 193.911 60.2468 194.295 59.9588 194.791C59.6708 195.287 59.5268 195.871 59.5268 196.543V203.935H57.0308ZM73.4526 204.223C72.7326 204.223 72.1646 204.087 71.7486 203.815C71.3486 203.527 71.0606 203.167 70.8846 202.735C70.7246 202.287 70.6446 201.815 70.6446 201.319V193.375H69.0606V191.311H70.6926L71.1486 187.783H73.1406V191.311H75.4206V193.375H73.1406V201.031C73.1406 201.399 73.2206 201.679 73.3806 201.871C73.5406 202.063 73.8046 202.159 74.1726 202.159H75.4206V203.839C75.2606 203.903 75.0606 203.959 74.8206 204.007C74.5966 204.071 74.3646 204.119 74.1246 204.151C73.8846 204.199 73.6606 204.223 73.4526 204.223ZM77.1411 203.935V191.311H79.2051L79.4211 193.351H79.5651C79.7091 192.951 79.8931 192.575 80.1171 192.223C80.3571 191.871 80.6611 191.583 81.0291 191.359C81.4131 191.135 81.8771 191.023 82.4211 191.023C82.6771 191.023 82.9011 191.047 83.0931 191.095C83.3011 191.143 83.4611 191.183 83.5731 191.215V193.567H82.7331C82.2211 193.567 81.7651 193.647 81.3651 193.807C80.9811 193.967 80.6531 194.207 80.3811 194.527C80.1251 194.831 79.9331 195.207 79.8051 195.655C79.6931 196.103 79.6371 196.607 79.6371 197.167V203.935H77.1411ZM90.0996 204.223C88.7876 204.223 87.6756 203.991 86.7636 203.527C85.8676 203.047 85.1876 202.319 84.7236 201.343C84.2756 200.367 84.0516 199.127 84.0516 197.623C84.0516 196.103 84.2756 194.863 84.7236 193.903C85.1876 192.927 85.8676 192.207 86.7636 191.743C87.6756 191.263 88.7876 191.023 90.0996 191.023C91.4436 191.023 92.5636 191.263 93.4596 191.743C94.3556 192.207 95.0276 192.927 95.4756 193.903C95.9396 194.863 96.1716 196.103 96.1716 197.623C96.1716 199.127 95.9396 200.367 95.4756 201.343C95.0276 202.319 94.3556 203.047 93.4596 203.527C92.5636 203.991 91.4436 204.223 90.0996 204.223ZM90.0996 202.159C90.8996 202.159 91.5556 202.007 92.0676 201.703C92.5796 201.383 92.9556 200.903 93.1956 200.263C93.4516 199.623 93.5796 198.815 93.5796 197.839V197.407C93.5796 196.431 93.4516 195.623 93.1956 194.983C92.9556 194.343 92.5796 193.871 92.0676 193.567C91.5556 193.247 90.8996 193.087 90.0996 193.087C89.3156 193.087 88.6676 193.247 88.1556 193.567C87.6436 193.871 87.2596 194.343 87.0036 194.983C86.7636 195.623 86.6436 196.431 86.6436 197.407V197.839C86.6436 198.815 86.7636 199.623 87.0036 200.263C87.2596 200.903 87.6436 201.383 88.1556 201.703C88.6676 202.007 89.3156 202.159 90.0996 202.159ZM98.2358 203.935V186.583H100.732V203.935H98.2358ZM109.284 208.303C108.804 208.303 108.404 208.263 108.084 208.183C107.764 208.119 107.564 208.079 107.484 208.063V206.263H108.684C109.036 206.263 109.388 206.183 109.74 206.023C110.108 205.863 110.436 205.607 110.724 205.255C111.012 204.903 111.252 204.463 111.444 203.935L106.524 191.311H109.14L111.588 197.599C111.7 197.887 111.82 198.247 111.948 198.679C112.092 199.111 112.228 199.551 112.356 199.999C112.5 200.447 112.62 200.847 112.716 201.199H112.836C112.916 200.959 112.996 200.687 113.076 200.383C113.172 200.063 113.268 199.735 113.364 199.399C113.46 199.063 113.556 198.743 113.652 198.439C113.748 198.119 113.828 197.847 113.892 197.623L115.932 191.311H118.476L114.204 203.455C113.964 204.127 113.7 204.759 113.412 205.351C113.124 205.943 112.788 206.455 112.404 206.887C112.036 207.335 111.596 207.679 111.084 207.919C110.572 208.175 109.972 208.303 109.284 208.303ZM125.141 204.223C123.829 204.223 122.717 203.991 121.805 203.527C120.909 203.047 120.229 202.319 119.765 201.343C119.317 200.367 119.093 199.127 119.093 197.623C119.093 196.103 119.317 194.863 119.765 193.903C120.229 192.927 120.909 192.207 121.805 191.743C122.717 191.263 123.829 191.023 125.141 191.023C126.485 191.023 127.605 191.263 128.501 191.743C129.397 192.207 130.069 192.927 130.517 193.903C130.981 194.863 131.213 196.103 131.213 197.623C131.213 199.127 130.981 200.367 130.517 201.343C130.069 202.319 129.397 203.047 128.501 203.527C127.605 203.991 126.485 204.223 125.141 204.223ZM125.141 202.159C125.941 202.159 126.597 202.007 127.109 201.703C127.621 201.383 127.997 200.903 128.237 200.263C128.493 199.623 128.621 198.815 128.621 197.839V197.407C128.621 196.431 128.493 195.623 128.237 194.983C127.997 194.343 127.621 193.871 127.109 193.567C126.597 193.247 125.941 193.087 125.141 193.087C124.357 193.087 123.709 193.247 123.197 193.567C122.685 193.871 122.301 194.343 122.045 194.983C121.805 195.623 121.685 196.431 121.685 197.407V197.839C121.685 198.815 121.805 199.623 122.045 200.263C122.301 200.903 122.685 201.383 123.197 201.703C123.709 202.007 124.357 202.159 125.141 202.159ZM137.237 204.223C136.021 204.223 135.037 203.903 134.285 203.263C133.533 202.607 133.157 201.495 133.157 199.927V191.311H135.653V199.543C135.653 200.023 135.709 200.423 135.821 200.743C135.949 201.063 136.125 201.319 136.349 201.511C136.573 201.703 136.837 201.839 137.141 201.919C137.445 201.999 137.781 202.039 138.149 202.039C138.725 202.039 139.245 201.903 139.709 201.631C140.189 201.343 140.573 200.951 140.861 200.455C141.149 199.943 141.293 199.359 141.293 198.703V191.311H143.789V203.935H141.749L141.533 202.135H141.365C141.061 202.599 140.701 202.983 140.285 203.287C139.869 203.591 139.405 203.823 138.893 203.983C138.397 204.143 137.845 204.223 137.237 204.223ZM146.531 203.935V191.311H148.595L148.811 193.351H148.955C149.099 192.951 149.283 192.575 149.507 192.223C149.747 191.871 150.051 191.583 150.419 191.359C150.803 191.135 151.267 191.023 151.811 191.023C152.067 191.023 152.291 191.047 152.483 191.095C152.691 191.143 152.851 191.183 152.963 191.215V193.567H152.123C151.611 193.567 151.155 193.647 150.755 193.807C150.371 193.967 150.043 194.207 149.771 194.527C149.515 194.831 149.323 195.207 149.195 195.655C149.083 196.103 149.027 196.607 149.027 197.167V203.935H146.531ZM158.321 189.127V186.583H160.817V189.127H158.321ZM158.321 203.935V191.311H160.817V203.935H158.321ZM163.56 203.935V191.311H165.624L165.84 193.111H166.008C166.312 192.647 166.672 192.263 167.088 191.959C167.504 191.655 167.96 191.423 168.456 191.263C168.968 191.103 169.528 191.023 170.136 191.023C170.936 191.023 171.64 191.167 172.248 191.455C172.856 191.727 173.328 192.175 173.664 192.799C174.016 193.423 174.192 194.263 174.192 195.319V203.935H171.696V195.703C171.696 195.223 171.632 194.823 171.504 194.503C171.392 194.183 171.224 193.927 171 193.735C170.776 193.543 170.512 193.407 170.208 193.327C169.904 193.247 169.568 193.207 169.2 193.207C168.624 193.207 168.096 193.351 167.616 193.639C167.152 193.911 166.776 194.295 166.488 194.791C166.2 195.287 166.056 195.871 166.056 196.543V203.935H163.56ZM179.982 204.223C179.262 204.223 178.694 204.087 178.278 203.815C177.878 203.527 177.59 203.167 177.414 202.735C177.254 202.287 177.174 201.815 177.174 201.319V193.375H175.59V191.311H177.222L177.678 187.783H179.67V191.311H181.95V193.375H179.67V201.031C179.67 201.399 179.75 201.679 179.91 201.871C180.07 202.063 180.334 202.159 180.702 202.159H181.95V203.839C181.79 203.903 181.59 203.959 181.35 204.007C181.126 204.071 180.894 204.119 180.654 204.151C180.414 204.199 180.19 204.223 179.982 204.223ZM188.902 204.223C187.606 204.223 186.518 203.991 185.638 203.527C184.774 203.047 184.118 202.319 183.67 201.343C183.222 200.367 182.998 199.127 182.998 197.623C182.998 196.103 183.222 194.863 183.67 193.903C184.118 192.927 184.782 192.207 185.662 191.743C186.542 191.263 187.638 191.023 188.95 191.023C190.15 191.023 191.15 191.255 191.95 191.719C192.766 192.167 193.382 192.855 193.798 193.783C194.214 194.711 194.422 195.879 194.422 197.287V198.247H185.566C185.598 199.143 185.734 199.895 185.974 200.503C186.214 201.095 186.574 201.535 187.054 201.823C187.55 202.095 188.174 202.231 188.926 202.231C189.39 202.231 189.806 202.175 190.174 202.063C190.542 201.935 190.854 201.759 191.11 201.535C191.366 201.295 191.566 201.015 191.71 200.695C191.854 200.359 191.926 199.983 191.926 199.567H194.374C194.374 200.319 194.246 200.983 193.99 201.559C193.734 202.135 193.358 202.623 192.862 203.023C192.382 203.407 191.806 203.703 191.134 203.911C190.462 204.119 189.718 204.223 188.902 204.223ZM185.614 196.423H191.806C191.806 195.799 191.734 195.279 191.59 194.863C191.462 194.431 191.27 194.079 191.014 193.807C190.758 193.535 190.454 193.343 190.102 193.231C189.75 193.103 189.35 193.039 188.902 193.039C188.23 193.039 187.654 193.159 187.174 193.399C186.71 193.639 186.35 194.015 186.094 194.527C185.838 195.023 185.678 195.655 185.614 196.423ZM196.479 203.935V191.311H198.543L198.759 193.351H198.903C199.047 192.951 199.231 192.575 199.455 192.223C199.695 191.871 199.999 191.583 200.367 191.359C200.751 191.135 201.215 191.023 201.759 191.023C202.015 191.023 202.239 191.047 202.431 191.095C202.639 191.143 202.799 191.183 202.911 191.215V193.567H202.071C201.559 193.567 201.103 193.647 200.703 193.807C200.319 193.967 199.991 194.207 199.719 194.527C199.463 194.831 199.271 195.207 199.143 195.655C199.031 196.103 198.975 196.607 198.975 197.167V203.935H196.479ZM204.296 203.935V191.311H206.36L206.576 193.111H206.744C207.048 192.647 207.408 192.263 207.824 191.959C208.24 191.655 208.696 191.423 209.192 191.263C209.704 191.103 210.264 191.023 210.872 191.023C211.672 191.023 212.376 191.167 212.984 191.455C213.592 191.727 214.064 192.175 214.4 192.799C214.752 193.423 214.928 194.263 214.928 195.319V203.935H212.432V195.703C212.432 195.223 212.368 194.823 212.24 194.503C212.128 194.183 211.96 193.927 211.736 193.735C211.512 193.543 211.248 193.407 210.944 193.327C210.64 193.247 210.304 193.207 209.936 193.207C209.36 193.207 208.832 193.351 208.352 193.639C207.888 193.911 207.512 194.295 207.224 194.791C206.936 195.287 206.792 195.871 206.792 196.543V203.935H204.296ZM222.806 204.223C221.51 204.223 220.422 203.991 219.542 203.527C218.678 203.047 218.022 202.319 217.574 201.343C217.126 200.367 216.902 199.127 216.902 197.623C216.902 196.103 217.126 194.863 217.574 193.903C218.022 192.927 218.686 192.207 219.566 191.743C220.446 191.263 221.542 191.023 222.854 191.023C224.054 191.023 225.054 191.255 225.854 191.719C226.67 192.167 227.286 192.855 227.702 193.783C228.118 194.711 228.326 195.879 228.326 197.287V198.247H219.47C219.502 199.143 219.638 199.895 219.878 200.503C220.118 201.095 220.478 201.535 220.958 201.823C221.454 202.095 222.078 202.231 222.83 202.231C223.294 202.231 223.71 202.175 224.078 202.063C224.446 201.935 224.758 201.759 225.014 201.535C225.27 201.295 225.47 201.015 225.614 200.695C225.758 200.359 225.83 199.983 225.83 199.567H228.278C228.278 200.319 228.15 200.983 227.894 201.559C227.638 202.135 227.262 202.623 226.766 203.023C226.286 203.407 225.71 203.703 225.038 203.911C224.366 204.119 223.622 204.223 222.806 204.223ZM219.518 196.423H225.71C225.71 195.799 225.638 195.279 225.494 194.863C225.366 194.431 225.174 194.079 224.918 193.807C224.662 193.535 224.358 193.343 224.006 193.231C223.654 193.103 223.254 193.039 222.806 193.039C222.134 193.039 221.558 193.159 221.078 193.399C220.614 193.639 220.254 194.015 219.998 194.527C219.742 195.023 219.582 195.655 219.518 196.423ZM233.527 204.223C232.807 204.223 232.239 204.087 231.823 203.815C231.423 203.527 231.135 203.167 230.959 202.735C230.799 202.287 230.719 201.815 230.719 201.319V193.375H229.135V191.311H230.767L231.223 187.783H233.215V191.311H235.495V193.375H233.215V201.031C233.215 201.399 233.295 201.679 233.455 201.871C233.615 202.063 233.879 202.159 234.247 202.159H235.495V203.839C235.335 203.903 235.135 203.959 234.895 204.007C234.671 204.071 234.439 204.119 234.199 204.151C233.959 204.199 233.735 204.223 233.527 204.223Z" fill="white"/>
<path d="M30.292 240.103C29.312 240.103 28.4767 239.93 27.786 239.585C27.1047 239.23 26.582 238.684 26.218 237.947C25.854 237.21 25.672 236.272 25.672 235.133C25.672 233.453 26.078 232.207 26.89 231.395C27.7113 230.574 28.85 230.163 30.306 230.163C31.1087 230.163 31.8273 230.298 32.462 230.569C33.106 230.84 33.61 231.246 33.974 231.787C34.3473 232.319 34.534 233 34.534 233.831H32.938C32.938 233.318 32.8307 232.888 32.616 232.543C32.4013 232.198 32.0933 231.936 31.692 231.759C31.3 231.582 30.8427 231.493 30.32 231.493C29.6667 231.493 29.1113 231.624 28.654 231.885C28.206 232.137 27.8653 232.52 27.632 233.033C27.408 233.546 27.296 234.2 27.296 234.993V235.301C27.296 236.094 27.408 236.748 27.632 237.261C27.8653 237.774 28.206 238.157 28.654 238.409C29.102 238.652 29.6573 238.773 30.32 238.773C30.8613 238.773 31.3327 238.689 31.734 238.521C32.1353 238.344 32.4433 238.082 32.658 237.737C32.882 237.392 32.994 236.962 32.994 236.449H34.534C34.534 237.28 34.3473 237.966 33.974 238.507C33.61 239.048 33.106 239.45 32.462 239.711C31.8273 239.972 31.104 240.103 30.292 240.103ZM38.9385 240.103C38.1732 240.103 37.5245 239.968 36.9925 239.697C36.4699 239.417 36.0732 238.992 35.8025 238.423C35.5412 237.854 35.4105 237.13 35.4105 236.253C35.4105 235.366 35.5412 234.643 35.8025 234.083C36.0732 233.514 36.4699 233.094 36.9925 232.823C37.5245 232.543 38.1732 232.403 38.9385 232.403C39.7225 232.403 40.3759 232.543 40.8985 232.823C41.4212 233.094 41.8132 233.514 42.0745 234.083C42.3452 234.643 42.4805 235.366 42.4805 236.253C42.4805 237.13 42.3452 237.854 42.0745 238.423C41.8132 238.992 41.4212 239.417 40.8985 239.697C40.3759 239.968 39.7225 240.103 38.9385 240.103ZM38.9385 238.899C39.4052 238.899 39.7879 238.81 40.0865 238.633C40.3852 238.446 40.6045 238.166 40.7445 237.793C40.8939 237.42 40.9685 236.948 40.9685 236.379V236.127C40.9685 235.558 40.8939 235.086 40.7445 234.713C40.6045 234.34 40.3852 234.064 40.0865 233.887C39.7879 233.7 39.4052 233.607 38.9385 233.607C38.4812 233.607 38.1032 233.7 37.8045 233.887C37.5059 234.064 37.2819 234.34 37.1325 234.713C36.9925 235.086 36.9225 235.558 36.9225 236.127V236.379C36.9225 236.948 36.9925 237.42 37.1325 237.793C37.2819 238.166 37.5059 238.446 37.8045 238.633C38.1032 238.81 38.4812 238.899 38.9385 238.899ZM43.6846 239.935V232.571H44.8886L45.0146 233.621H45.1126C45.29 233.35 45.5 233.126 45.7426 232.949C45.9853 232.772 46.2513 232.636 46.5406 232.543C46.8393 232.45 47.166 232.403 47.5206 232.403C47.9873 232.403 48.398 232.487 48.7526 232.655C49.1073 232.814 49.3826 233.075 49.5786 233.439C49.784 233.803 49.8866 234.293 49.8866 234.909V239.935H48.4306V235.133C48.4306 234.853 48.3933 234.62 48.3186 234.433C48.2533 234.246 48.1553 234.097 48.0246 233.985C47.894 233.873 47.74 233.794 47.5626 233.747C47.3853 233.7 47.1893 233.677 46.9746 233.677C46.6386 233.677 46.3306 233.761 46.0506 233.929C45.78 234.088 45.5606 234.312 45.3926 234.601C45.2246 234.89 45.1406 235.231 45.1406 235.623V239.935H43.6846ZM53.264 240.103C52.844 240.103 52.5127 240.024 52.27 239.865C52.0367 239.697 51.8687 239.487 51.766 239.235C51.6727 238.974 51.626 238.698 51.626 238.409V233.775H50.702V232.571H51.654L51.92 230.513H53.082V232.571H54.412V233.775H53.082V238.241C53.082 238.456 53.1287 238.619 53.222 238.731C53.3154 238.843 53.4694 238.899 53.684 238.899H54.412V239.879C54.3187 239.916 54.202 239.949 54.062 239.977C53.9314 240.014 53.796 240.042 53.656 240.061C53.516 240.089 53.3854 240.103 53.264 240.103ZM55.4157 239.935V232.571H56.6197L56.7457 233.761H56.8297C56.9137 233.528 57.021 233.308 57.1517 233.103C57.2917 232.898 57.469 232.73 57.6837 232.599C57.9077 232.468 58.1783 232.403 58.4957 232.403C58.645 232.403 58.7757 232.417 58.8877 232.445C59.009 232.473 59.1023 232.496 59.1677 232.515V233.887H58.6777C58.379 233.887 58.113 233.934 57.8797 234.027C57.6557 234.12 57.4643 234.26 57.3057 234.447C57.1563 234.624 57.0443 234.844 56.9697 235.105C56.9043 235.366 56.8717 235.66 56.8717 235.987V239.935H55.4157ZM62.9748 240.103C62.2094 240.103 61.5608 239.968 61.0288 239.697C60.5061 239.417 60.1094 238.992 59.8388 238.423C59.5774 237.854 59.4468 237.13 59.4468 236.253C59.4468 235.366 59.5774 234.643 59.8388 234.083C60.1094 233.514 60.5061 233.094 61.0288 232.823C61.5608 232.543 62.2094 232.403 62.9748 232.403C63.7588 232.403 64.4121 232.543 64.9348 232.823C65.4574 233.094 65.8494 233.514 66.1108 234.083C66.3814 234.643 66.5168 235.366 66.5168 236.253C66.5168 237.13 66.3814 237.854 66.1108 238.423C65.8494 238.992 65.4574 239.417 64.9348 239.697C64.4121 239.968 63.7588 240.103 62.9748 240.103ZM62.9748 238.899C63.4414 238.899 63.8241 238.81 64.1228 238.633C64.4214 238.446 64.6408 238.166 64.7808 237.793C64.9301 237.42 65.0048 236.948 65.0048 236.379V236.127C65.0048 235.558 64.9301 235.086 64.7808 234.713C64.6408 234.34 64.4214 234.064 64.1228 233.887C63.8241 233.7 63.4414 233.607 62.9748 233.607C62.5174 233.607 62.1394 233.7 61.8408 233.887C61.5421 234.064 61.3181 234.34 61.1688 234.713C61.0288 235.086 60.9588 235.558 60.9588 236.127V236.379C60.9588 236.948 61.0288 237.42 61.1688 237.793C61.3181 238.166 61.5421 238.446 61.8408 238.633C62.1394 238.81 62.5174 238.899 62.9748 238.899ZM67.7209 239.935V229.813H69.1769V239.935H67.7209ZM75.2019 240.103C74.7819 240.103 74.4506 240.024 74.2079 239.865C73.9746 239.697 73.8066 239.487 73.7039 239.235C73.6106 238.974 73.5639 238.698 73.5639 238.409V233.775H72.6399V232.571H73.5919L73.8579 230.513H75.0199V232.571H76.3499V233.775H75.0199V238.241C75.0199 238.456 75.0666 238.619 75.1599 238.731C75.2533 238.843 75.4073 238.899 75.6219 238.899H76.3499V239.879C76.2566 239.916 76.1399 239.949 75.9999 239.977C75.8693 240.014 75.7339 240.042 75.5939 240.061C75.4539 240.089 75.3233 240.103 75.2019 240.103ZM77.3535 239.935V229.813H78.8095V233.453H78.9075C79.0849 233.229 79.2855 233.042 79.5095 232.893C79.7335 232.734 79.9855 232.613 80.2655 232.529C80.5455 232.445 80.8535 232.403 81.1895 232.403C81.6562 232.403 82.0669 232.487 82.4215 232.655C82.7762 232.814 83.0515 233.075 83.2475 233.439C83.4529 233.803 83.5555 234.293 83.5555 234.909V239.935H82.0995V235.133C82.0995 234.853 82.0622 234.62 81.9875 234.433C81.9222 234.246 81.8242 234.097 81.6935 233.985C81.5629 233.873 81.4089 233.794 81.2315 233.747C81.0542 233.7 80.8582 233.677 80.6435 233.677C80.3075 233.677 79.9995 233.756 79.7195 233.915C79.4489 234.074 79.2295 234.298 79.0615 234.587C78.8935 234.876 78.8095 235.222 78.8095 235.623V239.935H77.3535ZM88.1509 240.103C87.3949 240.103 86.7603 239.968 86.2469 239.697C85.7429 239.417 85.3603 238.992 85.0989 238.423C84.8376 237.854 84.7069 237.13 84.7069 236.253C84.7069 235.366 84.8376 234.643 85.0989 234.083C85.3603 233.514 85.7476 233.094 86.2609 232.823C86.7743 232.543 87.4136 232.403 88.1789 232.403C88.8789 232.403 89.4623 232.538 89.9289 232.809C90.4049 233.07 90.7643 233.472 91.0069 234.013C91.2496 234.554 91.3709 235.236 91.3709 236.057V236.617H86.2049C86.2236 237.14 86.3029 237.578 86.4429 237.933C86.5829 238.278 86.7929 238.535 87.0729 238.703C87.3623 238.862 87.7263 238.941 88.1649 238.941C88.4356 238.941 88.6783 238.908 88.8929 238.843C89.1076 238.768 89.2896 238.666 89.4389 238.535C89.5883 238.395 89.7049 238.232 89.7889 238.045C89.8729 237.849 89.9149 237.63 89.9149 237.387H91.3429C91.3429 237.826 91.2683 238.213 91.1189 238.549C90.9696 238.885 90.7503 239.17 90.4609 239.403C90.1809 239.627 89.8449 239.8 89.4529 239.921C89.0609 240.042 88.6269 240.103 88.1509 240.103ZM86.2329 235.553H89.8449C89.8449 235.189 89.8029 234.886 89.7189 234.643C89.6443 234.391 89.5323 234.186 89.3829 234.027C89.2336 233.868 89.0563 233.756 88.8509 233.691C88.6456 233.616 88.4123 233.579 88.1509 233.579C87.7589 233.579 87.4229 233.649 87.1429 233.789C86.8723 233.929 86.6623 234.148 86.5129 234.447C86.3636 234.736 86.2703 235.105 86.2329 235.553ZM98.088 240.103C97.3507 240.103 96.7347 239.968 96.24 239.697C95.7453 239.417 95.372 238.992 95.12 238.423C94.8773 237.854 94.756 237.13 94.756 236.253C94.756 235.376 94.882 234.657 95.134 234.097C95.386 233.528 95.7593 233.103 96.254 232.823C96.758 232.543 97.374 232.403 98.102 232.403C98.606 232.403 99.0447 232.468 99.418 232.599C99.7913 232.72 100.109 232.907 100.37 233.159C100.631 233.402 100.823 233.705 100.944 234.069C101.075 234.433 101.14 234.848 101.14 235.315H99.67C99.67 234.923 99.614 234.601 99.502 234.349C99.39 234.097 99.2173 233.91 98.984 233.789C98.7507 233.658 98.4473 233.593 98.074 233.593C97.682 233.593 97.3507 233.686 97.08 233.873C96.8093 234.05 96.604 234.326 96.464 234.699C96.324 235.063 96.254 235.544 96.254 236.141V236.379C96.254 236.948 96.3193 237.424 96.45 237.807C96.59 238.18 96.7953 238.46 97.066 238.647C97.346 238.824 97.7007 238.913 98.13 238.913C98.5033 238.913 98.802 238.848 99.026 238.717C99.2593 238.577 99.432 238.381 99.544 238.129C99.6653 237.868 99.726 237.555 99.726 237.191H101.14C101.14 237.63 101.075 238.026 100.944 238.381C100.823 238.736 100.631 239.044 100.37 239.305C100.118 239.557 99.8007 239.753 99.418 239.893C99.0353 240.033 98.592 240.103 98.088 240.103ZM105.469 240.103C104.704 240.103 104.055 239.968 103.523 239.697C103 239.417 102.604 238.992 102.333 238.423C102.072 237.854 101.941 237.13 101.941 236.253C101.941 235.366 102.072 234.643 102.333 234.083C102.604 233.514 103 233.094 103.523 232.823C104.055 232.543 104.704 232.403 105.469 232.403C106.253 232.403 106.906 232.543 107.429 232.823C107.952 233.094 108.344 233.514 108.605 234.083C108.876 234.643 109.011 235.366 109.011 236.253C109.011 237.13 108.876 237.854 108.605 238.423C108.344 238.992 107.952 239.417 107.429 239.697C106.906 239.968 106.253 240.103 105.469 240.103ZM105.469 238.899C105.936 238.899 106.318 238.81 106.617 238.633C106.916 238.446 107.135 238.166 107.275 237.793C107.424 237.42 107.499 236.948 107.499 236.379V236.127C107.499 235.558 107.424 235.086 107.275 234.713C107.135 234.34 106.916 234.064 106.617 233.887C106.318 233.7 105.936 233.607 105.469 233.607C105.012 233.607 104.634 233.7 104.335 233.887C104.036 234.064 103.812 234.34 103.663 234.713C103.523 235.086 103.453 235.558 103.453 236.127V236.379C103.453 236.948 103.523 237.42 103.663 237.793C103.812 238.166 104.036 238.446 104.335 238.633C104.634 238.81 105.012 238.899 105.469 238.899ZM110.215 239.935V232.571H111.419L111.545 233.621H111.643C111.821 233.35 112.031 233.126 112.273 232.949C112.516 232.772 112.782 232.636 113.071 232.543C113.37 232.45 113.697 232.403 114.051 232.403C114.518 232.403 114.929 232.487 115.283 232.655C115.638 232.814 115.913 233.075 116.109 233.439C116.315 233.803 116.417 234.293 116.417 234.909V239.935H114.961V235.133C114.961 234.853 114.924 234.62 114.849 234.433C114.784 234.246 114.686 234.097 114.555 233.985C114.425 233.873 114.271 233.794 114.093 233.747C113.916 233.7 113.72 233.677 113.505 233.677C113.169 233.677 112.861 233.761 112.581 233.929C112.311 234.088 112.091 234.312 111.923 234.601C111.755 234.89 111.671 235.231 111.671 235.623V239.935H110.215ZM117.961 239.935V232.571H119.165L119.291 233.621H119.389C119.566 233.35 119.776 233.126 120.019 232.949C120.261 232.772 120.527 232.636 120.817 232.543C121.115 232.45 121.442 232.403 121.797 232.403C122.263 232.403 122.674 232.487 123.029 232.655C123.383 232.814 123.659 233.075 123.855 233.439C124.06 233.803 124.163 234.293 124.163 234.909V239.935H122.707V235.133C122.707 234.853 122.669 234.62 122.595 234.433C122.529 234.246 122.431 234.097 122.301 233.985C122.17 233.873 122.016 233.794 121.839 233.747C121.661 233.7 121.465 233.677 121.251 233.677C120.915 233.677 120.607 233.761 120.327 233.929C120.056 234.088 119.837 234.312 119.669 234.601C119.501 234.89 119.417 235.231 119.417 235.623V239.935H117.961ZM128.758 240.103C128.002 240.103 127.367 239.968 126.854 239.697C126.35 239.417 125.967 238.992 125.706 238.423C125.445 237.854 125.314 237.13 125.314 236.253C125.314 235.366 125.445 234.643 125.706 234.083C125.967 233.514 126.355 233.094 126.868 232.823C127.381 232.543 128.021 232.403 128.786 232.403C129.486 232.403 130.069 232.538 130.536 232.809C131.012 233.07 131.371 233.472 131.614 234.013C131.857 234.554 131.978 235.236 131.978 236.057V236.617H126.812C126.831 237.14 126.91 237.578 127.05 237.933C127.19 238.278 127.4 238.535 127.68 238.703C127.969 238.862 128.333 238.941 128.772 238.941C129.043 238.941 129.285 238.908 129.5 238.843C129.715 238.768 129.897 238.666 130.046 238.535C130.195 238.395 130.312 238.232 130.396 238.045C130.48 237.849 130.522 237.63 130.522 237.387H131.95C131.95 237.826 131.875 238.213 131.726 238.549C131.577 238.885 131.357 239.17 131.068 239.403C130.788 239.627 130.452 239.8 130.06 239.921C129.668 240.042 129.234 240.103 128.758 240.103ZM126.84 235.553H130.452C130.452 235.189 130.41 234.886 130.326 234.643C130.251 234.391 130.139 234.186 129.99 234.027C129.841 233.868 129.663 233.756 129.458 233.691C129.253 233.616 129.019 233.579 128.758 233.579C128.366 233.579 128.03 233.649 127.75 233.789C127.479 233.929 127.269 234.148 127.12 234.447C126.971 234.736 126.877 235.105 126.84 235.553ZM136.104 240.103C135.367 240.103 134.751 239.968 134.256 239.697C133.761 239.417 133.388 238.992 133.136 238.423C132.893 237.854 132.772 237.13 132.772 236.253C132.772 235.376 132.898 234.657 133.15 234.097C133.402 233.528 133.775 233.103 134.27 232.823C134.774 232.543 135.39 232.403 136.118 232.403C136.622 232.403 137.061 232.468 137.434 232.599C137.807 232.72 138.125 232.907 138.386 233.159C138.647 233.402 138.839 233.705 138.96 234.069C139.091 234.433 139.156 234.848 139.156 235.315H137.686C137.686 234.923 137.63 234.601 137.518 234.349C137.406 234.097 137.233 233.91 137 233.789C136.767 233.658 136.463 233.593 136.09 233.593C135.698 233.593 135.367 233.686 135.096 233.873C134.825 234.05 134.62 234.326 134.48 234.699C134.34 235.063 134.27 235.544 134.27 236.141V236.379C134.27 236.948 134.335 237.424 134.466 237.807C134.606 238.18 134.811 238.46 135.082 238.647C135.362 238.824 135.717 238.913 136.146 238.913C136.519 238.913 136.818 238.848 137.042 238.717C137.275 238.577 137.448 238.381 137.56 238.129C137.681 237.868 137.742 237.555 137.742 237.191H139.156C139.156 237.63 139.091 238.026 138.96 238.381C138.839 238.736 138.647 239.044 138.386 239.305C138.134 239.557 137.817 239.753 137.434 239.893C137.051 240.033 136.608 240.103 136.104 240.103ZM142.183 240.103C141.763 240.103 141.432 240.024 141.189 239.865C140.956 239.697 140.788 239.487 140.685 239.235C140.592 238.974 140.545 238.698 140.545 238.409V233.775H139.621V232.571H140.573L140.839 230.513H142.001V232.571H143.331V233.775H142.001V238.241C142.001 238.456 142.048 238.619 142.141 238.731C142.235 238.843 142.389 238.899 142.603 238.899H143.331V239.879C143.238 239.916 143.121 239.949 142.981 239.977C142.851 240.014 142.715 240.042 142.575 240.061C142.435 240.089 142.305 240.103 142.183 240.103ZM144.335 231.297V229.813H145.791V231.297H144.335ZM144.335 239.935V232.571H145.791V239.935H144.335ZM150.527 240.103C149.761 240.103 149.113 239.968 148.581 239.697C148.058 239.417 147.661 238.992 147.391 238.423C147.129 237.854 146.999 237.13 146.999 236.253C146.999 235.366 147.129 234.643 147.391 234.083C147.661 233.514 148.058 233.094 148.581 232.823C149.113 232.543 149.761 232.403 150.527 232.403C151.311 232.403 151.964 232.543 152.487 232.823C153.009 233.094 153.401 233.514 153.663 234.083C153.933 234.643 154.069 235.366 154.069 236.253C154.069 237.13 153.933 237.854 153.663 238.423C153.401 238.992 153.009 239.417 152.487 239.697C151.964 239.968 151.311 240.103 150.527 240.103ZM150.527 238.899C150.993 238.899 151.376 238.81 151.675 238.633C151.973 238.446 152.193 238.166 152.333 237.793C152.482 237.42 152.557 236.948 152.557 236.379V236.127C152.557 235.558 152.482 235.086 152.333 234.713C152.193 234.34 151.973 234.064 151.675 233.887C151.376 233.7 150.993 233.607 150.527 233.607C150.069 233.607 149.691 233.7 149.393 233.887C149.094 234.064 148.87 234.34 148.721 234.713C148.581 235.086 148.511 235.558 148.511 236.127V236.379C148.511 236.948 148.581 237.42 148.721 237.793C148.87 238.166 149.094 238.446 149.393 238.633C149.691 238.81 150.069 238.899 150.527 238.899ZM155.273 239.935V232.571H156.477L156.603 233.621H156.701C156.878 233.35 157.088 233.126 157.331 232.949C157.574 232.772 157.84 232.636 158.129 232.543C158.428 232.45 158.754 232.403 159.109 232.403C159.576 232.403 159.986 232.487 160.341 232.655C160.696 232.814 160.971 233.075 161.167 233.439C161.372 233.803 161.475 234.293 161.475 234.909V239.935H160.019V235.133C160.019 234.853 159.982 234.62 159.907 234.433C159.842 234.246 159.744 234.097 159.613 233.985C159.482 233.873 159.328 233.794 159.151 233.747C158.974 233.7 158.778 233.677 158.563 233.677C158.227 233.677 157.919 233.761 157.639 233.929C157.368 234.088 157.149 234.312 156.981 234.601C156.813 234.89 156.729 235.231 156.729 235.623V239.935H155.273ZM168.325 240.103C167.812 240.103 167.359 240.047 166.967 239.935C166.575 239.823 166.249 239.669 165.987 239.473C165.726 239.277 165.525 239.044 165.385 238.773C165.255 238.493 165.189 238.185 165.189 237.849C165.189 237.802 165.189 237.76 165.189 237.723C165.199 237.686 165.203 237.653 165.203 237.625H166.645C166.645 237.653 166.645 237.681 166.645 237.709C166.645 237.728 166.645 237.751 166.645 237.779C166.645 238.068 166.725 238.302 166.883 238.479C167.042 238.647 167.252 238.768 167.513 238.843C167.784 238.908 168.078 238.941 168.395 238.941C168.675 238.941 168.932 238.908 169.165 238.843C169.408 238.768 169.604 238.661 169.753 238.521C169.912 238.381 169.991 238.204 169.991 237.989C169.991 237.709 169.893 237.494 169.697 237.345C169.501 237.196 169.245 237.079 168.927 236.995C168.61 236.902 168.279 236.804 167.933 236.701C167.625 236.617 167.317 236.528 167.009 236.435C166.711 236.332 166.44 236.202 166.197 236.043C165.955 235.884 165.759 235.684 165.609 235.441C165.46 235.198 165.385 234.895 165.385 234.531C165.385 234.186 165.46 233.882 165.609 233.621C165.759 233.36 165.964 233.14 166.225 232.963C166.496 232.786 166.813 232.65 167.177 232.557C167.551 232.464 167.957 232.417 168.395 232.417C168.853 232.417 169.259 232.468 169.613 232.571C169.968 232.664 170.267 232.8 170.509 232.977C170.761 233.154 170.953 233.369 171.083 233.621C171.214 233.864 171.279 234.125 171.279 234.405C171.279 234.461 171.275 234.522 171.265 234.587C171.265 234.643 171.265 234.68 171.265 234.699H169.837V234.573C169.837 234.386 169.786 234.218 169.683 234.069C169.581 233.92 169.417 233.798 169.193 233.705C168.979 233.612 168.689 233.565 168.325 233.565C168.083 233.565 167.868 233.588 167.681 233.635C167.495 233.672 167.341 233.728 167.219 233.803C167.098 233.878 167.005 233.966 166.939 234.069C166.883 234.172 166.855 234.288 166.855 234.419C166.855 234.634 166.93 234.802 167.079 234.923C167.238 235.035 167.443 235.133 167.695 235.217C167.947 235.292 168.218 235.376 168.507 235.469C168.843 235.562 169.184 235.66 169.529 235.763C169.875 235.856 170.192 235.978 170.481 236.127C170.78 236.276 171.018 236.482 171.195 236.743C171.382 237.004 171.475 237.354 171.475 237.793C171.475 238.194 171.396 238.544 171.237 238.843C171.079 239.142 170.855 239.384 170.565 239.571C170.285 239.748 169.954 239.879 169.571 239.963C169.189 240.056 168.773 240.103 168.325 240.103ZM174.505 240.103C174.085 240.103 173.754 240.024 173.511 239.865C173.278 239.697 173.11 239.487 173.007 239.235C172.914 238.974 172.867 238.698 172.867 238.409V233.775H171.943V232.571H172.895L173.161 230.513H174.323V232.571H175.653V233.775H174.323V238.241C174.323 238.456 174.37 238.619 174.463 238.731C174.556 238.843 174.71 238.899 174.925 238.899H175.653V239.879C175.56 239.916 175.443 239.949 175.303 239.977C175.172 240.014 175.037 240.042 174.897 240.061C174.757 240.089 174.626 240.103 174.505 240.103ZM178.519 240.103C178.285 240.103 178.033 240.075 177.763 240.019C177.492 239.963 177.235 239.86 176.993 239.711C176.759 239.562 176.568 239.356 176.419 239.095C176.269 238.824 176.195 238.474 176.195 238.045C176.195 237.541 176.311 237.126 176.545 236.799C176.778 236.472 177.105 236.216 177.525 236.029C177.945 235.842 178.444 235.712 179.023 235.637C179.611 235.562 180.25 235.525 180.941 235.525V234.797C180.941 234.554 180.899 234.34 180.815 234.153C180.74 233.966 180.595 233.822 180.381 233.719C180.175 233.616 179.877 233.565 179.485 233.565C179.093 233.565 178.785 233.616 178.561 233.719C178.346 233.812 178.192 233.934 178.099 234.083C178.015 234.223 177.973 234.377 177.973 234.545V234.755H176.573C176.563 234.708 176.559 234.662 176.559 234.615C176.559 234.568 176.559 234.512 176.559 234.447C176.559 234.008 176.68 233.64 176.923 233.341C177.175 233.033 177.525 232.8 177.973 232.641C178.421 232.482 178.939 232.403 179.527 232.403C180.161 232.403 180.689 232.496 181.109 232.683C181.538 232.86 181.86 233.117 182.075 233.453C182.289 233.789 182.397 234.195 182.397 234.671V238.409C182.397 238.586 182.439 238.712 182.523 238.787C182.616 238.862 182.723 238.899 182.845 238.899H183.349V239.879C183.237 239.926 183.097 239.972 182.929 240.019C182.761 240.066 182.565 240.089 182.341 240.089C182.089 240.089 181.874 240.042 181.697 239.949C181.529 239.865 181.389 239.744 181.277 239.585C181.174 239.417 181.104 239.23 181.067 239.025H180.983C180.815 239.24 180.609 239.431 180.367 239.599C180.133 239.758 179.863 239.879 179.555 239.963C179.247 240.056 178.901 240.103 178.519 240.103ZM178.925 238.899C179.214 238.899 179.48 238.857 179.723 238.773C179.975 238.68 180.189 238.554 180.367 238.395C180.544 238.227 180.684 238.031 180.787 237.807C180.889 237.574 180.941 237.322 180.941 237.051V236.561C180.297 236.561 179.732 236.598 179.247 236.673C178.761 236.748 178.383 236.888 178.113 237.093C177.842 237.289 177.707 237.564 177.707 237.919C177.707 238.134 177.753 238.316 177.847 238.465C177.94 238.605 178.08 238.712 178.267 238.787C178.453 238.862 178.673 238.899 178.925 238.899ZM185.908 240.103C185.488 240.103 185.157 240.024 184.914 239.865C184.681 239.697 184.513 239.487 184.41 239.235C184.317 238.974 184.27 238.698 184.27 238.409V233.775H183.346V232.571H184.298L184.564 230.513H185.726V232.571H187.056V233.775H185.726V238.241C185.726 238.456 185.773 238.619 185.866 238.731C185.959 238.843 186.113 238.899 186.328 238.899H187.056V239.879C186.963 239.916 186.846 239.949 186.706 239.977C186.575 240.014 186.44 240.042 186.3 240.061C186.16 240.089 186.029 240.103 185.908 240.103ZM190.37 240.103C189.66 240.103 189.086 239.916 188.648 239.543C188.209 239.16 187.99 238.512 187.99 237.597V232.571H189.446V237.373C189.446 237.653 189.478 237.886 189.544 238.073C189.618 238.26 189.721 238.409 189.852 238.521C189.982 238.633 190.136 238.712 190.314 238.759C190.491 238.806 190.687 238.829 190.902 238.829C191.238 238.829 191.541 238.75 191.812 238.591C192.092 238.423 192.316 238.194 192.484 237.905C192.652 237.606 192.736 237.266 192.736 236.883V232.571H194.192V239.935H193.002L192.876 238.885H192.778C192.6 239.156 192.39 239.38 192.148 239.557C191.905 239.734 191.634 239.87 191.336 239.963C191.046 240.056 190.724 240.103 190.37 240.103ZM198.507 240.103C197.994 240.103 197.541 240.047 197.149 239.935C196.757 239.823 196.431 239.669 196.169 239.473C195.908 239.277 195.707 239.044 195.567 238.773C195.437 238.493 195.371 238.185 195.371 237.849C195.371 237.802 195.371 237.76 195.371 237.723C195.381 237.686 195.385 237.653 195.385 237.625H196.827C196.827 237.653 196.827 237.681 196.827 237.709C196.827 237.728 196.827 237.751 196.827 237.779C196.827 238.068 196.907 238.302 197.065 238.479C197.224 238.647 197.434 238.768 197.695 238.843C197.966 238.908 198.26 238.941 198.577 238.941C198.857 238.941 199.114 238.908 199.347 238.843C199.59 238.768 199.786 238.661 199.935 238.521C200.094 238.381 200.173 238.204 200.173 237.989C200.173 237.709 200.075 237.494 199.879 237.345C199.683 237.196 199.427 237.079 199.109 236.995C198.792 236.902 198.461 236.804 198.115 236.701C197.807 236.617 197.499 236.528 197.191 236.435C196.893 236.332 196.622 236.202 196.379 236.043C196.137 235.884 195.941 235.684 195.791 235.441C195.642 235.198 195.567 234.895 195.567 234.531C195.567 234.186 195.642 233.882 195.791 233.621C195.941 233.36 196.146 233.14 196.407 232.963C196.678 232.786 196.995 232.65 197.359 232.557C197.733 232.464 198.139 232.417 198.577 232.417C199.035 232.417 199.441 232.468 199.795 232.571C200.15 232.664 200.449 232.8 200.691 232.977C200.943 233.154 201.135 233.369 201.265 233.621C201.396 233.864 201.461 234.125 201.461 234.405C201.461 234.461 201.457 234.522 201.447 234.587C201.447 234.643 201.447 234.68 201.447 234.699H200.019V234.573C200.019 234.386 199.968 234.218 199.865 234.069C199.763 233.92 199.599 233.798 199.375 233.705C199.161 233.612 198.871 233.565 198.507 233.565C198.265 233.565 198.05 233.588 197.863 233.635C197.677 233.672 197.523 233.728 197.401 233.803C197.28 233.878 197.187 233.966 197.121 234.069C197.065 234.172 197.037 234.288 197.037 234.419C197.037 234.634 197.112 234.802 197.261 234.923C197.42 235.035 197.625 235.133 197.877 235.217C198.129 235.292 198.4 235.376 198.689 235.469C199.025 235.562 199.366 235.66 199.711 235.763C200.057 235.856 200.374 235.978 200.663 236.127C200.962 236.276 201.2 236.482 201.377 236.743C201.564 237.004 201.657 237.354 201.657 237.793C201.657 238.194 201.578 238.544 201.419 238.843C201.261 239.142 201.037 239.384 200.747 239.571C200.467 239.748 200.136 239.879 199.753 239.963C199.371 240.056 198.955 240.103 198.507 240.103ZM208.58 240.103C207.815 240.103 207.166 239.968 206.634 239.697C206.112 239.417 205.715 238.992 205.444 238.423C205.183 237.854 205.052 237.13 205.052 236.253C205.052 235.366 205.183 234.643 205.444 234.083C205.715 233.514 206.112 233.094 206.634 232.823C207.166 232.543 207.815 232.403 208.58 232.403C209.364 232.403 210.018 232.543 210.54 232.823C211.063 233.094 211.455 233.514 211.716 234.083C211.987 234.643 212.122 235.366 212.122 236.253C212.122 237.13 211.987 237.854 211.716 238.423C211.455 238.992 211.063 239.417 210.54 239.697C210.018 239.968 209.364 240.103 208.58 240.103ZM208.58 238.899C209.047 238.899 209.43 238.81 209.728 238.633C210.027 238.446 210.246 238.166 210.386 237.793C210.536 237.42 210.61 236.948 210.61 236.379V236.127C210.61 235.558 210.536 235.086 210.386 234.713C210.246 234.34 210.027 234.064 209.728 233.887C209.43 233.7 209.047 233.607 208.58 233.607C208.123 233.607 207.745 233.7 207.446 233.887C207.148 234.064 206.924 234.34 206.774 234.713C206.634 235.086 206.564 235.558 206.564 236.127V236.379C206.564 236.948 206.634 237.42 206.774 237.793C206.924 238.166 207.148 238.446 207.446 238.633C207.745 238.81 208.123 238.899 208.58 238.899ZM213.648 239.935V233.775H212.57V232.571H213.648V231.507C213.648 231.199 213.695 230.91 213.788 230.639C213.891 230.368 214.064 230.144 214.306 229.967C214.558 229.79 214.913 229.701 215.37 229.701C215.501 229.701 215.632 229.71 215.762 229.729C215.902 229.738 216.033 229.757 216.154 229.785C216.276 229.813 216.383 229.846 216.476 229.883V230.905H215.762C215.538 230.905 215.37 230.961 215.258 231.073C215.156 231.185 215.104 231.348 215.104 231.563V232.571H216.476V233.775H215.104V239.935H213.648ZM221.601 240.103C221.368 240.103 221.116 240.075 220.845 240.019C220.574 239.963 220.318 239.86 220.075 239.711C219.842 239.562 219.65 239.356 219.501 239.095C219.352 238.824 219.277 238.474 219.277 238.045C219.277 237.541 219.394 237.126 219.627 236.799C219.86 236.472 220.187 236.216 220.607 236.029C221.027 235.842 221.526 235.712 222.105 235.637C222.693 235.562 223.332 235.525 224.023 235.525V234.797C224.023 234.554 223.981 234.34 223.897 234.153C223.822 233.966 223.678 233.822 223.463 233.719C223.258 233.616 222.959 233.565 222.567 233.565C222.175 233.565 221.867 233.616 221.643 233.719C221.428 233.812 221.274 233.934 221.181 234.083C221.097 234.223 221.055 234.377 221.055 234.545V234.755H219.655C219.646 234.708 219.641 234.662 219.641 234.615C219.641 234.568 219.641 234.512 219.641 234.447C219.641 234.008 219.762 233.64 220.005 233.341C220.257 233.033 220.607 232.8 221.055 232.641C221.503 232.482 222.021 232.403 222.609 232.403C223.244 232.403 223.771 232.496 224.191 232.683C224.62 232.86 224.942 233.117 225.157 233.453C225.372 233.789 225.479 234.195 225.479 234.671V238.409C225.479 238.586 225.521 238.712 225.605 238.787C225.698 238.862 225.806 238.899 225.927 238.899H226.431V239.879C226.319 239.926 226.179 239.972 226.011 240.019C225.843 240.066 225.647 240.089 225.423 240.089C225.171 240.089 224.956 240.042 224.779 239.949C224.611 239.865 224.471 239.744 224.359 239.585C224.256 239.417 224.186 239.23 224.149 239.025H224.065C223.897 239.24 223.692 239.431 223.449 239.599C223.216 239.758 222.945 239.879 222.637 239.963C222.329 240.056 221.984 240.103 221.601 240.103ZM222.007 238.899C222.296 238.899 222.562 238.857 222.805 238.773C223.057 238.68 223.272 238.554 223.449 238.395C223.626 238.227 223.766 238.031 223.869 237.807C223.972 237.574 224.023 237.322 224.023 237.051V236.561C223.379 236.561 222.814 236.598 222.329 236.673C221.844 236.748 221.466 236.888 221.195 237.093C220.924 237.289 220.789 237.564 220.789 237.919C220.789 238.134 220.836 238.316 220.929 238.465C221.022 238.605 221.162 238.712 221.349 238.787C221.536 238.862 221.755 238.899 222.007 238.899ZM227.156 239.935V229.813H228.612V239.935H227.156ZM230.212 239.935V229.813H231.668V239.935H230.212ZM238.785 240.103C238.048 240.103 237.432 239.968 236.937 239.697C236.443 239.417 236.069 238.992 235.817 238.423C235.575 237.854 235.453 237.13 235.453 236.253C235.453 235.376 235.579 234.657 235.831 234.097C236.083 233.528 236.457 233.103 236.951 232.823C237.455 232.543 238.071 232.403 238.799 232.403C239.303 232.403 239.742 232.468 240.115 232.599C240.489 232.72 240.806 232.907 241.067 233.159C241.329 233.402 241.52 233.705 241.641 234.069C241.772 234.433 241.837 234.848 241.837 235.315H240.367C240.367 234.923 240.311 234.601 240.199 234.349C240.087 234.097 239.915 233.91 239.681 233.789C239.448 233.658 239.145 233.593 238.771 233.593C238.379 233.593 238.048 233.686 237.777 233.873C237.507 234.05 237.301 234.326 237.161 234.699C237.021 235.063 236.951 235.544 236.951 236.141V236.379C236.951 236.948 237.017 237.424 237.147 237.807C237.287 238.18 237.493 238.46 237.763 238.647C238.043 238.824 238.398 238.913 238.827 238.913C239.201 238.913 239.499 238.848 239.723 238.717C239.957 238.577 240.129 238.381 240.241 238.129C240.363 237.868 240.423 237.555 240.423 237.191H241.837C241.837 237.63 241.772 238.026 241.641 238.381C241.52 238.736 241.329 239.044 241.067 239.305C240.815 239.557 240.498 239.753 240.115 239.893C239.733 240.033 239.289 240.103 238.785 240.103ZM246.166 240.103C245.401 240.103 244.752 239.968 244.22 239.697C243.698 239.417 243.301 238.992 243.03 238.423C242.769 237.854 242.638 237.13 242.638 236.253C242.638 235.366 242.769 234.643 243.03 234.083C243.301 233.514 243.698 233.094 244.22 232.823C244.752 232.543 245.401 232.403 246.166 232.403C246.95 232.403 247.604 232.543 248.126 232.823C248.649 233.094 249.041 233.514 249.302 234.083C249.573 234.643 249.708 235.366 249.708 236.253C249.708 237.13 249.573 237.854 249.302 238.423C249.041 238.992 248.649 239.417 248.126 239.697C247.604 239.968 246.95 240.103 246.166 240.103ZM246.166 238.899C246.633 238.899 247.016 238.81 247.314 238.633C247.613 238.446 247.832 238.166 247.972 237.793C248.122 237.42 248.196 236.948 248.196 236.379V236.127C248.196 235.558 248.122 235.086 247.972 234.713C247.832 234.34 247.613 234.064 247.314 233.887C247.016 233.7 246.633 233.607 246.166 233.607C245.709 233.607 245.331 233.7 245.032 233.887C244.734 234.064 244.51 234.34 244.36 234.713C244.22 235.086 244.15 235.558 244.15 236.127V236.379C244.15 236.948 244.22 237.42 244.36 237.793C244.51 238.166 244.734 238.446 245.032 238.633C245.331 238.81 245.709 238.899 246.166 238.899ZM250.913 239.935V232.571H252.117L252.243 233.621H252.341C252.518 233.35 252.728 233.126 252.971 232.949C253.213 232.772 253.479 232.636 253.769 232.543C254.067 232.45 254.394 232.403 254.749 232.403C255.215 232.403 255.626 232.487 255.981 232.655C256.335 232.814 256.611 233.075 256.807 233.439C257.012 233.803 257.115 234.293 257.115 234.909V239.935H255.659V235.133C255.659 234.853 255.621 234.62 255.547 234.433C255.481 234.246 255.383 234.097 255.253 233.985C255.122 233.873 254.968 233.794 254.791 233.747C254.613 233.7 254.417 233.677 254.203 233.677C253.867 233.677 253.559 233.761 253.279 233.929C253.008 234.088 252.789 234.312 252.621 234.601C252.453 234.89 252.369 235.231 252.369 235.623V239.935H250.913ZM258.658 239.935V232.571H259.862L259.988 233.621H260.086C260.263 233.35 260.473 233.126 260.716 232.949C260.959 232.772 261.225 232.636 261.514 232.543C261.813 232.45 262.139 232.403 262.494 232.403C262.961 232.403 263.371 232.487 263.726 232.655C264.081 232.814 264.356 233.075 264.552 233.439C264.757 233.803 264.86 234.293 264.86 234.909V239.935H263.404V235.133C263.404 234.853 263.367 234.62 263.292 234.433C263.227 234.246 263.129 234.097 262.998 233.985C262.867 233.873 262.713 233.794 262.536 233.747C262.359 233.7 262.163 233.677 261.948 233.677C261.612 233.677 261.304 233.761 261.024 233.929C260.753 234.088 260.534 234.312 260.366 234.601C260.198 234.89 260.114 235.231 260.114 235.623V239.935H258.658ZM269.455 240.103C268.699 240.103 268.065 239.968 267.551 239.697C267.047 239.417 266.665 238.992 266.403 238.423C266.142 237.854 266.011 237.13 266.011 236.253C266.011 235.366 266.142 234.643 266.403 234.083C266.665 233.514 267.052 233.094 267.565 232.823C268.079 232.543 268.718 232.403 269.483 232.403C270.183 232.403 270.767 232.538 271.233 232.809C271.709 233.07 272.069 233.472 272.311 234.013C272.554 234.554 272.675 235.236 272.675 236.057V236.617H267.509C267.528 237.14 267.607 237.578 267.747 237.933C267.887 238.278 268.097 238.535 268.377 238.703C268.667 238.862 269.031 238.941 269.469 238.941C269.74 238.941 269.983 238.908 270.197 238.843C270.412 238.768 270.594 238.666 270.743 238.535C270.893 238.395 271.009 238.232 271.093 238.045C271.177 237.849 271.219 237.63 271.219 237.387H272.647C272.647 237.826 272.573 238.213 272.423 238.549C272.274 238.885 272.055 239.17 271.765 239.403C271.485 239.627 271.149 239.8 270.757 239.921C270.365 240.042 269.931 240.103 269.455 240.103ZM267.537 235.553H271.149C271.149 235.189 271.107 234.886 271.023 234.643C270.949 234.391 270.837 234.186 270.687 234.027C270.538 233.868 270.361 233.756 270.155 233.691C269.95 233.616 269.717 233.579 269.455 233.579C269.063 233.579 268.727 233.649 268.447 233.789C268.177 233.929 267.967 234.148 267.817 234.447C267.668 234.736 267.575 235.105 267.537 235.553ZM276.801 240.103C276.064 240.103 275.448 239.968 274.953 239.697C274.459 239.417 274.085 238.992 273.833 238.423C273.591 237.854 273.469 237.13 273.469 236.253C273.469 235.376 273.595 234.657 273.847 234.097C274.099 233.528 274.473 233.103 274.967 232.823C275.471 232.543 276.087 232.403 276.815 232.403C277.319 232.403 277.758 232.468 278.131 232.599C278.505 232.72 278.822 232.907 279.083 233.159C279.345 233.402 279.536 233.705 279.657 234.069C279.788 234.433 279.853 234.848 279.853 235.315H278.383C278.383 234.923 278.327 234.601 278.215 234.349C278.103 234.097 277.931 233.91 277.697 233.789C277.464 233.658 277.161 233.593 276.787 233.593C276.395 233.593 276.064 233.686 275.793 233.873C275.523 234.05 275.317 234.326 275.177 234.699C275.037 235.063 274.967 235.544 274.967 236.141V236.379C274.967 236.948 275.033 237.424 275.163 237.807C275.303 238.18 275.509 238.46 275.779 238.647C276.059 238.824 276.414 238.913 276.843 238.913C277.217 238.913 277.515 238.848 277.739 238.717C277.973 238.577 278.145 238.381 278.257 238.129C278.379 237.868 278.439 237.555 278.439 237.191H279.853C279.853 237.63 279.788 238.026 279.657 238.381C279.536 238.736 279.345 239.044 279.083 239.305C278.831 239.557 278.514 239.753 278.131 239.893C277.749 240.033 277.305 240.103 276.801 240.103ZM282.88 240.103C282.46 240.103 282.129 240.024 281.886 239.865C281.653 239.697 281.485 239.487 281.382 239.235C281.289 238.974 281.242 238.698 281.242 238.409V233.775H280.318V232.571H281.27L281.536 230.513H282.698V232.571H284.028V233.775H282.698V238.241C282.698 238.456 282.745 238.619 282.838 238.731C282.932 238.843 283.086 238.899 283.3 238.899H284.028V239.879C283.935 239.916 283.818 239.949 283.678 239.977C283.548 240.014 283.412 240.042 283.272 240.061C283.132 240.089 283.002 240.103 282.88 240.103ZM288.084 240.103C287.328 240.103 286.693 239.968 286.18 239.697C285.676 239.417 285.293 238.992 285.032 238.423C284.771 237.854 284.64 237.13 284.64 236.253C284.64 235.366 284.771 234.643 285.032 234.083C285.293 233.514 285.681 233.094 286.194 232.823C286.707 232.543 287.347 232.403 288.112 232.403C288.812 232.403 289.395 232.538 289.862 232.809C290.338 233.07 290.697 233.472 290.94 234.013C291.183 234.554 291.304 235.236 291.304 236.057V236.617H286.138C286.157 237.14 286.236 237.578 286.376 237.933C286.516 238.278 286.726 238.535 287.006 238.703C287.295 238.862 287.659 238.941 288.098 238.941C288.369 238.941 288.611 238.908 288.826 238.843C289.041 238.768 289.223 238.666 289.372 238.535C289.521 238.395 289.638 238.232 289.722 238.045C289.806 237.849 289.848 237.63 289.848 237.387H291.276C291.276 237.826 291.201 238.213 291.052 238.549C290.903 238.885 290.683 239.17 290.394 239.403C290.114 239.627 289.778 239.8 289.386 239.921C288.994 240.042 288.56 240.103 288.084 240.103ZM286.166 235.553H289.778C289.778 235.189 289.736 234.886 289.652 234.643C289.577 234.391 289.465 234.186 289.316 234.027C289.167 233.868 288.989 233.756 288.784 233.691C288.579 233.616 288.345 233.579 288.084 233.579C287.692 233.579 287.356 233.649 287.076 233.789C286.805 233.929 286.595 234.148 286.446 234.447C286.297 234.736 286.203 235.105 286.166 235.553ZM295.038 240.103C294.441 240.103 293.923 239.968 293.484 239.697C293.045 239.426 292.705 239.006 292.462 238.437C292.229 237.868 292.112 237.13 292.112 236.225C292.112 235.338 292.233 234.615 292.476 234.055C292.719 233.495 293.055 233.08 293.484 232.809C293.913 232.538 294.408 232.403 294.968 232.403C295.295 232.403 295.598 232.44 295.878 232.515C296.158 232.59 296.405 232.706 296.62 232.865C296.844 233.024 297.031 233.224 297.18 233.467H297.278V229.813H298.734V239.935H297.544L297.404 238.927H297.306C297.063 239.319 296.741 239.613 296.34 239.809C295.948 240.005 295.514 240.103 295.038 240.103ZM295.444 238.843C295.873 238.843 296.219 238.75 296.48 238.563C296.751 238.367 296.951 238.087 297.082 237.723C297.213 237.35 297.278 236.897 297.278 236.365V236.169C297.278 235.721 297.236 235.338 297.152 235.021C297.068 234.704 296.947 234.447 296.788 234.251C296.629 234.046 296.438 233.896 296.214 233.803C295.99 233.71 295.738 233.663 295.458 233.663C295.029 233.663 294.679 233.752 294.408 233.929C294.137 234.097 293.937 234.363 293.806 234.727C293.685 235.091 293.624 235.562 293.624 236.141V236.393C293.624 236.972 293.689 237.443 293.82 237.807C293.951 238.162 294.147 238.423 294.408 238.591C294.679 238.759 295.024 238.843 295.444 238.843ZM305.457 240.103C304.859 240.103 304.341 239.968 303.903 239.697C303.464 239.426 303.123 239.006 302.881 238.437C302.647 237.868 302.531 237.13 302.531 236.225C302.531 235.338 302.652 234.615 302.895 234.055C303.137 233.495 303.473 233.08 303.903 232.809C304.332 232.538 304.827 232.403 305.387 232.403C305.713 232.403 306.017 232.44 306.297 232.515C306.577 232.59 306.824 232.706 307.039 232.865C307.263 233.024 307.449 233.224 307.599 233.467H307.697V229.813H309.153V239.935H307.963L307.823 238.927H307.725C307.482 239.319 307.16 239.613 306.759 239.809C306.367 240.005 305.933 240.103 305.457 240.103ZM305.863 238.843C306.292 238.843 306.637 238.75 306.899 238.563C307.169 238.367 307.37 238.087 307.501 237.723C307.631 237.35 307.697 236.897 307.697 236.365V236.169C307.697 235.721 307.655 235.338 307.571 235.021C307.487 234.704 307.365 234.447 307.207 234.251C307.048 234.046 306.857 233.896 306.633 233.803C306.409 233.71 306.157 233.663 305.877 233.663C305.447 233.663 305.097 233.752 304.827 233.929C304.556 234.097 304.355 234.363 304.225 234.727C304.103 235.091 304.043 235.562 304.043 236.141V236.393C304.043 236.972 304.108 237.443 304.239 237.807C304.369 238.162 304.565 238.423 304.827 238.591C305.097 238.759 305.443 238.843 305.863 238.843ZM313.802 240.103C313.046 240.103 312.411 239.968 311.898 239.697C311.394 239.417 311.011 238.992 310.75 238.423C310.489 237.854 310.358 237.13 310.358 236.253C310.358 235.366 310.489 234.643 310.75 234.083C311.011 233.514 311.399 233.094 311.912 232.823C312.425 232.543 313.065 232.403 313.83 232.403C314.53 232.403 315.113 232.538 315.58 232.809C316.056 233.07 316.415 233.472 316.658 234.013C316.901 234.554 317.022 235.236 317.022 236.057V236.617H311.856C311.875 237.14 311.954 237.578 312.094 237.933C312.234 238.278 312.444 238.535 312.724 238.703C313.013 238.862 313.377 238.941 313.816 238.941C314.087 238.941 314.329 238.908 314.544 238.843C314.759 238.768 314.941 238.666 315.09 238.535C315.239 238.395 315.356 238.232 315.44 238.045C315.524 237.849 315.566 237.63 315.566 237.387H316.994C316.994 237.826 316.919 238.213 316.77 238.549C316.621 238.885 316.401 239.17 316.112 239.403C315.832 239.627 315.496 239.8 315.104 239.921C314.712 240.042 314.278 240.103 313.802 240.103ZM311.884 235.553H315.496C315.496 235.189 315.454 234.886 315.37 234.643C315.295 234.391 315.183 234.186 315.034 234.027C314.885 233.868 314.707 233.756 314.502 233.691C314.297 233.616 314.063 233.579 313.802 233.579C313.41 233.579 313.074 233.649 312.794 233.789C312.523 233.929 312.313 234.148 312.164 234.447C312.015 234.736 311.921 235.105 311.884 235.553ZM320.14 239.935L317.41 232.571H318.936L320.21 236.085C320.266 236.253 320.336 236.472 320.42 236.743C320.504 237.004 320.588 237.275 320.672 237.555C320.756 237.835 320.831 238.087 320.896 238.311H320.966C321.022 238.096 321.087 237.854 321.162 237.583C321.246 237.303 321.33 237.028 321.414 236.757C321.498 236.486 321.573 236.262 321.638 236.085L322.898 232.571H324.382L321.638 239.935H320.14ZM325.161 231.297V229.813H326.617V231.297H325.161ZM325.161 239.935V232.571H326.617V239.935H325.161ZM331.143 240.103C330.405 240.103 329.789 239.968 329.295 239.697C328.8 239.417 328.427 238.992 328.175 238.423C327.932 237.854 327.811 237.13 327.811 236.253C327.811 235.376 327.937 234.657 328.189 234.097C328.441 233.528 328.814 233.103 329.309 232.823C329.813 232.543 330.429 232.403 331.157 232.403C331.661 232.403 332.099 232.468 332.473 232.599C332.846 232.72 333.163 232.907 333.425 233.159C333.686 233.402 333.877 233.705 333.999 234.069C334.129 234.433 334.195 234.848 334.195 235.315H332.725C332.725 234.923 332.669 234.601 332.557 234.349C332.445 234.097 332.272 233.91 332.039 233.789C331.805 233.658 331.502 233.593 331.129 233.593C330.737 233.593 330.405 233.686 330.135 233.873C329.864 234.05 329.659 234.326 329.519 234.699C329.379 235.063 329.309 235.544 329.309 236.141V236.379C329.309 236.948 329.374 237.424 329.505 237.807C329.645 238.18 329.85 238.46 330.121 238.647C330.401 238.824 330.755 238.913 331.185 238.913C331.558 238.913 331.857 238.848 332.081 238.717C332.314 238.577 332.487 238.381 332.599 238.129C332.72 237.868 332.781 237.555 332.781 237.191H334.195C334.195 237.63 334.129 238.026 333.999 238.381C333.877 238.736 333.686 239.044 333.425 239.305C333.173 239.557 332.855 239.753 332.473 239.893C332.09 240.033 331.647 240.103 331.143 240.103ZM338.44 240.103C337.684 240.103 337.049 239.968 336.536 239.697C336.032 239.417 335.649 238.992 335.388 238.423C335.126 237.854 334.996 237.13 334.996 236.253C334.996 235.366 335.126 234.643 335.388 234.083C335.649 233.514 336.036 233.094 336.55 232.823C337.063 232.543 337.702 232.403 338.468 232.403C339.168 232.403 339.751 232.538 340.218 232.809C340.694 233.07 341.053 233.472 341.296 234.013C341.538 234.554 341.66 235.236 341.66 236.057V236.617H336.494C336.512 237.14 336.592 237.578 336.732 237.933C336.872 238.278 337.082 238.535 337.362 238.703C337.651 238.862 338.015 238.941 338.454 238.941C338.724 238.941 338.967 238.908 339.182 238.843C339.396 238.768 339.578 238.666 339.728 238.535C339.877 238.395 339.994 238.232 340.078 238.045C340.162 237.849 340.204 237.63 340.204 237.387H341.632C341.632 237.826 341.557 238.213 341.408 238.549C341.258 238.885 341.039 239.17 340.75 239.403C340.47 239.627 340.134 239.8 339.742 239.921C339.35 240.042 338.916 240.103 338.44 240.103ZM336.522 235.553H340.134C340.134 235.189 340.092 234.886 340.008 234.643C339.933 234.391 339.821 234.186 339.672 234.027C339.522 233.868 339.345 233.756 339.14 233.691C338.934 233.616 338.701 233.579 338.44 233.579C338.048 233.579 337.712 233.649 337.432 233.789C337.161 233.929 336.951 234.148 336.802 234.447C336.652 234.736 336.559 235.105 336.522 235.553ZM345.576 240.103C345.062 240.103 344.61 240.047 344.218 239.935C343.826 239.823 343.499 239.669 343.238 239.473C342.976 239.277 342.776 239.044 342.636 238.773C342.505 238.493 342.44 238.185 342.44 237.849C342.44 237.802 342.44 237.76 342.44 237.723C342.449 237.686 342.454 237.653 342.454 237.625H343.896C343.896 237.653 343.896 237.681 343.896 237.709C343.896 237.728 343.896 237.751 343.896 237.779C343.896 238.068 343.975 238.302 344.134 238.479C344.292 238.647 344.502 238.768 344.764 238.843C345.034 238.908 345.328 238.941 345.646 238.941C345.926 238.941 346.182 238.908 346.416 238.843C346.658 238.768 346.854 238.661 347.004 238.521C347.162 238.381 347.242 238.204 347.242 237.989C347.242 237.709 347.144 237.494 346.948 237.345C346.752 237.196 346.495 237.079 346.178 236.995C345.86 236.902 345.529 236.804 345.184 236.701C344.876 236.617 344.568 236.528 344.26 236.435C343.961 236.332 343.69 236.202 343.448 236.043C343.205 235.884 343.009 235.684 342.86 235.441C342.71 235.198 342.636 234.895 342.636 234.531C342.636 234.186 342.71 233.882 342.86 233.621C343.009 233.36 343.214 233.14 343.476 232.963C343.746 232.786 344.064 232.65 344.428 232.557C344.801 232.464 345.207 232.417 345.646 232.417C346.103 232.417 346.509 232.468 346.864 232.571C347.218 232.664 347.517 232.8 347.76 232.977C348.012 233.154 348.203 233.369 348.334 233.621C348.464 233.864 348.53 234.125 348.53 234.405C348.53 234.461 348.525 234.522 348.516 234.587C348.516 234.643 348.516 234.68 348.516 234.699H347.088V234.573C347.088 234.386 347.036 234.218 346.934 234.069C346.831 233.92 346.668 233.798 346.444 233.705C346.229 233.612 345.94 233.565 345.576 233.565C345.333 233.565 345.118 233.588 344.932 233.635C344.745 233.672 344.591 233.728 344.47 233.803C344.348 233.878 344.255 233.966 344.19 234.069C344.134 234.172 344.106 234.288 344.106 234.419C344.106 234.634 344.18 234.802 344.33 234.923C344.488 235.035 344.694 235.133 344.946 235.217C345.198 235.292 345.468 235.376 345.758 235.469C346.094 235.562 346.434 235.66 346.78 235.763C347.125 235.856 347.442 235.978 347.732 236.127C348.03 236.276 348.268 236.482 348.446 236.743C348.632 237.004 348.726 237.354 348.726 237.793C348.726 238.194 348.646 238.544 348.488 238.843C348.329 239.142 348.105 239.384 347.816 239.571C347.536 239.748 347.204 239.879 346.822 239.963C346.439 240.056 346.024 240.103 345.576 240.103ZM27.31 260.935L25.098 253.571H26.61L27.688 257.603C27.744 257.799 27.7907 258.004 27.828 258.219C27.8747 258.434 27.9167 258.625 27.954 258.793C27.9913 258.961 28.0193 259.078 28.038 259.143H28.122C28.1593 258.975 28.2013 258.784 28.248 258.569C28.2947 258.354 28.3367 258.158 28.374 257.981C28.4113 257.794 28.4393 257.654 28.458 257.561L29.438 253.571H31.006L32.014 257.575C32.0513 257.724 32.0887 257.897 32.126 258.093C32.1727 258.28 32.2147 258.466 32.252 258.653C32.2987 258.84 32.3313 259.003 32.35 259.143H32.434C32.462 259.012 32.4947 258.858 32.532 258.681C32.5787 258.494 32.6253 258.308 32.672 258.121C32.7187 257.934 32.7607 257.762 32.798 257.603L33.862 253.571H35.248L33.05 260.935H31.538L30.642 257.267C30.6047 257.09 30.558 256.884 30.502 256.651C30.446 256.418 30.3947 256.184 30.348 255.951C30.3013 255.718 30.264 255.512 30.236 255.335H30.152C30.1333 255.438 30.1053 255.587 30.068 255.783C30.04 255.979 29.998 256.203 29.942 256.455C29.886 256.707 29.8207 256.978 29.746 257.267L28.822 260.935H27.31ZM36.0213 252.297V250.813H37.4773V252.297H36.0213ZM36.0213 260.935V253.571H37.4773V260.935H36.0213ZM40.9112 261.103C40.4912 261.103 40.1599 261.024 39.9172 260.865C39.6839 260.697 39.5159 260.487 39.4132 260.235C39.3199 259.974 39.2732 259.698 39.2732 259.409V254.775H38.3492V253.571H39.3012L39.5672 251.513H40.7292V253.571H42.0592V254.775H40.7292V259.241C40.7292 259.456 40.7759 259.619 40.8692 259.731C40.9626 259.843 41.1166 259.899 41.3312 259.899H42.0592V260.879C41.9659 260.916 41.8492 260.949 41.7092 260.977C41.5786 261.014 41.4432 261.042 41.3032 261.061C41.1632 261.089 41.0326 261.103 40.9112 261.103ZM43.0628 260.935V250.813H44.5188V254.453H44.6168C44.7942 254.229 44.9948 254.042 45.2188 253.893C45.4428 253.734 45.6948 253.613 45.9748 253.529C46.2548 253.445 46.5628 253.403 46.8988 253.403C47.3655 253.403 47.7762 253.487 48.1308 253.655C48.4855 253.814 48.7608 254.075 48.9568 254.439C49.1622 254.803 49.2648 255.293 49.2648 255.909V260.935H47.8088V256.133C47.8088 255.853 47.7715 255.62 47.6968 255.433C47.6315 255.246 47.5335 255.097 47.4028 254.985C47.2722 254.873 47.1182 254.794 46.9408 254.747C46.7635 254.7 46.5675 254.677 46.3528 254.677C46.0168 254.677 45.7088 254.756 45.4288 254.915C45.1582 255.074 44.9388 255.298 44.7708 255.587C44.6028 255.876 44.5188 256.222 44.5188 256.623V260.935H43.0628ZM55.2333 261.103C54.8133 261.103 54.482 261.024 54.2393 260.865C54.006 260.697 53.838 260.487 53.7353 260.235C53.642 259.974 53.5953 259.698 53.5953 259.409V254.775H52.6713V253.571H53.6233L53.8893 251.513H55.0513V253.571H56.3813V254.775H55.0513V259.241C55.0513 259.456 55.098 259.619 55.1913 259.731C55.2847 259.843 55.4387 259.899 55.6533 259.899H56.3813V260.879C56.288 260.916 56.1713 260.949 56.0313 260.977C55.9007 261.014 55.7653 261.042 55.6253 261.061C55.4853 261.089 55.3547 261.103 55.2333 261.103ZM57.385 260.935V250.813H58.841V254.453H58.939C59.1163 254.229 59.317 254.042 59.541 253.893C59.765 253.734 60.017 253.613 60.297 253.529C60.577 253.445 60.885 253.403 61.221 253.403C61.6876 253.403 62.0983 253.487 62.453 253.655C62.8076 253.814 63.083 254.075 63.279 254.439C63.4843 254.803 63.587 255.293 63.587 255.909V260.935H62.131V256.133C62.131 255.853 62.0936 255.62 62.019 255.433C61.9536 255.246 61.8556 255.097 61.725 254.985C61.5943 254.873 61.4403 254.794 61.263 254.747C61.0856 254.7 60.8896 254.677 60.675 254.677C60.339 254.677 60.031 254.756 59.751 254.915C59.4803 255.074 59.261 255.298 59.093 255.587C58.925 255.876 58.841 256.222 58.841 256.623V260.935H57.385ZM68.1823 261.103C67.4263 261.103 66.7917 260.968 66.2783 260.697C65.7743 260.417 65.3917 259.992 65.1303 259.423C64.869 258.854 64.7383 258.13 64.7383 257.253C64.7383 256.366 64.869 255.643 65.1303 255.083C65.3917 254.514 65.779 254.094 66.2923 253.823C66.8057 253.543 67.445 253.403 68.2103 253.403C68.9103 253.403 69.4937 253.538 69.9603 253.809C70.4363 254.07 70.7957 254.472 71.0383 255.013C71.281 255.554 71.4023 256.236 71.4023 257.057V257.617H66.2363C66.255 258.14 66.3343 258.578 66.4743 258.933C66.6143 259.278 66.8243 259.535 67.1043 259.703C67.3937 259.862 67.7577 259.941 68.1963 259.941C68.467 259.941 68.7097 259.908 68.9243 259.843C69.139 259.768 69.321 259.666 69.4703 259.535C69.6197 259.395 69.7363 259.232 69.8203 259.045C69.9043 258.849 69.9463 258.63 69.9463 258.387H71.3743C71.3743 258.826 71.2997 259.213 71.1503 259.549C71.001 259.885 70.7817 260.17 70.4923 260.403C70.2123 260.627 69.8763 260.8 69.4843 260.921C69.0923 261.042 68.6583 261.103 68.1823 261.103ZM66.2643 256.553H69.8763C69.8763 256.189 69.8343 255.886 69.7503 255.643C69.6757 255.391 69.5637 255.186 69.4143 255.027C69.265 254.868 69.0877 254.756 68.8823 254.691C68.677 254.616 68.4437 254.579 68.1823 254.579C67.7903 254.579 67.4543 254.649 67.1743 254.789C66.9037 254.929 66.6937 255.148 66.5443 255.447C66.395 255.736 66.3017 256.105 66.2643 256.553ZM77.0554 261.103C76.8221 261.103 76.5701 261.075 76.2994 261.019C76.0287 260.963 75.7721 260.86 75.5294 260.711C75.2961 260.562 75.1047 260.356 74.9554 260.095C74.8061 259.824 74.7314 259.474 74.7314 259.045C74.7314 258.541 74.8481 258.126 75.0814 257.799C75.3147 257.472 75.6414 257.216 76.0614 257.029C76.4814 256.842 76.9807 256.712 77.5594 256.637C78.1474 256.562 78.7867 256.525 79.4774 256.525V255.797C79.4774 255.554 79.4354 255.34 79.3514 255.153C79.2767 254.966 79.1321 254.822 78.9174 254.719C78.7121 254.616 78.4134 254.565 78.0214 254.565C77.6294 254.565 77.3214 254.616 77.0974 254.719C76.8827 254.812 76.7287 254.934 76.6354 255.083C76.5514 255.223 76.5094 255.377 76.5094 255.545V255.755H75.1094C75.1001 255.708 75.0954 255.662 75.0954 255.615C75.0954 255.568 75.0954 255.512 75.0954 255.447C75.0954 255.008 75.2167 254.64 75.4594 254.341C75.7114 254.033 76.0614 253.8 76.5094 253.641C76.9574 253.482 77.4754 253.403 78.0634 253.403C78.6981 253.403 79.2254 253.496 79.6454 253.683C80.0747 253.86 80.3967 254.117 80.6114 254.453C80.8261 254.789 80.9334 255.195 80.9334 255.671V259.409C80.9334 259.586 80.9754 259.712 81.0594 259.787C81.1527 259.862 81.2601 259.899 81.3814 259.899H81.8854V260.879C81.7734 260.926 81.6334 260.972 81.4654 261.019C81.2974 261.066 81.1014 261.089 80.8774 261.089C80.6254 261.089 80.4107 261.042 80.2334 260.949C80.0654 260.865 79.9254 260.744 79.8134 260.585C79.7107 260.417 79.6407 260.23 79.6034 260.025H79.5194C79.3514 260.24 79.1461 260.431 78.9034 260.599C78.6701 260.758 78.3994 260.879 78.0914 260.963C77.7834 261.056 77.4381 261.103 77.0554 261.103ZM77.4614 259.899C77.7507 259.899 78.0167 259.857 78.2594 259.773C78.5114 259.68 78.7261 259.554 78.9034 259.395C79.0807 259.227 79.2207 259.031 79.3234 258.807C79.4261 258.574 79.4774 258.322 79.4774 258.051V257.561C78.8334 257.561 78.2687 257.598 77.7834 257.673C77.2981 257.748 76.9201 257.888 76.6494 258.093C76.3787 258.289 76.2434 258.564 76.2434 258.919C76.2434 259.134 76.2901 259.316 76.3834 259.465C76.4767 259.605 76.6167 259.712 76.8034 259.787C76.9901 259.862 77.2094 259.899 77.4614 259.899ZM82.6107 263.357V253.571H83.8007L83.9267 254.579H84.0247C84.2767 254.187 84.5987 253.893 84.9907 253.697C85.3827 253.501 85.8213 253.403 86.3067 253.403C86.9133 253.403 87.4313 253.538 87.8607 253.809C88.2993 254.08 88.6353 254.5 88.8687 255.069C89.102 255.638 89.2187 256.376 89.2187 257.281C89.2187 258.158 89.0973 258.882 88.8547 259.451C88.6213 260.011 88.29 260.426 87.8607 260.697C87.4313 260.968 86.9367 261.103 86.3767 261.103C86.05 261.103 85.7467 261.066 85.4667 260.991C85.1867 260.916 84.9347 260.8 84.7107 260.641C84.496 260.482 84.3093 260.282 84.1507 260.039H84.0667V263.357H82.6107ZM85.8727 259.843C86.3113 259.843 86.666 259.759 86.9367 259.591C87.2073 259.414 87.4033 259.143 87.5247 258.779C87.6553 258.415 87.7207 257.953 87.7207 257.393V257.141C87.7207 256.553 87.6553 256.077 87.5247 255.713C87.394 255.349 87.1933 255.083 86.9227 254.915C86.6613 254.747 86.3207 254.663 85.9007 254.663C85.4713 254.663 85.1213 254.761 84.8507 254.957C84.58 255.144 84.3793 255.424 84.2487 255.797C84.1273 256.17 84.0667 256.623 84.0667 257.155V257.351C84.0667 257.79 84.1087 258.168 84.1927 258.485C84.2767 258.802 84.398 259.064 84.5567 259.269C84.7153 259.465 84.9067 259.61 85.1307 259.703C85.3547 259.796 85.602 259.843 85.8727 259.843ZM90.4381 263.357V253.571H91.6281L91.7541 254.579H91.8521C92.1041 254.187 92.4261 253.893 92.8181 253.697C93.2101 253.501 93.6487 253.403 94.1341 253.403C94.7407 253.403 95.2587 253.538 95.6881 253.809C96.1267 254.08 96.4627 254.5 96.6961 255.069C96.9294 255.638 97.0461 256.376 97.0461 257.281C97.0461 258.158 96.9247 258.882 96.6821 259.451C96.4487 260.011 96.1174 260.426 95.6881 260.697C95.2587 260.968 94.7641 261.103 94.2041 261.103C93.8774 261.103 93.5741 261.066 93.2941 260.991C93.0141 260.916 92.7621 260.8 92.5381 260.641C92.3234 260.482 92.1367 260.282 91.9781 260.039H91.8941V263.357H90.4381ZM93.7001 259.843C94.1387 259.843 94.4934 259.759 94.7641 259.591C95.0347 259.414 95.2307 259.143 95.3521 258.779C95.4827 258.415 95.5481 257.953 95.5481 257.393V257.141C95.5481 256.553 95.4827 256.077 95.3521 255.713C95.2214 255.349 95.0207 255.083 94.7501 254.915C94.4887 254.747 94.1481 254.663 93.7281 254.663C93.2987 254.663 92.9487 254.761 92.6781 254.957C92.4074 255.144 92.2067 255.424 92.0761 255.797C91.9547 256.17 91.8941 256.623 91.8941 257.155V257.351C91.8941 257.79 91.9361 258.168 92.0201 258.485C92.1041 258.802 92.2254 259.064 92.3841 259.269C92.5427 259.465 92.7341 259.61 92.9581 259.703C93.1821 259.796 93.4294 259.843 93.7001 259.843ZM98.5595 260.935V259.311H100.113V260.935H98.5595Z" fill="#7F7F90"/>
<g filter="url(#filter1_i_7_271)">
<rect x="25" y="42.6333" width="75.2851" height="75.2851" rx="37.6426" fill="url(#paint1_linear_7_271)" fill-opacity="0.05"/>
<g filter="url(#filter2_i_7_271)">
<circle cx="62.6439" cy="80.2757" r="25.0951" fill="url(#paint2_linear_7_271)" fill-opacity="0.05"/>
</g>
<path d="M60.5527 80.2759H61.5984" stroke="#EBDDF3" stroke-width="1.17633" stroke-linecap="round" stroke-linejoin="round"/>
<path d="M60.5527 77.6616H61.5984" stroke="#EBDDF3" stroke-width="1.17633" stroke-linecap="round" stroke-linejoin="round"/>
<path d="M60.5527 75.0479H61.5984" stroke="#EBDDF3" stroke-width="1.17633" stroke-linecap="round" stroke-linejoin="round"/>
<rect x="56.3672" y="87.5957" width="13.5932" height="3.13688" rx="1.56844" stroke="#EBDDF3" stroke-width="1.17633" stroke-linecap="round" stroke-linejoin="round"/>
<path d="M57.4141 71.1266C57.4141 69.8272 58.4674 68.7739 59.7667 68.7739H66.5633C67.8626 68.7739 68.916 69.8272 68.916 71.1266V86.0268C68.916 86.893 68.2137 87.5952 67.3475 87.5952H58.9825C58.1163 87.5952 57.4141 86.893 57.4141 86.0268V71.1266Z" stroke="#EBDDF3" stroke-width="1.17633" stroke-linecap="round" stroke-linejoin="round"/>
<rect x="24.6079" y="42.2412" width="76.0694" height="76.0694" rx="38.0347" stroke="url(#paint3_linear_7_271)" stroke-opacity="0.25" stroke-width="0.78422"/>
</g>
<g filter="url(#filter3_i_7_271)">
<circle cx="206.552" cy="58.9388" r="27.3309" fill="url(#paint4_linear_7_271)" fill-opacity="0.05"/>
<circle cx="206.552" cy="58.9388" r="27.3309" fill="black"/>
</g>
<path d="M202.195 51.0962H210.908C213.699 51.0962 214.397 51.7941 214.397 54.5781V59.5422C214.397 62.3341 213.699 63.0242 210.915 63.0242H202.195C199.411 63.032 198.713 62.3341 198.713 59.5501V54.5781C198.713 51.7941 199.411 51.0962 202.195 51.0962Z" stroke="#EBDDF3" stroke-width="1.17633" stroke-linecap="round" stroke-linejoin="round"/>
<path d="M206.554 63.0322V66.7808" stroke="#EBDDF3" stroke-width="1.17633" stroke-linecap="round" stroke-linejoin="round"/>
<path d="M198.713 59.7227H214.397" stroke="#EBDDF3" stroke-width="1.17633" stroke-linecap="round" stroke-linejoin="round"/>
<path d="M203.027 66.7808H210.085" stroke="#EBDDF3" stroke-width="1.17633" stroke-linecap="round" stroke-linejoin="round"/>
<path d="M179.382 59.2161C179.535 59.063 179.535 58.8147 179.382 58.6616L176.887 56.1662C176.734 56.0131 176.486 56.0131 176.332 56.1662C176.179 56.3193 176.179 56.5676 176.332 56.7207L178.551 58.9388L176.332 61.157C176.179 61.3101 176.179 61.5584 176.332 61.7115C176.486 61.8646 176.734 61.8646 176.887 61.7115L179.382 59.2161ZM101.859 80.5049L129.307 80.5049L129.307 79.7207L101.859 79.7207L101.859 80.5049ZM150.481 59.331L179.105 59.331L179.105 58.5467L150.481 58.5467L150.481 59.331ZM140.286 69.5258C140.286 63.8953 144.851 59.331 150.481 59.331L150.481 58.5467C144.417 58.5467 139.502 63.4622 139.502 69.5258L140.286 69.5258ZM129.307 80.5049C135.371 80.5049 140.286 75.5894 140.286 69.5258L139.502 69.5258C139.502 75.1563 134.938 79.7207 129.307 79.7207L129.307 80.5049Z" fill="#E6DDFE" fill-opacity="0.25"/>
<path d="M97.5469 80.276C97.5469 82.0541 98.9694 83.4766 100.747 83.4766C102.526 83.4766 103.948 82.0541 103.948 80.276C103.948 78.4979 102.526 77.0754 100.747 77.0754C98.9694 77.0754 97.5469 78.4979 97.5469 80.276Z" fill="#8CFF90"/>
<path d="M133.277 134.723C133.43 134.876 133.43 135.124 133.277 135.277L130.782 137.773C130.629 137.926 130.38 137.926 130.227 137.773C130.074 137.62 130.074 137.371 130.227 137.218L132.445 135L130.227 132.782C130.074 132.629 130.074 132.38 130.227 132.227C130.38 132.074 130.629 132.074 130.782 132.227L133.277 134.723ZM116.911 94.519V119.316H116.127V94.519H116.911ZM132.203 134.608H133V135.392H132.203V134.608ZM116.911 119.316C116.911 127.761 123.758 134.608 132.203 134.608V135.392C123.325 135.392 116.127 128.194 116.127 119.316H116.911ZM102 79.6079C110.235 79.6079 116.911 86.2838 116.911 94.519H116.127C116.127 86.7169 109.802 80.3921 102 80.3921V79.6079Z" fill="url(#paint5_linear_7_271)" fill-opacity="0.25"/>
<rect x="0.5" y="1.43506" width="386" height="298" rx="24.5" stroke="url(#paint6_linear_7_271)" stroke-opacity="0.25"/>
</g>
<defs>
<filter id="filter0_i_7_271" x="0" y="0.935059" width="387" height="309" filterUnits="userSpaceOnUse" color-interpolation-filters="sRGB">
<feFlood flood-opacity="0" result="BackgroundImageFix"/>
<feBlend mode="normal" in="SourceGraphic" in2="BackgroundImageFix" result="shape"/>
<feColorMatrix in="SourceAlpha" type="matrix" values="0 0 0 0 0 0 0 0 0 0 0 0 0 0 0 0 0 0 127 0" result="hardAlpha"/>
<feOffset dy="10"/>
<feGaussianBlur stdDeviation="12.5"/>
<feComposite in2="hardAlpha" operator="arithmetic" k2="-1" k3="1"/>
<feColorMatrix type="matrix" values="0 0 0 0 0.901961 0 0 0 0 0.866667 0 0 0 0 0.996078 0 0 0 0.1 0"/>
<feBlend mode="normal" in2="shape" result="effect1_innerShadow_7_271"/>
</filter>
<filter id="filter1_i_7_271" x="24.2158" y="41.8491" width="76.8535" height="84.6957" filterUnits="userSpaceOnUse" color-interpolation-filters="sRGB">
<feFlood flood-opacity="0" result="BackgroundImageFix"/>
<feBlend mode="normal" in="SourceGraphic" in2="BackgroundImageFix" result="shape"/>
<feColorMatrix in="SourceAlpha" type="matrix" values="0 0 0 0 0 0 0 0 0 0 0 0 0 0 0 0 0 0 127 0" result="hardAlpha"/>
<feOffset dy="7.8422"/>
<feGaussianBlur stdDeviation="9.80275"/>
<feComposite in2="hardAlpha" operator="arithmetic" k2="-1" k3="1"/>
<feColorMatrix type="matrix" values="0 0 0 0 0.901961 0 0 0 0 0.866667 0 0 0 0 0.996078 0 0 0 0.1 0"/>
<feBlend mode="normal" in2="shape" result="effect1_innerShadow_7_271"/>
</filter>
<filter id="filter2_i_7_271" x="37.5488" y="55.1807" width="50.1902" height="58.0321" filterUnits="userSpaceOnUse" color-interpolation-filters="sRGB">
<feFlood flood-opacity="0" result="BackgroundImageFix"/>
<feBlend mode="normal" in="SourceGraphic" in2="BackgroundImageFix" result="shape"/>
<feColorMatrix in="SourceAlpha" type="matrix" values="0 0 0 0 0 0 0 0 0 0 0 0 0 0 0 0 0 0 127 0" result="hardAlpha"/>
<feOffset dy="7.8422"/>
<feGaussianBlur stdDeviation="9.80275"/>
<feComposite in2="hardAlpha" operator="arithmetic" k2="-1" k3="1"/>
<feColorMatrix type="matrix" values="0 0 0 0 0.901961 0 0 0 0 0.866667 0 0 0 0 0.996078 0 0 0 0.1 0"/>
<feBlend mode="normal" in2="shape" result="effect1_innerShadow_7_271"/>
</filter>
<filter id="filter3_i_7_271" x="179.221" y="31.6079" width="54.6619" height="62.5038" filterUnits="userSpaceOnUse" color-interpolation-filters="sRGB">
<feFlood flood-opacity="0" result="BackgroundImageFix"/>
<feBlend mode="normal" in="SourceGraphic" in2="BackgroundImageFix" result="shape"/>
<feColorMatrix in="SourceAlpha" type="matrix" values="0 0 0 0 0 0 0 0 0 0 0 0 0 0 0 0 0 0 127 0" result="hardAlpha"/>
<feOffset dy="7.8422"/>
<feGaussianBlur stdDeviation="9.80275"/>
<feComposite in2="hardAlpha" operator="arithmetic" k2="-1" k3="1"/>
<feColorMatrix type="matrix" values="0 0 0 0 0.901961 0 0 0 0 0.866667 0 0 0 0 0.996078 0 0 0 0.1 0"/>
<feBlend mode="normal" in2="shape" result="effect1_innerShadow_7_271"/>
</filter>
<linearGradient id="paint0_linear_7_271" x1="193.5" y1="298.935" x2="193.5" y2="1.93506" gradientUnits="userSpaceOnUse">
<stop stop-color="white" stop-opacity="0"/>
<stop offset="1" stop-color="white"/>
</linearGradient>
<linearGradient id="paint1_linear_7_271" x1="62.6426" y1="117.918" x2="62.6426" y2="42.6333" gradientUnits="userSpaceOnUse">
<stop stop-color="white" stop-opacity="0"/>
<stop offset="1" stop-color="white"/>
</linearGradient>
<linearGradient id="paint2_linear_7_271" x1="62.6439" y1="105.371" x2="62.6439" y2="55.1807" gradientUnits="userSpaceOnUse">
<stop stop-color="white" stop-opacity="0"/>
<stop offset="1" stop-color="white"/>
</linearGradient>
<linearGradient id="paint3_linear_7_271" x1="62.6426" y1="38.9736" x2="62.6426" y2="117.918" gradientUnits="userSpaceOnUse">
<stop stop-color="#E6DDFE"/>
<stop offset="1" stop-color="#E6DDFE" stop-opacity="0"/>
</linearGradient>
<linearGradient id="paint4_linear_7_271" x1="206.552" y1="86.2697" x2="206.552" y2="31.6079" gradientUnits="userSpaceOnUse">
<stop stop-color="white" stop-opacity="0"/>
<stop offset="1" stop-color="white"/>
</linearGradient>
<linearGradient id="paint5_linear_7_271" x1="117.5" y1="80" x2="117.5" y2="135" gradientUnits="userSpaceOnUse">
<stop stop-color="#E6DDFE"/>
<stop offset="1" stop-color="#E6DDFE" stop-opacity="0"/>
</linearGradient>
<linearGradient id="paint6_linear_7_271" x1="193.5" y1="-12.5024" x2="193.5" y2="298.935" gradientUnits="userSpaceOnUse">
<stop stop-color="#E6DDFE"/>
<stop offset="1" stop-color="#E6DDFE" stop-opacity="0"/>
</linearGradient>
</defs>
</svg>
