<svg width="387" height="389" viewBox="0 0 387 389" fill="none" xmlns="http://www.w3.org/2000/svg">
<g filter="url(#filter0_i_7_309)">
<rect x="1" y="1.93506" width="385" height="386" rx="24" fill="url(#paint0_linear_7_309)" fill-opacity="0.05"/>
<path d="M34.072 293.223C32.392 293.223 30.96 292.927 29.776 292.335C28.608 291.727 27.712 290.791 27.088 289.527C26.464 288.263 26.152 286.655 26.152 284.703C26.152 281.823 26.848 279.687 28.24 278.295C29.648 276.887 31.6 276.183 34.096 276.183C35.472 276.183 36.704 276.415 37.792 276.879C38.896 277.343 39.76 278.039 40.384 278.967C41.024 279.879 41.344 281.047 41.344 282.471H38.608C38.608 281.591 38.424 280.855 38.056 280.263C37.688 279.671 37.16 279.223 36.472 278.919C35.8 278.615 35.016 278.463 34.12 278.463C33 278.463 32.048 278.687 31.264 279.135C30.496 279.567 29.912 280.223 29.512 281.103C29.128 281.983 28.936 283.103 28.936 284.463V284.991C28.936 286.351 29.128 287.471 29.512 288.351C29.912 289.231 30.496 289.887 31.264 290.319C32.032 290.735 32.984 290.943 34.12 290.943C35.048 290.943 35.856 290.799 36.544 290.511C37.232 290.207 37.76 289.759 38.128 289.167C38.512 288.575 38.704 287.839 38.704 286.959H41.344C41.344 288.383 41.024 289.559 40.384 290.487C39.76 291.415 38.896 292.103 37.792 292.551C36.704 292.999 35.464 293.223 34.072 293.223ZM43.5186 292.935V275.583H46.0146V281.823H46.1826C46.4866 281.439 46.8306 281.119 47.2146 280.863C47.5986 280.591 48.0306 280.383 48.5106 280.239C48.9906 280.095 49.5186 280.023 50.0946 280.023C50.8946 280.023 51.5986 280.167 52.2066 280.455C52.8146 280.727 53.2866 281.175 53.6226 281.799C53.9746 282.423 54.1506 283.263 54.1506 284.319V292.935H51.6546V284.703C51.6546 284.223 51.5906 283.823 51.4626 283.503C51.3506 283.183 51.1826 282.927 50.9586 282.735C50.7346 282.543 50.4706 282.407 50.1666 282.327C49.8626 282.247 49.5266 282.207 49.1586 282.207C48.5826 282.207 48.0546 282.343 47.5746 282.615C47.1106 282.887 46.7346 283.271 46.4466 283.767C46.1586 284.263 46.0146 284.855 46.0146 285.543V292.935H43.5186ZM62.0284 293.223C60.7324 293.223 59.6444 292.991 58.7644 292.527C57.9004 292.047 57.2444 291.319 56.7964 290.343C56.3484 289.367 56.1244 288.127 56.1244 286.623C56.1244 285.103 56.3484 283.863 56.7964 282.903C57.2444 281.927 57.9084 281.207 58.7884 280.743C59.6684 280.263 60.7644 280.023 62.0764 280.023C63.2764 280.023 64.2764 280.255 65.0764 280.719C65.8924 281.167 66.5084 281.855 66.9244 282.783C67.3404 283.711 67.5484 284.879 67.5484 286.287V287.247H58.6924C58.7244 288.143 58.8604 288.895 59.1004 289.503C59.3404 290.095 59.7004 290.535 60.1804 290.823C60.6764 291.095 61.3004 291.231 62.0524 291.231C62.5164 291.231 62.9324 291.175 63.3004 291.063C63.6684 290.935 63.9804 290.759 64.2364 290.535C64.4924 290.295 64.6924 290.015 64.8364 289.695C64.9804 289.359 65.0524 288.983 65.0524 288.567H67.5004C67.5004 289.319 67.3724 289.983 67.1164 290.559C66.8604 291.135 66.4844 291.623 65.9884 292.023C65.5084 292.407 64.9324 292.703 64.2604 292.911C63.5884 293.119 62.8444 293.223 62.0284 293.223ZM58.7404 285.423H64.9324C64.9324 284.799 64.8604 284.279 64.7164 283.863C64.5884 283.431 64.3964 283.079 64.1404 282.807C63.8844 282.535 63.5804 282.343 63.2284 282.231C62.8764 282.103 62.4764 282.039 62.0284 282.039C61.3564 282.039 60.7804 282.159 60.3004 282.399C59.8364 282.639 59.4764 283.015 59.2204 283.527C58.9644 284.023 58.8044 284.655 58.7404 285.423ZM74.6215 293.223C73.3575 293.223 72.3015 292.991 71.4535 292.527C70.6055 292.047 69.9655 291.319 69.5335 290.343C69.1175 289.367 68.9095 288.127 68.9095 286.623C68.9095 285.119 69.1255 283.887 69.5575 282.927C69.9895 281.951 70.6295 281.223 71.4775 280.743C72.3415 280.263 73.3975 280.023 74.6455 280.023C75.5095 280.023 76.2615 280.135 76.9015 280.359C77.5415 280.567 78.0855 280.887 78.5335 281.319C78.9815 281.735 79.3095 282.255 79.5175 282.879C79.7415 283.503 79.8535 284.215 79.8535 285.015H77.3335C77.3335 284.343 77.2375 283.791 77.0455 283.359C76.8535 282.927 76.5575 282.607 76.1575 282.399C75.7575 282.175 75.2375 282.063 74.5975 282.063C73.9255 282.063 73.3575 282.223 72.8935 282.543C72.4295 282.847 72.0775 283.319 71.8375 283.959C71.5975 284.583 71.4775 285.407 71.4775 286.431V286.839C71.4775 287.815 71.5895 288.631 71.8135 289.287C72.0535 289.927 72.4055 290.407 72.8695 290.727C73.3495 291.031 73.9575 291.183 74.6935 291.183C75.3335 291.183 75.8455 291.071 76.2295 290.847C76.6295 290.607 76.9255 290.271 77.1175 289.839C77.3255 289.391 77.4295 288.855 77.4295 288.231H79.8535C79.8535 288.983 79.7415 289.663 79.5175 290.271C79.3095 290.879 78.9815 291.407 78.5335 291.855C78.1015 292.287 77.5575 292.623 76.9015 292.863C76.2455 293.103 75.4855 293.223 74.6215 293.223ZM81.8989 292.935V275.583H84.3949V286.071L89.3629 280.311H92.3149L88.0429 285.207L92.5549 292.935H89.6749L86.4349 287.031L84.3949 289.047V292.935H81.8989ZM100.911 293.223C100.191 293.223 99.6231 293.087 99.2071 292.815C98.8071 292.527 98.5191 292.167 98.3431 291.735C98.1831 291.287 98.1031 290.815 98.1031 290.319V282.375H96.5191V280.311H98.1511L98.6071 276.783H100.599V280.311H102.879V282.375H100.599V290.031C100.599 290.399 100.679 290.679 100.839 290.871C100.999 291.063 101.263 291.159 101.631 291.159H102.879V292.839C102.719 292.903 102.519 292.959 102.279 293.007C102.055 293.071 101.823 293.119 101.583 293.151C101.343 293.199 101.119 293.223 100.911 293.223ZM104.6 292.935V275.583H107.096V281.823H107.264C107.568 281.439 107.912 281.119 108.296 280.863C108.68 280.591 109.112 280.383 109.592 280.239C110.072 280.095 110.6 280.023 111.176 280.023C111.976 280.023 112.68 280.167 113.288 280.455C113.896 280.727 114.368 281.175 114.704 281.799C115.056 282.423 115.232 283.263 115.232 284.319V292.935H112.736V284.703C112.736 284.223 112.672 283.823 112.544 283.503C112.432 283.183 112.264 282.927 112.04 282.735C111.816 282.543 111.552 282.407 111.248 282.327C110.944 282.247 110.608 282.207 110.24 282.207C109.664 282.207 109.136 282.343 108.656 282.615C108.192 282.887 107.816 283.271 107.528 283.767C107.24 284.263 107.096 284.855 107.096 285.543V292.935H104.6ZM123.109 293.223C121.813 293.223 120.725 292.991 119.845 292.527C118.981 292.047 118.325 291.319 117.877 290.343C117.429 289.367 117.205 288.127 117.205 286.623C117.205 285.103 117.429 283.863 117.877 282.903C118.325 281.927 118.989 281.207 119.869 280.743C120.749 280.263 121.845 280.023 123.157 280.023C124.357 280.023 125.357 280.255 126.157 280.719C126.973 281.167 127.589 281.855 128.005 282.783C128.421 283.711 128.629 284.879 128.629 286.287V287.247H119.773C119.805 288.143 119.941 288.895 120.181 289.503C120.421 290.095 120.781 290.535 121.261 290.823C121.757 291.095 122.381 291.231 123.133 291.231C123.597 291.231 124.013 291.175 124.381 291.063C124.749 290.935 125.061 290.759 125.317 290.535C125.573 290.295 125.773 290.015 125.917 289.695C126.061 289.359 126.133 288.983 126.133 288.567H128.581C128.581 289.319 128.453 289.983 128.197 290.559C127.941 291.135 127.565 291.623 127.069 292.023C126.589 292.407 126.013 292.703 125.341 292.911C124.669 293.119 123.925 293.223 123.109 293.223ZM119.821 285.423H126.013C126.013 284.799 125.941 284.279 125.797 283.863C125.669 283.431 125.477 283.079 125.221 282.807C124.965 282.535 124.661 282.343 124.309 282.231C123.957 282.103 123.557 282.039 123.109 282.039C122.437 282.039 121.861 282.159 121.381 282.399C120.917 282.639 120.557 283.015 120.301 283.527C120.045 284.023 119.885 284.655 119.821 285.423ZM135.128 292.935V275.583H137.624V292.935H135.128ZM143.559 293.223C143.159 293.223 142.727 293.175 142.263 293.079C141.799 292.983 141.359 292.807 140.943 292.551C140.543 292.295 140.215 291.943 139.959 291.495C139.703 291.031 139.575 290.431 139.575 289.695C139.575 288.831 139.775 288.119 140.175 287.559C140.575 286.999 141.135 286.559 141.855 286.239C142.575 285.919 143.431 285.695 144.423 285.567C145.431 285.439 146.527 285.375 147.711 285.375V284.127C147.711 283.711 147.639 283.343 147.495 283.023C147.367 282.703 147.119 282.455 146.751 282.279C146.399 282.103 145.887 282.015 145.215 282.015C144.543 282.015 144.015 282.103 143.631 282.279C143.263 282.439 142.999 282.647 142.839 282.903C142.695 283.143 142.623 283.407 142.623 283.695V284.055H140.223C140.207 283.975 140.199 283.895 140.199 283.815C140.199 283.735 140.199 283.639 140.199 283.527C140.199 282.775 140.407 282.143 140.823 281.631C141.255 281.103 141.855 280.703 142.623 280.431C143.391 280.159 144.279 280.023 145.287 280.023C146.375 280.023 147.279 280.183 147.999 280.503C148.735 280.807 149.287 281.247 149.655 281.823C150.023 282.399 150.207 283.095 150.207 283.911V290.319C150.207 290.623 150.279 290.839 150.423 290.967C150.583 291.095 150.767 291.159 150.975 291.159H151.839V292.839C151.647 292.919 151.407 292.999 151.119 293.079C150.831 293.159 150.495 293.199 150.111 293.199C149.679 293.199 149.311 293.119 149.007 292.959C148.719 292.815 148.479 292.607 148.287 292.335C148.111 292.047 147.991 291.727 147.927 291.375H147.783C147.495 291.743 147.143 292.071 146.727 292.359C146.327 292.631 145.863 292.839 145.335 292.983C144.807 293.143 144.215 293.223 143.559 293.223ZM144.255 291.159C144.751 291.159 145.207 291.087 145.623 290.943C146.055 290.783 146.423 290.567 146.727 290.295C147.031 290.007 147.271 289.671 147.447 289.287C147.623 288.887 147.711 288.455 147.711 287.991V287.151C146.607 287.151 145.639 287.215 144.807 287.343C143.975 287.471 143.327 287.711 142.863 288.063C142.399 288.399 142.167 288.871 142.167 289.479C142.167 289.847 142.247 290.159 142.407 290.415C142.567 290.655 142.807 290.839 143.127 290.967C143.447 291.095 143.823 291.159 144.255 291.159ZM156.226 293.223C155.506 293.223 154.938 293.087 154.522 292.815C154.122 292.527 153.834 292.167 153.658 291.735C153.498 291.287 153.418 290.815 153.418 290.319V282.375H151.834V280.311H153.466L153.922 276.783H155.914V280.311H158.194V282.375H155.914V290.031C155.914 290.399 155.994 290.679 156.154 290.871C156.314 291.063 156.578 291.159 156.946 291.159H158.194V292.839C158.034 292.903 157.834 292.959 157.594 293.007C157.37 293.071 157.138 293.119 156.898 293.151C156.658 293.199 156.434 293.223 156.226 293.223ZM165.147 293.223C163.851 293.223 162.763 292.991 161.883 292.527C161.019 292.047 160.363 291.319 159.915 290.343C159.467 289.367 159.243 288.127 159.243 286.623C159.243 285.103 159.467 283.863 159.915 282.903C160.363 281.927 161.027 281.207 161.907 280.743C162.787 280.263 163.883 280.023 165.195 280.023C166.395 280.023 167.395 280.255 168.195 280.719C169.011 281.167 169.627 281.855 170.043 282.783C170.459 283.711 170.667 284.879 170.667 286.287V287.247H161.811C161.843 288.143 161.979 288.895 162.219 289.503C162.459 290.095 162.819 290.535 163.299 290.823C163.795 291.095 164.419 291.231 165.171 291.231C165.635 291.231 166.051 291.175 166.419 291.063C166.787 290.935 167.099 290.759 167.355 290.535C167.611 290.295 167.811 290.015 167.955 289.695C168.099 289.359 168.171 288.983 168.171 288.567H170.619C170.619 289.319 170.491 289.983 170.235 290.559C169.979 291.135 169.603 291.623 169.107 292.023C168.627 292.407 168.051 292.703 167.379 292.911C166.707 293.119 165.963 293.223 165.147 293.223ZM161.859 285.423H168.051C168.051 284.799 167.979 284.279 167.835 283.863C167.707 283.431 167.515 283.079 167.259 282.807C167.003 282.535 166.699 282.343 166.347 282.231C165.995 282.103 165.595 282.039 165.147 282.039C164.475 282.039 163.899 282.159 163.419 282.399C162.955 282.639 162.595 283.015 162.339 283.527C162.083 284.023 161.923 284.655 161.859 285.423ZM172.724 292.935V280.311H174.788L175.004 282.111H175.172C175.476 281.647 175.836 281.263 176.252 280.959C176.668 280.655 177.124 280.423 177.62 280.263C178.132 280.103 178.692 280.023 179.3 280.023C180.1 280.023 180.804 280.167 181.412 280.455C182.02 280.727 182.492 281.175 182.828 281.799C183.18 282.423 183.356 283.263 183.356 284.319V292.935H180.86V284.703C180.86 284.223 180.796 283.823 180.668 283.503C180.556 283.183 180.388 282.927 180.164 282.735C179.94 282.543 179.676 282.407 179.372 282.327C179.068 282.247 178.732 282.207 178.364 282.207C177.788 282.207 177.26 282.351 176.78 282.639C176.316 282.911 175.94 283.295 175.652 283.791C175.364 284.287 175.22 284.871 175.22 285.543V292.935H172.724ZM191.018 293.223C189.754 293.223 188.698 292.991 187.85 292.527C187.002 292.047 186.362 291.319 185.93 290.343C185.514 289.367 185.306 288.127 185.306 286.623C185.306 285.119 185.522 283.887 185.954 282.927C186.386 281.951 187.026 281.223 187.874 280.743C188.738 280.263 189.794 280.023 191.042 280.023C191.906 280.023 192.658 280.135 193.298 280.359C193.938 280.567 194.482 280.887 194.93 281.319C195.378 281.735 195.706 282.255 195.914 282.879C196.138 283.503 196.25 284.215 196.25 285.015H193.73C193.73 284.343 193.634 283.791 193.442 283.359C193.25 282.927 192.954 282.607 192.554 282.399C192.154 282.175 191.634 282.063 190.994 282.063C190.322 282.063 189.754 282.223 189.29 282.543C188.826 282.847 188.474 283.319 188.234 283.959C187.994 284.583 187.874 285.407 187.874 286.431V286.839C187.874 287.815 187.986 288.631 188.21 289.287C188.45 289.927 188.802 290.407 189.266 290.727C189.746 291.031 190.354 291.183 191.09 291.183C191.73 291.183 192.242 291.071 192.626 290.847C193.026 290.607 193.322 290.271 193.514 289.839C193.722 289.391 193.826 288.855 193.826 288.231H196.25C196.25 288.983 196.138 289.663 195.914 290.271C195.706 290.879 195.378 291.407 194.93 291.855C194.498 292.287 193.954 292.623 193.298 292.863C192.642 293.103 191.882 293.223 191.018 293.223ZM199.663 297.303C199.183 297.303 198.783 297.263 198.463 297.183C198.143 297.119 197.943 297.079 197.863 297.063V295.263H199.063C199.415 295.263 199.767 295.183 200.119 295.023C200.487 294.863 200.815 294.607 201.103 294.255C201.391 293.903 201.631 293.463 201.823 292.935L196.903 280.311H199.519L201.967 286.599C202.079 286.887 202.199 287.247 202.327 287.679C202.471 288.111 202.607 288.551 202.735 288.999C202.879 289.447 202.999 289.847 203.095 290.199H203.215C203.295 289.959 203.375 289.687 203.455 289.383C203.551 289.063 203.647 288.735 203.743 288.399C203.839 288.063 203.935 287.743 204.031 287.439C204.127 287.119 204.207 286.847 204.271 286.623L206.311 280.311H208.855L204.583 292.455C204.343 293.127 204.079 293.759 203.791 294.351C203.503 294.943 203.167 295.455 202.783 295.887C202.415 296.335 201.975 296.679 201.463 296.919C200.951 297.175 200.351 297.303 199.663 297.303Z" fill="white"/>
<path d="M28.486 328.935V320.675H25.308V319.331H33.26V320.675H30.054V328.935H28.486ZM36.1612 329.103C35.4052 329.103 34.7705 328.968 34.2572 328.697C33.7532 328.417 33.3705 327.992 33.1092 327.423C32.8478 326.854 32.7172 326.13 32.7172 325.253C32.7172 324.366 32.8478 323.643 33.1092 323.083C33.3705 322.514 33.7578 322.094 34.2712 321.823C34.7845 321.543 35.4238 321.403 36.1892 321.403C36.8892 321.403 37.4725 321.538 37.9392 321.809C38.4152 322.07 38.7745 322.472 39.0172 323.013C39.2598 323.554 39.3812 324.236 39.3812 325.057V325.617H34.2152C34.2338 326.14 34.3132 326.578 34.4532 326.933C34.5932 327.278 34.8032 327.535 35.0832 327.703C35.3725 327.862 35.7365 327.941 36.1752 327.941C36.4458 327.941 36.6885 327.908 36.9032 327.843C37.1178 327.768 37.2998 327.666 37.4492 327.535C37.5985 327.395 37.7152 327.232 37.7992 327.045C37.8832 326.849 37.9252 326.63 37.9252 326.387H39.3532C39.3532 326.826 39.2785 327.213 39.1292 327.549C38.9798 327.885 38.7605 328.17 38.4712 328.403C38.1912 328.627 37.8552 328.8 37.4632 328.921C37.0712 329.042 36.6372 329.103 36.1612 329.103ZM34.2432 324.553H37.8552C37.8552 324.189 37.8132 323.886 37.7292 323.643C37.6545 323.391 37.5425 323.186 37.3932 323.027C37.2438 322.868 37.0665 322.756 36.8612 322.691C36.6558 322.616 36.4225 322.579 36.1612 322.579C35.7692 322.579 35.4332 322.649 35.1532 322.789C34.8825 322.929 34.6725 323.148 34.5232 323.447C34.3738 323.736 34.2805 324.105 34.2432 324.553ZM43.2971 329.103C42.7838 329.103 42.3311 329.047 41.9391 328.935C41.5471 328.823 41.2205 328.669 40.9591 328.473C40.6978 328.277 40.4971 328.044 40.3571 327.773C40.2265 327.493 40.1611 327.185 40.1611 326.849C40.1611 326.802 40.1611 326.76 40.1611 326.723C40.1705 326.686 40.1751 326.653 40.1751 326.625H41.6171C41.6171 326.653 41.6171 326.681 41.6171 326.709C41.6171 326.728 41.6171 326.751 41.6171 326.779C41.6171 327.068 41.6965 327.302 41.8551 327.479C42.0138 327.647 42.2238 327.768 42.4851 327.843C42.7558 327.908 43.0498 327.941 43.3671 327.941C43.6471 327.941 43.9038 327.908 44.1371 327.843C44.3798 327.768 44.5758 327.661 44.7251 327.521C44.8838 327.381 44.9631 327.204 44.9631 326.989C44.9631 326.709 44.8651 326.494 44.6691 326.345C44.4731 326.196 44.2165 326.079 43.8991 325.995C43.5818 325.902 43.2505 325.804 42.9051 325.701C42.5971 325.617 42.2891 325.528 41.9811 325.435C41.6825 325.332 41.4118 325.202 41.1691 325.043C40.9265 324.884 40.7305 324.684 40.5811 324.441C40.4318 324.198 40.3571 323.895 40.3571 323.531C40.3571 323.186 40.4318 322.882 40.5811 322.621C40.7305 322.36 40.9358 322.14 41.1971 321.963C41.4678 321.786 41.7851 321.65 42.1491 321.557C42.5225 321.464 42.9285 321.417 43.3671 321.417C43.8245 321.417 44.2305 321.468 44.5851 321.571C44.9398 321.664 45.2385 321.8 45.4811 321.977C45.7331 322.154 45.9245 322.369 46.0551 322.621C46.1858 322.864 46.2511 323.125 46.2511 323.405C46.2511 323.461 46.2465 323.522 46.2371 323.587C46.2371 323.643 46.2371 323.68 46.2371 323.699H44.8091V323.573C44.8091 323.386 44.7578 323.218 44.6551 323.069C44.5525 322.92 44.3891 322.798 44.1651 322.705C43.9505 322.612 43.6611 322.565 43.2971 322.565C43.0545 322.565 42.8398 322.588 42.6531 322.635C42.4665 322.672 42.3125 322.728 42.1911 322.803C42.0698 322.878 41.9765 322.966 41.9111 323.069C41.8551 323.172 41.8271 323.288 41.8271 323.419C41.8271 323.634 41.9018 323.802 42.0511 323.923C42.2098 324.035 42.4151 324.133 42.6671 324.217C42.9191 324.292 43.1898 324.376 43.4791 324.469C43.8151 324.562 44.1558 324.66 44.5011 324.763C44.8465 324.856 45.1638 324.978 45.4531 325.127C45.7518 325.276 45.9898 325.482 46.1671 325.743C46.3538 326.004 46.4471 326.354 46.4471 326.793C46.4471 327.194 46.3678 327.544 46.2091 327.843C46.0505 328.142 45.8265 328.384 45.5371 328.571C45.2571 328.748 44.9258 328.879 44.5431 328.963C44.1605 329.056 43.7451 329.103 43.2971 329.103ZM49.4769 329.103C49.0569 329.103 48.7256 329.024 48.4829 328.865C48.2496 328.697 48.0816 328.487 47.9789 328.235C47.8856 327.974 47.8389 327.698 47.8389 327.409V322.775H46.9149V321.571H47.8669L48.1329 319.513H49.2949V321.571H50.6249V322.775H49.2949V327.241C49.2949 327.456 49.3416 327.619 49.4349 327.731C49.5283 327.843 49.6823 327.899 49.8969 327.899H50.6249V328.879C50.5316 328.916 50.4149 328.949 50.2749 328.977C50.1443 329.014 50.0089 329.042 49.8689 329.061C49.7289 329.089 49.5983 329.103 49.4769 329.103ZM56.0816 329.103C55.8483 329.103 55.5963 329.075 55.3256 329.019C55.055 328.963 54.7983 328.86 54.5556 328.711C54.3223 328.562 54.131 328.356 53.9816 328.095C53.8323 327.824 53.7576 327.474 53.7576 327.045C53.7576 326.541 53.8743 326.126 54.1076 325.799C54.341 325.472 54.6676 325.216 55.0876 325.029C55.5076 324.842 56.007 324.712 56.5856 324.637C57.1736 324.562 57.813 324.525 58.5036 324.525V323.797C58.5036 323.554 58.4616 323.34 58.3776 323.153C58.303 322.966 58.1583 322.822 57.9436 322.719C57.7383 322.616 57.4396 322.565 57.0476 322.565C56.6556 322.565 56.3476 322.616 56.1236 322.719C55.909 322.812 55.755 322.934 55.6616 323.083C55.5776 323.223 55.5356 323.377 55.5356 323.545V323.755H54.1356C54.1263 323.708 54.1216 323.662 54.1216 323.615C54.1216 323.568 54.1216 323.512 54.1216 323.447C54.1216 323.008 54.243 322.64 54.4856 322.341C54.7376 322.033 55.0876 321.8 55.5356 321.641C55.9836 321.482 56.5016 321.403 57.0896 321.403C57.7243 321.403 58.2516 321.496 58.6716 321.683C59.101 321.86 59.423 322.117 59.6376 322.453C59.8523 322.789 59.9596 323.195 59.9596 323.671V327.409C59.9596 327.586 60.0016 327.712 60.0856 327.787C60.179 327.862 60.2863 327.899 60.4076 327.899H60.9116V328.879C60.7996 328.926 60.6596 328.972 60.4916 329.019C60.3236 329.066 60.1276 329.089 59.9036 329.089C59.6516 329.089 59.437 329.042 59.2596 328.949C59.0916 328.865 58.9516 328.744 58.8396 328.585C58.737 328.417 58.667 328.23 58.6296 328.025H58.5456C58.3776 328.24 58.1723 328.431 57.9296 328.599C57.6963 328.758 57.4256 328.879 57.1176 328.963C56.8096 329.056 56.4643 329.103 56.0816 329.103ZM56.4876 327.899C56.777 327.899 57.043 327.857 57.2856 327.773C57.5376 327.68 57.7523 327.554 57.9296 327.395C58.107 327.227 58.247 327.031 58.3496 326.807C58.4523 326.574 58.5036 326.322 58.5036 326.051V325.561C57.8596 325.561 57.295 325.598 56.8096 325.673C56.3243 325.748 55.9463 325.888 55.6756 326.093C55.405 326.289 55.2696 326.564 55.2696 326.919C55.2696 327.134 55.3163 327.316 55.4096 327.465C55.503 327.605 55.643 327.712 55.8296 327.787C56.0163 327.862 56.2356 327.899 56.4876 327.899ZM61.6369 328.935V321.571H62.8409L62.9669 322.621H63.0649C63.2422 322.35 63.4522 322.126 63.6949 321.949C63.9376 321.772 64.2036 321.636 64.4929 321.543C64.7916 321.45 65.1182 321.403 65.4729 321.403C65.9396 321.403 66.3502 321.487 66.7049 321.655C67.0596 321.814 67.3349 322.075 67.5309 322.439C67.7362 322.803 67.8389 323.293 67.8389 323.909V328.935H66.3829V324.133C66.3829 323.853 66.3456 323.62 66.2709 323.433C66.2056 323.246 66.1076 323.097 65.9769 322.985C65.8462 322.873 65.6922 322.794 65.5149 322.747C65.3376 322.7 65.1416 322.677 64.9269 322.677C64.5909 322.677 64.2829 322.761 64.0029 322.929C63.7322 323.088 63.5129 323.312 63.3449 323.601C63.1769 323.89 63.0929 324.231 63.0929 324.623V328.935H61.6369ZM71.9163 329.103C71.319 329.103 70.801 328.968 70.3623 328.697C69.9236 328.426 69.583 328.006 69.3403 327.437C69.107 326.868 68.9903 326.13 68.9903 325.225C68.9903 324.338 69.1116 323.615 69.3543 323.055C69.597 322.495 69.933 322.08 70.3623 321.809C70.7916 321.538 71.2863 321.403 71.8463 321.403C72.173 321.403 72.4763 321.44 72.7563 321.515C73.0363 321.59 73.2836 321.706 73.4983 321.865C73.7223 322.024 73.909 322.224 74.0583 322.467H74.1563V318.813H75.6123V328.935H74.4223L74.2823 327.927H74.1843C73.9416 328.319 73.6196 328.613 73.2183 328.809C72.8263 329.005 72.3923 329.103 71.9163 329.103ZM72.3223 327.843C72.7516 327.843 73.097 327.75 73.3583 327.563C73.629 327.367 73.8296 327.087 73.9603 326.723C74.091 326.35 74.1563 325.897 74.1563 325.365V325.169C74.1563 324.721 74.1143 324.338 74.0303 324.021C73.9463 323.704 73.825 323.447 73.6663 323.251C73.5076 323.046 73.3163 322.896 73.0923 322.803C72.8683 322.71 72.6163 322.663 72.3363 322.663C71.907 322.663 71.557 322.752 71.2863 322.929C71.0156 323.097 70.815 323.363 70.6843 323.727C70.563 324.091 70.5023 324.562 70.5023 325.141V325.393C70.5023 325.972 70.5676 326.443 70.6983 326.807C70.829 327.162 71.025 327.423 71.2863 327.591C71.557 327.759 71.9023 327.843 72.3223 327.843ZM81.0328 331.483C80.6968 331.483 80.3795 331.413 80.0808 331.273C79.7915 331.133 79.5581 330.932 79.3808 330.671C79.2035 330.41 79.1148 330.092 79.1148 329.719C79.1148 329.308 79.2268 328.977 79.4508 328.725C79.6841 328.464 79.9548 328.268 80.2628 328.137C80.0388 328.034 79.8568 327.885 79.7168 327.689C79.5861 327.493 79.5208 327.269 79.5208 327.017C79.5208 326.672 79.6468 326.392 79.8988 326.177C80.1508 325.962 80.4448 325.822 80.7808 325.757C80.4541 325.542 80.1975 325.272 80.0108 324.945C79.8335 324.618 79.7448 324.25 79.7448 323.839C79.7448 323.344 79.8615 322.92 80.0948 322.565C80.3281 322.201 80.6735 321.916 81.1308 321.711C81.5975 321.506 82.1621 321.403 82.8248 321.403C83.1141 321.403 83.3848 321.426 83.6368 321.473C83.8981 321.51 84.1315 321.566 84.3368 321.641C84.6635 321.473 84.8968 321.272 85.0368 321.039C85.1768 320.796 85.2608 320.572 85.2888 320.367H86.7168C86.7168 320.675 86.6515 320.955 86.5208 321.207C86.3995 321.45 86.2268 321.655 86.0028 321.823C85.7881 321.982 85.5268 322.094 85.2188 322.159C85.4521 322.374 85.6248 322.626 85.7368 322.915C85.8581 323.195 85.9188 323.503 85.9188 323.839C85.9188 324.324 85.8068 324.749 85.5828 325.113C85.3588 325.477 85.0181 325.762 84.5608 325.967C84.1128 326.172 83.5575 326.275 82.8948 326.275H81.7468C81.5228 326.275 81.3408 326.322 81.2008 326.415C81.0701 326.508 81.0048 326.648 81.0048 326.835C81.0048 326.994 81.0701 327.124 81.2008 327.227C81.3315 327.33 81.5041 327.381 81.7188 327.381H84.8268C85.3681 327.381 85.8161 327.563 86.1708 327.927C86.5255 328.282 86.7028 328.739 86.7028 329.299C86.7028 329.71 86.5955 330.078 86.3808 330.405C86.1755 330.741 85.8815 331.002 85.4988 331.189C85.1255 331.385 84.6915 331.483 84.1968 331.483H81.0328ZM81.5088 330.405H84.1828C84.3788 330.405 84.5561 330.368 84.7148 330.293C84.8735 330.218 84.9995 330.111 85.0928 329.971C85.1861 329.84 85.2328 329.691 85.2328 329.523C85.2328 329.243 85.1441 329.024 84.9668 328.865C84.7988 328.706 84.5888 328.627 84.3368 328.627H81.5088C81.2475 328.627 81.0281 328.716 80.8508 328.893C80.6735 329.061 80.5848 329.271 80.5848 329.523C80.5848 329.784 80.6688 329.994 80.8368 330.153C81.0141 330.321 81.2381 330.405 81.5088 330.405ZM82.8388 325.225C83.3895 325.225 83.8001 325.104 84.0708 324.861C84.3415 324.609 84.4768 324.268 84.4768 323.839C84.4768 323.4 84.3415 323.064 84.0708 322.831C83.8001 322.588 83.3895 322.467 82.8388 322.467C82.2881 322.467 81.8775 322.588 81.6068 322.831C81.3361 323.064 81.2008 323.4 81.2008 323.839C81.2008 324.119 81.2568 324.366 81.3688 324.581C81.4901 324.786 81.6721 324.945 81.9148 325.057C82.1668 325.169 82.4748 325.225 82.8388 325.225ZM87.5462 328.935V321.571H88.7502L88.8762 322.761H88.9602C89.0442 322.528 89.1515 322.308 89.2822 322.103C89.4222 321.898 89.5995 321.73 89.8142 321.599C90.0382 321.468 90.3089 321.403 90.6262 321.403C90.7755 321.403 90.9062 321.417 91.0182 321.445C91.1395 321.473 91.2329 321.496 91.2982 321.515V322.887H90.8082C90.5095 322.887 90.2435 322.934 90.0102 323.027C89.7862 323.12 89.5949 323.26 89.4362 323.447C89.2869 323.624 89.1749 323.844 89.1002 324.105C89.0349 324.366 89.0022 324.66 89.0022 324.987V328.935H87.5462ZM93.8313 329.103C93.598 329.103 93.346 329.075 93.0753 329.019C92.8047 328.963 92.548 328.86 92.3053 328.711C92.072 328.562 91.8807 328.356 91.7313 328.095C91.582 327.824 91.5073 327.474 91.5073 327.045C91.5073 326.541 91.624 326.126 91.8573 325.799C92.0907 325.472 92.4173 325.216 92.8373 325.029C93.2573 324.842 93.7567 324.712 94.3353 324.637C94.9233 324.562 95.5627 324.525 96.2533 324.525V323.797C96.2533 323.554 96.2113 323.34 96.1273 323.153C96.0527 322.966 95.908 322.822 95.6933 322.719C95.488 322.616 95.1893 322.565 94.7973 322.565C94.4053 322.565 94.0973 322.616 93.8733 322.719C93.6587 322.812 93.5047 322.934 93.4113 323.083C93.3273 323.223 93.2853 323.377 93.2853 323.545V323.755H91.8853C91.876 323.708 91.8713 323.662 91.8713 323.615C91.8713 323.568 91.8713 323.512 91.8713 323.447C91.8713 323.008 91.9927 322.64 92.2353 322.341C92.4873 322.033 92.8373 321.8 93.2853 321.641C93.7333 321.482 94.2513 321.403 94.8393 321.403C95.474 321.403 96.0013 321.496 96.4213 321.683C96.8507 321.86 97.1727 322.117 97.3873 322.453C97.602 322.789 97.7093 323.195 97.7093 323.671V327.409C97.7093 327.586 97.7513 327.712 97.8353 327.787C97.9287 327.862 98.036 327.899 98.1573 327.899H98.6613V328.879C98.5493 328.926 98.4093 328.972 98.2413 329.019C98.0733 329.066 97.8773 329.089 97.6533 329.089C97.4013 329.089 97.1867 329.042 97.0093 328.949C96.8413 328.865 96.7013 328.744 96.5893 328.585C96.4867 328.417 96.4167 328.23 96.3793 328.025H96.2953C96.1273 328.24 95.922 328.431 95.6793 328.599C95.446 328.758 95.1753 328.879 94.8673 328.963C94.5593 329.056 94.214 329.103 93.8313 329.103ZM94.2373 327.899C94.5267 327.899 94.7927 327.857 95.0353 327.773C95.2873 327.68 95.502 327.554 95.6793 327.395C95.8567 327.227 95.9967 327.031 96.0993 326.807C96.202 326.574 96.2533 326.322 96.2533 326.051V325.561C95.6093 325.561 95.0447 325.598 94.5593 325.673C94.074 325.748 93.696 325.888 93.4253 326.093C93.1547 326.289 93.0193 326.564 93.0193 326.919C93.0193 327.134 93.066 327.316 93.1593 327.465C93.2527 327.605 93.3927 327.712 93.5793 327.787C93.766 327.862 93.9853 327.899 94.2373 327.899ZM99.3866 331.357V321.571H100.577L100.703 322.579H100.801C101.053 322.187 101.375 321.893 101.767 321.697C102.159 321.501 102.597 321.403 103.083 321.403C103.689 321.403 104.207 321.538 104.637 321.809C105.075 322.08 105.411 322.5 105.645 323.069C105.878 323.638 105.995 324.376 105.995 325.281C105.995 326.158 105.873 326.882 105.631 327.451C105.397 328.011 105.066 328.426 104.637 328.697C104.207 328.968 103.713 329.103 103.153 329.103C102.826 329.103 102.523 329.066 102.243 328.991C101.963 328.916 101.711 328.8 101.487 328.641C101.272 328.482 101.085 328.282 100.927 328.039H100.843V331.357H99.3866ZM102.649 327.843C103.087 327.843 103.442 327.759 103.713 327.591C103.983 327.414 104.179 327.143 104.301 326.779C104.431 326.415 104.497 325.953 104.497 325.393V325.141C104.497 324.553 104.431 324.077 104.301 323.713C104.17 323.349 103.969 323.083 103.699 322.915C103.437 322.747 103.097 322.663 102.677 322.663C102.247 322.663 101.897 322.761 101.627 322.957C101.356 323.144 101.155 323.424 101.025 323.797C100.903 324.17 100.843 324.623 100.843 325.155V325.351C100.843 325.79 100.885 326.168 100.969 326.485C101.053 326.802 101.174 327.064 101.333 327.269C101.491 327.465 101.683 327.61 101.907 327.703C102.131 327.796 102.378 327.843 102.649 327.843ZM107.214 328.935V318.813H108.67V322.453H108.768C108.945 322.229 109.146 322.042 109.37 321.893C109.594 321.734 109.846 321.613 110.126 321.529C110.406 321.445 110.714 321.403 111.05 321.403C111.517 321.403 111.927 321.487 112.282 321.655C112.637 321.814 112.912 322.075 113.108 322.439C113.313 322.803 113.416 323.293 113.416 323.909V328.935H111.96V324.133C111.96 323.853 111.923 323.62 111.848 323.433C111.783 323.246 111.685 323.097 111.554 322.985C111.423 322.873 111.269 322.794 111.092 322.747C110.915 322.7 110.719 322.677 110.504 322.677C110.168 322.677 109.86 322.756 109.58 322.915C109.309 323.074 109.09 323.298 108.922 323.587C108.754 323.876 108.67 324.222 108.67 324.623V328.935H107.214ZM118.349 331.483C118.069 331.483 117.835 331.46 117.649 331.413C117.462 331.376 117.345 331.352 117.299 331.343V330.293H117.999C118.204 330.293 118.409 330.246 118.615 330.153C118.829 330.06 119.021 329.91 119.189 329.705C119.357 329.5 119.497 329.243 119.609 328.935L116.739 321.571H118.265L119.693 325.239C119.758 325.407 119.828 325.617 119.903 325.869C119.987 326.121 120.066 326.378 120.141 326.639C120.225 326.9 120.295 327.134 120.351 327.339H120.421C120.467 327.199 120.514 327.04 120.561 326.863C120.617 326.676 120.673 326.485 120.729 326.289C120.785 326.093 120.841 325.906 120.897 325.729C120.953 325.542 120.999 325.384 121.037 325.253L122.227 321.571H123.711L121.219 328.655C121.079 329.047 120.925 329.416 120.757 329.761C120.589 330.106 120.393 330.405 120.169 330.657C119.954 330.918 119.697 331.119 119.399 331.259C119.1 331.408 118.75 331.483 118.349 331.483ZM127.598 329.103C126.833 329.103 126.184 328.968 125.652 328.697C125.129 328.417 124.733 327.992 124.462 327.423C124.201 326.854 124.07 326.13 124.07 325.253C124.07 324.366 124.201 323.643 124.462 323.083C124.733 322.514 125.129 322.094 125.652 321.823C126.184 321.543 126.833 321.403 127.598 321.403C128.382 321.403 129.035 321.543 129.558 321.823C130.081 322.094 130.473 322.514 130.734 323.083C131.005 323.643 131.14 324.366 131.14 325.253C131.14 326.13 131.005 326.854 130.734 327.423C130.473 327.992 130.081 328.417 129.558 328.697C129.035 328.968 128.382 329.103 127.598 329.103ZM127.598 327.899C128.065 327.899 128.447 327.81 128.746 327.633C129.045 327.446 129.264 327.166 129.404 326.793C129.553 326.42 129.628 325.948 129.628 325.379V325.127C129.628 324.558 129.553 324.086 129.404 323.713C129.264 323.34 129.045 323.064 128.746 322.887C128.447 322.7 128.065 322.607 127.598 322.607C127.141 322.607 126.763 322.7 126.464 322.887C126.165 323.064 125.941 323.34 125.792 323.713C125.652 324.086 125.582 324.558 125.582 325.127V325.379C125.582 325.948 125.652 326.42 125.792 326.793C125.941 327.166 126.165 327.446 126.464 327.633C126.763 327.81 127.141 327.899 127.598 327.899ZM134.654 329.103C133.945 329.103 133.371 328.916 132.932 328.543C132.493 328.16 132.274 327.512 132.274 326.597V321.571H133.73V326.373C133.73 326.653 133.763 326.886 133.828 327.073C133.903 327.26 134.005 327.409 134.136 327.521C134.267 327.633 134.421 327.712 134.598 327.759C134.775 327.806 134.971 327.829 135.186 327.829C135.522 327.829 135.825 327.75 136.096 327.591C136.376 327.423 136.6 327.194 136.768 326.905C136.936 326.606 137.02 326.266 137.02 325.883V321.571H138.476V328.935H137.286L137.16 327.885H137.062C136.885 328.156 136.675 328.38 136.432 328.557C136.189 328.734 135.919 328.87 135.62 328.963C135.331 329.056 135.009 329.103 134.654 329.103ZM140.076 328.935V321.571H141.28L141.406 322.761H141.49C141.574 322.528 141.681 322.308 141.812 322.103C141.952 321.898 142.129 321.73 142.344 321.599C142.568 321.468 142.838 321.403 143.156 321.403C143.305 321.403 143.436 321.417 143.548 321.445C143.669 321.473 143.762 321.496 143.828 321.515V322.887H143.338C143.039 322.887 142.773 322.934 142.54 323.027C142.316 323.12 142.124 323.26 141.966 323.447C141.816 323.624 141.704 323.844 141.63 324.105C141.564 324.366 141.532 324.66 141.532 324.987V328.935H140.076ZM147.149 328.935V319.331H148.717V328.935H147.149ZM150.515 328.935V321.571H151.719L151.845 322.621H151.943C152.12 322.35 152.33 322.126 152.573 321.949C152.816 321.772 153.082 321.636 153.371 321.543C153.67 321.45 153.996 321.403 154.351 321.403C154.818 321.403 155.228 321.487 155.583 321.655C155.938 321.814 156.213 322.075 156.409 322.439C156.614 322.803 156.717 323.293 156.717 323.909V328.935H155.261V324.133C155.261 323.853 155.224 323.62 155.149 323.433C155.084 323.246 154.986 323.097 154.855 322.985C154.724 322.873 154.57 322.794 154.393 322.747C154.216 322.7 154.02 322.677 153.805 322.677C153.469 322.677 153.161 322.761 152.881 322.929C152.61 323.088 152.391 323.312 152.223 323.601C152.055 323.89 151.971 324.231 151.971 324.623V328.935H150.515ZM160.094 329.103C159.674 329.103 159.343 329.024 159.1 328.865C158.867 328.697 158.699 328.487 158.596 328.235C158.503 327.974 158.456 327.698 158.456 327.409V322.775H157.532V321.571H158.484L158.75 319.513H159.912V321.571H161.242V322.775H159.912V327.241C159.912 327.456 159.959 327.619 160.052 327.731C160.146 327.843 160.3 327.899 160.514 327.899H161.242V328.879C161.149 328.916 161.032 328.949 160.892 328.977C160.762 329.014 160.626 329.042 160.486 329.061C160.346 329.089 160.216 329.103 160.094 329.103ZM165.298 329.103C164.542 329.103 163.907 328.968 163.394 328.697C162.89 328.417 162.507 327.992 162.246 327.423C161.985 326.854 161.854 326.13 161.854 325.253C161.854 324.366 161.985 323.643 162.246 323.083C162.507 322.514 162.895 322.094 163.408 321.823C163.921 321.543 164.561 321.403 165.326 321.403C166.026 321.403 166.609 321.538 167.076 321.809C167.552 322.07 167.911 322.472 168.154 323.013C168.397 323.554 168.518 324.236 168.518 325.057V325.617H163.352C163.371 326.14 163.45 326.578 163.59 326.933C163.73 327.278 163.94 327.535 164.22 327.703C164.509 327.862 164.873 327.941 165.312 327.941C165.583 327.941 165.825 327.908 166.04 327.843C166.255 327.768 166.437 327.666 166.586 327.535C166.735 327.395 166.852 327.232 166.936 327.045C167.02 326.849 167.062 326.63 167.062 326.387H168.49C168.49 326.826 168.415 327.213 168.266 327.549C168.117 327.885 167.897 328.17 167.608 328.403C167.328 328.627 166.992 328.8 166.6 328.921C166.208 329.042 165.774 329.103 165.298 329.103ZM163.38 324.553H166.992C166.992 324.189 166.95 323.886 166.866 323.643C166.791 323.391 166.679 323.186 166.53 323.027C166.381 322.868 166.203 322.756 165.998 322.691C165.793 322.616 165.559 322.579 165.298 322.579C164.906 322.579 164.57 322.649 164.29 322.789C164.019 322.929 163.809 323.148 163.66 323.447C163.511 323.736 163.417 324.105 163.38 324.553ZM169.718 328.935V321.571H170.922L171.048 322.761H171.132C171.216 322.528 171.323 322.308 171.454 322.103C171.594 321.898 171.771 321.73 171.986 321.599C172.21 321.468 172.481 321.403 172.798 321.403C172.947 321.403 173.078 321.417 173.19 321.445C173.311 321.473 173.405 321.496 173.47 321.515V322.887H172.98C172.681 322.887 172.415 322.934 172.182 323.027C171.958 323.12 171.767 323.26 171.608 323.447C171.459 323.624 171.347 323.844 171.272 324.105C171.207 324.366 171.174 324.66 171.174 324.987V328.935H169.718ZM174.278 328.935V321.571H175.482L175.608 322.621H175.706C175.883 322.35 176.093 322.126 176.336 321.949C176.579 321.772 176.845 321.636 177.134 321.543C177.433 321.45 177.759 321.403 178.114 321.403C178.581 321.403 178.991 321.487 179.346 321.655C179.701 321.814 179.976 322.075 180.172 322.439C180.377 322.803 180.48 323.293 180.48 323.909V328.935H179.024V324.133C179.024 323.853 178.987 323.62 178.912 323.433C178.847 323.246 178.749 323.097 178.618 322.985C178.487 322.873 178.333 322.794 178.156 322.747C177.979 322.7 177.783 322.677 177.568 322.677C177.232 322.677 176.924 322.761 176.644 322.929C176.373 323.088 176.154 323.312 175.986 323.601C175.818 323.89 175.734 324.231 175.734 324.623V328.935H174.278ZM185.075 329.103C184.319 329.103 183.685 328.968 183.171 328.697C182.667 328.417 182.285 327.992 182.023 327.423C181.762 326.854 181.631 326.13 181.631 325.253C181.631 324.366 181.762 323.643 182.023 323.083C182.285 322.514 182.672 322.094 183.185 321.823C183.699 321.543 184.338 321.403 185.103 321.403C185.803 321.403 186.387 321.538 186.853 321.809C187.329 322.07 187.689 322.472 187.931 323.013C188.174 323.554 188.295 324.236 188.295 325.057V325.617H183.129C183.148 326.14 183.227 326.578 183.367 326.933C183.507 327.278 183.717 327.535 183.997 327.703C184.287 327.862 184.651 327.941 185.089 327.941C185.36 327.941 185.603 327.908 185.817 327.843C186.032 327.768 186.214 327.666 186.363 327.535C186.513 327.395 186.629 327.232 186.713 327.045C186.797 326.849 186.839 326.63 186.839 326.387H188.267C188.267 326.826 188.193 327.213 188.043 327.549C187.894 327.885 187.675 328.17 187.385 328.403C187.105 328.627 186.769 328.8 186.377 328.921C185.985 329.042 185.551 329.103 185.075 329.103ZM183.157 324.553H186.769C186.769 324.189 186.727 323.886 186.643 323.643C186.569 323.391 186.457 323.186 186.307 323.027C186.158 322.868 185.981 322.756 185.775 322.691C185.57 322.616 185.337 322.579 185.075 322.579C184.683 322.579 184.347 322.649 184.067 322.789C183.797 322.929 183.587 323.148 183.437 323.447C183.288 323.736 183.195 324.105 183.157 324.553ZM191.329 329.103C190.909 329.103 190.578 329.024 190.335 328.865C190.102 328.697 189.934 328.487 189.831 328.235C189.738 327.974 189.691 327.698 189.691 327.409V322.775H188.767V321.571H189.719L189.985 319.513H191.147V321.571H192.477V322.775H191.147V327.241C191.147 327.456 191.194 327.619 191.287 327.731C191.381 327.843 191.535 327.899 191.749 327.899H192.477V328.879C192.384 328.916 192.267 328.949 192.127 328.977C191.997 329.014 191.861 329.042 191.721 329.061C191.581 329.089 191.451 329.103 191.329 329.103ZM196.072 328.935V318.813H197.528V328.935H196.072ZM200.99 329.103C200.757 329.103 200.505 329.075 200.234 329.019C199.963 328.963 199.707 328.86 199.464 328.711C199.231 328.562 199.039 328.356 198.89 328.095C198.741 327.824 198.666 327.474 198.666 327.045C198.666 326.541 198.783 326.126 199.016 325.799C199.249 325.472 199.576 325.216 199.996 325.029C200.416 324.842 200.915 324.712 201.494 324.637C202.082 324.562 202.721 324.525 203.412 324.525V323.797C203.412 323.554 203.37 323.34 203.286 323.153C203.211 322.966 203.067 322.822 202.852 322.719C202.647 322.616 202.348 322.565 201.956 322.565C201.564 322.565 201.256 322.616 201.032 322.719C200.817 322.812 200.663 322.934 200.57 323.083C200.486 323.223 200.444 323.377 200.444 323.545V323.755H199.044C199.035 323.708 199.03 323.662 199.03 323.615C199.03 323.568 199.03 323.512 199.03 323.447C199.03 323.008 199.151 322.64 199.394 322.341C199.646 322.033 199.996 321.8 200.444 321.641C200.892 321.482 201.41 321.403 201.998 321.403C202.633 321.403 203.16 321.496 203.58 321.683C204.009 321.86 204.331 322.117 204.546 322.453C204.761 322.789 204.868 323.195 204.868 323.671V327.409C204.868 327.586 204.91 327.712 204.994 327.787C205.087 327.862 205.195 327.899 205.316 327.899H205.82V328.879C205.708 328.926 205.568 328.972 205.4 329.019C205.232 329.066 205.036 329.089 204.812 329.089C204.56 329.089 204.345 329.042 204.168 328.949C204 328.865 203.86 328.744 203.748 328.585C203.645 328.417 203.575 328.23 203.538 328.025H203.454C203.286 328.24 203.081 328.431 202.838 328.599C202.605 328.758 202.334 328.879 202.026 328.963C201.718 329.056 201.373 329.103 200.99 329.103ZM201.396 327.899C201.685 327.899 201.951 327.857 202.194 327.773C202.446 327.68 202.661 327.554 202.838 327.395C203.015 327.227 203.155 327.031 203.258 326.807C203.361 326.574 203.412 326.322 203.412 326.051V325.561C202.768 325.561 202.203 325.598 201.718 325.673C201.233 325.748 200.855 325.888 200.584 326.093C200.313 326.289 200.178 326.564 200.178 326.919C200.178 327.134 200.225 327.316 200.318 327.465C200.411 327.605 200.551 327.712 200.738 327.787C200.925 327.862 201.144 327.899 201.396 327.899ZM208.379 329.103C207.959 329.103 207.628 329.024 207.385 328.865C207.152 328.697 206.984 328.487 206.881 328.235C206.788 327.974 206.741 327.698 206.741 327.409V322.775H205.817V321.571H206.769L207.035 319.513H208.197V321.571H209.527V322.775H208.197V327.241C208.197 327.456 208.244 327.619 208.337 327.731C208.43 327.843 208.584 327.899 208.799 327.899H209.527V328.879C209.434 328.916 209.317 328.949 209.177 328.977C209.046 329.014 208.911 329.042 208.771 329.061C208.631 329.089 208.5 329.103 208.379 329.103ZM213.583 329.103C212.827 329.103 212.192 328.968 211.679 328.697C211.175 328.417 210.792 327.992 210.531 327.423C210.269 326.854 210.139 326.13 210.139 325.253C210.139 324.366 210.269 323.643 210.531 323.083C210.792 322.514 211.179 322.094 211.693 321.823C212.206 321.543 212.845 321.403 213.611 321.403C214.311 321.403 214.894 321.538 215.361 321.809C215.837 322.07 216.196 322.472 216.439 323.013C216.681 323.554 216.803 324.236 216.803 325.057V325.617H211.637C211.655 326.14 211.735 326.578 211.875 326.933C212.015 327.278 212.225 327.535 212.505 327.703C212.794 327.862 213.158 327.941 213.597 327.941C213.867 327.941 214.11 327.908 214.325 327.843C214.539 327.768 214.721 327.666 214.871 327.535C215.02 327.395 215.137 327.232 215.221 327.045C215.305 326.849 215.347 326.63 215.347 326.387H216.775C216.775 326.826 216.7 327.213 216.551 327.549C216.401 327.885 216.182 328.17 215.893 328.403C215.613 328.627 215.277 328.8 214.885 328.921C214.493 329.042 214.059 329.103 213.583 329.103ZM211.665 324.553H215.277C215.277 324.189 215.235 323.886 215.151 323.643C215.076 323.391 214.964 323.186 214.815 323.027C214.665 322.868 214.488 322.756 214.283 322.691C214.077 322.616 213.844 322.579 213.583 322.579C213.191 322.579 212.855 322.649 212.575 322.789C212.304 322.929 212.094 323.148 211.945 323.447C211.795 323.736 211.702 324.105 211.665 324.553ZM218.003 328.935V321.571H219.207L219.333 322.621H219.431C219.608 322.35 219.818 322.126 220.061 321.949C220.303 321.772 220.569 321.636 220.859 321.543C221.157 321.45 221.484 321.403 221.839 321.403C222.305 321.403 222.716 321.487 223.071 321.655C223.425 321.814 223.701 322.075 223.897 322.439C224.102 322.803 224.205 323.293 224.205 323.909V328.935H222.749V324.133C222.749 323.853 222.711 323.62 222.637 323.433C222.571 323.246 222.473 323.097 222.343 322.985C222.212 322.873 222.058 322.794 221.881 322.747C221.703 322.7 221.507 322.677 221.293 322.677C220.957 322.677 220.649 322.761 220.369 322.929C220.098 323.088 219.879 323.312 219.711 323.601C219.543 323.89 219.459 324.231 219.459 324.623V328.935H218.003ZM228.674 329.103C227.937 329.103 227.321 328.968 226.826 328.697C226.331 328.417 225.958 327.992 225.706 327.423C225.463 326.854 225.342 326.13 225.342 325.253C225.342 324.376 225.468 323.657 225.72 323.097C225.972 322.528 226.345 322.103 226.84 321.823C227.344 321.543 227.96 321.403 228.688 321.403C229.192 321.403 229.631 321.468 230.004 321.599C230.377 321.72 230.695 321.907 230.956 322.159C231.217 322.402 231.409 322.705 231.53 323.069C231.661 323.433 231.726 323.848 231.726 324.315H230.256C230.256 323.923 230.2 323.601 230.088 323.349C229.976 323.097 229.803 322.91 229.57 322.789C229.337 322.658 229.033 322.593 228.66 322.593C228.268 322.593 227.937 322.686 227.666 322.873C227.395 323.05 227.19 323.326 227.05 323.699C226.91 324.063 226.84 324.544 226.84 325.141V325.379C226.84 325.948 226.905 326.424 227.036 326.807C227.176 327.18 227.381 327.46 227.652 327.647C227.932 327.824 228.287 327.913 228.716 327.913C229.089 327.913 229.388 327.848 229.612 327.717C229.845 327.577 230.018 327.381 230.13 327.129C230.251 326.868 230.312 326.555 230.312 326.191H231.726C231.726 326.63 231.661 327.026 231.53 327.381C231.409 327.736 231.217 328.044 230.956 328.305C230.704 328.557 230.387 328.753 230.004 328.893C229.621 329.033 229.178 329.103 228.674 329.103ZM233.717 331.483C233.437 331.483 233.204 331.46 233.017 331.413C232.831 331.376 232.714 331.352 232.667 331.343V330.293H233.367C233.573 330.293 233.778 330.246 233.983 330.153C234.198 330.06 234.389 329.91 234.557 329.705C234.725 329.5 234.865 329.243 234.977 328.935L232.107 321.571H233.633L235.061 325.239C235.127 325.407 235.197 325.617 235.271 325.869C235.355 326.121 235.435 326.378 235.509 326.639C235.593 326.9 235.663 327.134 235.719 327.339H235.789C235.836 327.199 235.883 327.04 235.929 326.863C235.985 326.676 236.041 326.485 236.097 326.289C236.153 326.093 236.209 325.906 236.265 325.729C236.321 325.542 236.368 325.384 236.405 325.253L237.595 321.571H239.079L236.587 328.655C236.447 329.047 236.293 329.416 236.125 329.761C235.957 330.106 235.761 330.405 235.537 330.657C235.323 330.918 235.066 331.119 234.767 331.259C234.469 331.408 234.119 331.483 233.717 331.483ZM244.311 329.103C244.078 329.103 243.826 329.075 243.555 329.019C243.284 328.963 243.028 328.86 242.785 328.711C242.552 328.562 242.36 328.356 242.211 328.095C242.062 327.824 241.987 327.474 241.987 327.045C241.987 326.541 242.104 326.126 242.337 325.799C242.57 325.472 242.897 325.216 243.317 325.029C243.737 324.842 244.236 324.712 244.815 324.637C245.403 324.562 246.042 324.525 246.733 324.525V323.797C246.733 323.554 246.691 323.34 246.607 323.153C246.532 322.966 246.388 322.822 246.173 322.719C245.968 322.616 245.669 322.565 245.277 322.565C244.885 322.565 244.577 322.616 244.353 322.719C244.138 322.812 243.984 322.934 243.891 323.083C243.807 323.223 243.765 323.377 243.765 323.545V323.755H242.365C242.356 323.708 242.351 323.662 242.351 323.615C242.351 323.568 242.351 323.512 242.351 323.447C242.351 323.008 242.472 322.64 242.715 322.341C242.967 322.033 243.317 321.8 243.765 321.641C244.213 321.482 244.731 321.403 245.319 321.403C245.954 321.403 246.481 321.496 246.901 321.683C247.33 321.86 247.652 322.117 247.867 322.453C248.082 322.789 248.189 323.195 248.189 323.671V327.409C248.189 327.586 248.231 327.712 248.315 327.787C248.408 327.862 248.516 327.899 248.637 327.899H249.141V328.879C249.029 328.926 248.889 328.972 248.721 329.019C248.553 329.066 248.357 329.089 248.133 329.089C247.881 329.089 247.666 329.042 247.489 328.949C247.321 328.865 247.181 328.744 247.069 328.585C246.966 328.417 246.896 328.23 246.859 328.025H246.775C246.607 328.24 246.402 328.431 246.159 328.599C245.926 328.758 245.655 328.879 245.347 328.963C245.039 329.056 244.694 329.103 244.311 329.103ZM244.717 327.899C245.006 327.899 245.272 327.857 245.515 327.773C245.767 327.68 245.982 327.554 246.159 327.395C246.336 327.227 246.476 327.031 246.579 326.807C246.682 326.574 246.733 326.322 246.733 326.051V325.561C246.089 325.561 245.524 325.598 245.039 325.673C244.554 325.748 244.176 325.888 243.905 326.093C243.634 326.289 243.499 326.564 243.499 326.919C243.499 327.134 243.546 327.316 243.639 327.465C243.732 327.605 243.872 327.712 244.059 327.787C244.246 327.862 244.465 327.899 244.717 327.899ZM252.792 329.103C252.055 329.103 251.439 328.968 250.944 328.697C250.45 328.417 250.076 327.992 249.824 327.423C249.582 326.854 249.46 326.13 249.46 325.253C249.46 324.376 249.586 323.657 249.838 323.097C250.09 322.528 250.464 322.103 250.958 321.823C251.462 321.543 252.078 321.403 252.806 321.403C253.31 321.403 253.749 321.468 254.122 321.599C254.496 321.72 254.813 321.907 255.074 322.159C255.336 322.402 255.527 322.705 255.648 323.069C255.779 323.433 255.844 323.848 255.844 324.315H254.374C254.374 323.923 254.318 323.601 254.206 323.349C254.094 323.097 253.922 322.91 253.688 322.789C253.455 322.658 253.152 322.593 252.778 322.593C252.386 322.593 252.055 322.686 251.784 322.873C251.514 323.05 251.308 323.326 251.168 323.699C251.028 324.063 250.958 324.544 250.958 325.141V325.379C250.958 325.948 251.024 326.424 251.154 326.807C251.294 327.18 251.5 327.46 251.77 327.647C252.05 327.824 252.405 327.913 252.834 327.913C253.208 327.913 253.506 327.848 253.73 327.717C253.964 327.577 254.136 327.381 254.248 327.129C254.37 326.868 254.43 326.555 254.43 326.191H255.844C255.844 326.63 255.779 327.026 255.648 327.381C255.527 327.736 255.336 328.044 255.074 328.305C254.822 328.557 254.505 328.753 254.122 328.893C253.74 329.033 253.296 329.103 252.792 329.103ZM257.038 328.935V321.571H258.242L258.368 322.761H258.452C258.536 322.528 258.643 322.308 258.774 322.103C258.914 321.898 259.091 321.73 259.306 321.599C259.53 321.468 259.8 321.403 260.118 321.403C260.267 321.403 260.398 321.417 260.51 321.445C260.631 321.473 260.724 321.496 260.79 321.515V322.887H260.3C260.001 322.887 259.735 322.934 259.502 323.027C259.278 323.12 259.086 323.26 258.928 323.447C258.778 323.624 258.666 323.844 258.592 324.105C258.526 324.366 258.494 324.66 258.494 324.987V328.935H257.038ZM264.597 329.103C263.831 329.103 263.183 328.968 262.651 328.697C262.128 328.417 261.731 327.992 261.461 327.423C261.199 326.854 261.069 326.13 261.069 325.253C261.069 324.366 261.199 323.643 261.461 323.083C261.731 322.514 262.128 322.094 262.651 321.823C263.183 321.543 263.831 321.403 264.597 321.403C265.381 321.403 266.034 321.543 266.557 321.823C267.079 322.094 267.471 322.514 267.733 323.083C268.003 323.643 268.139 324.366 268.139 325.253C268.139 326.13 268.003 326.854 267.733 327.423C267.471 327.992 267.079 328.417 266.557 328.697C266.034 328.968 265.381 329.103 264.597 329.103ZM264.597 327.899C265.063 327.899 265.446 327.81 265.745 327.633C266.043 327.446 266.263 327.166 266.403 326.793C266.552 326.42 266.627 325.948 266.627 325.379V325.127C266.627 324.558 266.552 324.086 266.403 323.713C266.263 323.34 266.043 323.064 265.745 322.887C265.446 322.7 265.063 322.607 264.597 322.607C264.139 322.607 263.761 322.7 263.463 322.887C263.164 323.064 262.94 323.34 262.791 323.713C262.651 324.086 262.581 324.558 262.581 325.127V325.379C262.581 325.948 262.651 326.42 262.791 326.793C262.94 327.166 263.164 327.446 263.463 327.633C263.761 327.81 264.139 327.899 264.597 327.899ZM272.059 329.103C271.545 329.103 271.093 329.047 270.701 328.935C270.309 328.823 269.982 328.669 269.721 328.473C269.459 328.277 269.259 328.044 269.119 327.773C268.988 327.493 268.923 327.185 268.923 326.849C268.923 326.802 268.923 326.76 268.923 326.723C268.932 326.686 268.937 326.653 268.937 326.625H270.379C270.379 326.653 270.379 326.681 270.379 326.709C270.379 326.728 270.379 326.751 270.379 326.779C270.379 327.068 270.458 327.302 270.617 327.479C270.775 327.647 270.985 327.768 271.247 327.843C271.517 327.908 271.811 327.941 272.129 327.941C272.409 327.941 272.665 327.908 272.899 327.843C273.141 327.768 273.337 327.661 273.487 327.521C273.645 327.381 273.725 327.204 273.725 326.989C273.725 326.709 273.627 326.494 273.431 326.345C273.235 326.196 272.978 326.079 272.661 325.995C272.343 325.902 272.012 325.804 271.667 325.701C271.359 325.617 271.051 325.528 270.743 325.435C270.444 325.332 270.173 325.202 269.931 325.043C269.688 324.884 269.492 324.684 269.343 324.441C269.193 324.198 269.119 323.895 269.119 323.531C269.119 323.186 269.193 322.882 269.343 322.621C269.492 322.36 269.697 322.14 269.959 321.963C270.229 321.786 270.547 321.65 270.911 321.557C271.284 321.464 271.69 321.417 272.129 321.417C272.586 321.417 272.992 321.468 273.347 321.571C273.701 321.664 274 321.8 274.243 321.977C274.495 322.154 274.686 322.369 274.817 322.621C274.947 322.864 275.013 323.125 275.013 323.405C275.013 323.461 275.008 323.522 274.999 323.587C274.999 323.643 274.999 323.68 274.999 323.699H273.571V323.573C273.571 323.386 273.519 323.218 273.417 323.069C273.314 322.92 273.151 322.798 272.927 322.705C272.712 322.612 272.423 322.565 272.059 322.565C271.816 322.565 271.601 322.588 271.415 322.635C271.228 322.672 271.074 322.728 270.953 322.803C270.831 322.878 270.738 322.966 270.673 323.069C270.617 323.172 270.589 323.288 270.589 323.419C270.589 323.634 270.663 323.802 270.813 323.923C270.971 324.035 271.177 324.133 271.429 324.217C271.681 324.292 271.951 324.376 272.241 324.469C272.577 324.562 272.917 324.66 273.263 324.763C273.608 324.856 273.925 324.978 274.215 325.127C274.513 325.276 274.751 325.482 274.929 325.743C275.115 326.004 275.209 326.354 275.209 326.793C275.209 327.194 275.129 327.544 274.971 327.843C274.812 328.142 274.588 328.384 274.299 328.571C274.019 328.748 273.687 328.879 273.305 328.963C272.922 329.056 272.507 329.103 272.059 329.103ZM279.121 329.103C278.607 329.103 278.155 329.047 277.763 328.935C277.371 328.823 277.044 328.669 276.783 328.473C276.521 328.277 276.321 328.044 276.181 327.773C276.05 327.493 275.985 327.185 275.985 326.849C275.985 326.802 275.985 326.76 275.985 326.723C275.994 326.686 275.999 326.653 275.999 326.625H277.441C277.441 326.653 277.441 326.681 277.441 326.709C277.441 326.728 277.441 326.751 277.441 326.779C277.441 327.068 277.52 327.302 277.679 327.479C277.837 327.647 278.047 327.768 278.309 327.843C278.579 327.908 278.873 327.941 279.191 327.941C279.471 327.941 279.727 327.908 279.961 327.843C280.203 327.768 280.399 327.661 280.549 327.521C280.707 327.381 280.787 327.204 280.787 326.989C280.787 326.709 280.689 326.494 280.493 326.345C280.297 326.196 280.04 326.079 279.723 325.995C279.405 325.902 279.074 325.804 278.729 325.701C278.421 325.617 278.113 325.528 277.805 325.435C277.506 325.332 277.235 325.202 276.993 325.043C276.75 324.884 276.554 324.684 276.405 324.441C276.255 324.198 276.181 323.895 276.181 323.531C276.181 323.186 276.255 322.882 276.405 322.621C276.554 322.36 276.759 322.14 277.021 321.963C277.291 321.786 277.609 321.65 277.973 321.557C278.346 321.464 278.752 321.417 279.191 321.417C279.648 321.417 280.054 321.468 280.409 321.571C280.763 321.664 281.062 321.8 281.305 321.977C281.557 322.154 281.748 322.369 281.879 322.621C282.009 322.864 282.075 323.125 282.075 323.405C282.075 323.461 282.07 323.522 282.061 323.587C282.061 323.643 282.061 323.68 282.061 323.699H280.633V323.573C280.633 323.386 280.581 323.218 280.479 323.069C280.376 322.92 280.213 322.798 279.989 322.705C279.774 322.612 279.485 322.565 279.121 322.565C278.878 322.565 278.663 322.588 278.477 322.635C278.29 322.672 278.136 322.728 278.015 322.803C277.893 322.878 277.8 322.966 277.735 323.069C277.679 323.172 277.651 323.288 277.651 323.419C277.651 323.634 277.725 323.802 277.875 323.923C278.033 324.035 278.239 324.133 278.491 324.217C278.743 324.292 279.013 324.376 279.303 324.469C279.639 324.562 279.979 324.66 280.325 324.763C280.67 324.856 280.987 324.978 281.277 325.127C281.575 325.276 281.813 325.482 281.991 325.743C282.177 326.004 282.271 326.354 282.271 326.793C282.271 327.194 282.191 327.544 282.033 327.843C281.874 328.142 281.65 328.384 281.361 328.571C281.081 328.748 280.749 328.879 280.367 328.963C279.984 329.056 279.569 329.103 279.121 329.103ZM287.891 329.103C287.471 329.103 287.14 329.024 286.897 328.865C286.664 328.697 286.496 328.487 286.393 328.235C286.3 327.974 286.253 327.698 286.253 327.409V322.775H285.329V321.571H286.281L286.547 319.513H287.709V321.571H289.039V322.775H287.709V327.241C287.709 327.456 287.756 327.619 287.849 327.731C287.943 327.843 288.097 327.899 288.311 327.899H289.039V328.879C288.946 328.916 288.829 328.949 288.689 328.977C288.559 329.014 288.423 329.042 288.283 329.061C288.143 329.089 288.013 329.103 287.891 329.103ZM290.043 328.935V318.813H291.499V322.453H291.597C291.774 322.229 291.975 322.042 292.199 321.893C292.423 321.734 292.675 321.613 292.955 321.529C293.235 321.445 293.543 321.403 293.879 321.403C294.346 321.403 294.756 321.487 295.111 321.655C295.466 321.814 295.741 322.075 295.937 322.439C296.142 322.803 296.245 323.293 296.245 323.909V328.935H294.789V324.133C294.789 323.853 294.752 323.62 294.677 323.433C294.612 323.246 294.514 323.097 294.383 322.985C294.252 322.873 294.098 322.794 293.921 322.747C293.744 322.7 293.548 322.677 293.333 322.677C292.997 322.677 292.689 322.756 292.409 322.915C292.138 323.074 291.919 323.298 291.751 323.587C291.583 323.876 291.499 324.222 291.499 324.623V328.935H290.043ZM300.84 329.103C300.084 329.103 299.45 328.968 298.936 328.697C298.432 328.417 298.05 327.992 297.788 327.423C297.527 326.854 297.396 326.13 297.396 325.253C297.396 324.366 297.527 323.643 297.788 323.083C298.05 322.514 298.437 322.094 298.95 321.823C299.464 321.543 300.103 321.403 300.868 321.403C301.568 321.403 302.152 321.538 302.618 321.809C303.094 322.07 303.454 322.472 303.696 323.013C303.939 323.554 304.06 324.236 304.06 325.057V325.617H298.894C298.913 326.14 298.992 326.578 299.132 326.933C299.272 327.278 299.482 327.535 299.762 327.703C300.052 327.862 300.416 327.941 300.854 327.941C301.125 327.941 301.368 327.908 301.582 327.843C301.797 327.768 301.979 327.666 302.128 327.535C302.278 327.395 302.394 327.232 302.478 327.045C302.562 326.849 302.604 326.63 302.604 326.387H304.032C304.032 326.826 303.958 327.213 303.808 327.549C303.659 327.885 303.44 328.17 303.15 328.403C302.87 328.627 302.534 328.8 302.142 328.921C301.75 329.042 301.316 329.103 300.84 329.103ZM298.922 324.553H302.534C302.534 324.189 302.492 323.886 302.408 323.643C302.334 323.391 302.222 323.186 302.072 323.027C301.923 322.868 301.746 322.756 301.54 322.691C301.335 322.616 301.102 322.579 300.84 322.579C300.448 322.579 300.112 322.649 299.832 322.789C299.562 322.929 299.352 323.148 299.202 323.447C299.053 323.736 298.96 324.105 298.922 324.553ZM309.224 328.935L307.012 321.571H308.524L309.602 325.603C309.658 325.799 309.704 326.004 309.742 326.219C309.788 326.434 309.83 326.625 309.868 326.793C309.905 326.961 309.933 327.078 309.952 327.143H310.036C310.073 326.975 310.115 326.784 310.162 326.569C310.208 326.354 310.25 326.158 310.288 325.981C310.325 325.794 310.353 325.654 310.372 325.561L311.352 321.571H312.92L313.928 325.575C313.965 325.724 314.002 325.897 314.04 326.093C314.086 326.28 314.128 326.466 314.166 326.653C314.212 326.84 314.245 327.003 314.264 327.143H314.348C314.376 327.012 314.408 326.858 314.446 326.681C314.492 326.494 314.539 326.308 314.586 326.121C314.632 325.934 314.674 325.762 314.712 325.603L315.776 321.571H317.162L314.964 328.935H313.452L312.556 325.267C312.518 325.09 312.472 324.884 312.416 324.651C312.36 324.418 312.308 324.184 312.262 323.951C312.215 323.718 312.178 323.512 312.15 323.335H312.066C312.047 323.438 312.019 323.587 311.982 323.783C311.954 323.979 311.912 324.203 311.856 324.455C311.8 324.707 311.734 324.978 311.66 325.267L310.736 328.935H309.224ZM321.043 329.103C320.278 329.103 319.629 328.968 319.097 328.697C318.575 328.417 318.178 327.992 317.907 327.423C317.646 326.854 317.515 326.13 317.515 325.253C317.515 324.366 317.646 323.643 317.907 323.083C318.178 322.514 318.575 322.094 319.097 321.823C319.629 321.543 320.278 321.403 321.043 321.403C321.827 321.403 322.481 321.543 323.003 321.823C323.526 322.094 323.918 322.514 324.179 323.083C324.45 323.643 324.585 324.366 324.585 325.253C324.585 326.13 324.45 326.854 324.179 327.423C323.918 327.992 323.526 328.417 323.003 328.697C322.481 328.968 321.827 329.103 321.043 329.103ZM321.043 327.899C321.51 327.899 321.893 327.81 322.191 327.633C322.49 327.446 322.709 327.166 322.849 326.793C322.999 326.42 323.073 325.948 323.073 325.379V325.127C323.073 324.558 322.999 324.086 322.849 323.713C322.709 323.34 322.49 323.064 322.191 322.887C321.893 322.7 321.51 322.607 321.043 322.607C320.586 322.607 320.208 322.7 319.909 322.887C319.611 323.064 319.387 323.34 319.237 323.713C319.097 324.086 319.027 324.558 319.027 325.127V325.379C319.027 325.948 319.097 326.42 319.237 326.793C319.387 327.166 319.611 327.446 319.909 327.633C320.208 327.81 320.586 327.899 321.043 327.899ZM325.79 328.935V321.571H326.994L327.12 322.761H327.204C327.288 322.528 327.395 322.308 327.526 322.103C327.666 321.898 327.843 321.73 328.058 321.599C328.282 321.468 328.552 321.403 328.87 321.403C329.019 321.403 329.15 321.417 329.262 321.445C329.383 321.473 329.476 321.496 329.542 321.515V322.887H329.052C328.753 322.887 328.487 322.934 328.254 323.027C328.03 323.12 327.838 323.26 327.68 323.447C327.53 323.624 327.418 323.844 327.344 324.105C327.278 324.366 327.246 324.66 327.246 324.987V328.935H325.79ZM330.349 328.935V318.813H331.805V328.935H330.349ZM335.939 329.103C335.342 329.103 334.824 328.968 334.385 328.697C333.947 328.426 333.606 328.006 333.363 327.437C333.13 326.868 333.013 326.13 333.013 325.225C333.013 324.338 333.135 323.615 333.377 323.055C333.62 322.495 333.956 322.08 334.385 321.809C334.815 321.538 335.309 321.403 335.869 321.403C336.196 321.403 336.499 321.44 336.779 321.515C337.059 321.59 337.307 321.706 337.521 321.865C337.745 322.024 337.932 322.224 338.081 322.467H338.179V318.813H339.635V328.935H338.445L338.305 327.927H338.207C337.965 328.319 337.643 328.613 337.241 328.809C336.849 329.005 336.415 329.103 335.939 329.103ZM336.345 327.843C336.775 327.843 337.12 327.75 337.381 327.563C337.652 327.367 337.853 327.087 337.983 326.723C338.114 326.35 338.179 325.897 338.179 325.365V325.169C338.179 324.721 338.137 324.338 338.053 324.021C337.969 323.704 337.848 323.447 337.689 323.251C337.531 323.046 337.339 322.896 337.115 322.803C336.891 322.71 336.639 322.663 336.359 322.663C335.93 322.663 335.58 322.752 335.309 322.929C335.039 323.097 334.838 323.363 334.707 323.727C334.586 324.091 334.525 324.562 334.525 325.141V325.393C334.525 325.972 334.591 326.443 334.721 326.807C334.852 327.162 335.048 327.423 335.309 327.591C335.58 327.759 335.925 327.843 336.345 327.843ZM343.824 320.297V318.813H345.28V320.297H343.824ZM343.824 328.935V321.571H345.28V328.935H343.824ZM346.88 328.935V321.571H348.084L348.21 322.621H348.308C348.485 322.35 348.695 322.126 348.938 321.949C349.18 321.772 349.446 321.636 349.736 321.543C350.034 321.45 350.361 321.403 350.716 321.403C351.182 321.403 351.593 321.487 351.948 321.655C352.302 321.814 352.578 322.075 352.774 322.439C352.979 322.803 353.082 323.293 353.082 323.909V328.935H351.626V324.133C351.626 323.853 351.588 323.62 351.514 323.433C351.448 323.246 351.35 323.097 351.22 322.985C351.089 322.873 350.935 322.794 350.758 322.747C350.58 322.7 350.384 322.677 350.17 322.677C349.834 322.677 349.526 322.761 349.246 322.929C348.975 323.088 348.756 323.312 348.588 323.601C348.42 323.89 348.336 324.231 348.336 324.623V328.935H346.88ZM28.654 350.103C28.1407 350.103 27.688 350.047 27.296 349.935C26.904 349.823 26.5773 349.669 26.316 349.473C26.0547 349.277 25.854 349.044 25.714 348.773C25.5833 348.493 25.518 348.185 25.518 347.849C25.518 347.802 25.518 347.76 25.518 347.723C25.5273 347.686 25.532 347.653 25.532 347.625H26.974C26.974 347.653 26.974 347.681 26.974 347.709C26.974 347.728 26.974 347.751 26.974 347.779C26.974 348.068 27.0533 348.302 27.212 348.479C27.3707 348.647 27.5807 348.768 27.842 348.843C28.1127 348.908 28.4067 348.941 28.724 348.941C29.004 348.941 29.2607 348.908 29.494 348.843C29.7367 348.768 29.9327 348.661 30.082 348.521C30.2407 348.381 30.32 348.204 30.32 347.989C30.32 347.709 30.222 347.494 30.026 347.345C29.83 347.196 29.5733 347.079 29.256 346.995C28.9387 346.902 28.6073 346.804 28.262 346.701C27.954 346.617 27.646 346.528 27.338 346.435C27.0393 346.332 26.7687 346.202 26.526 346.043C26.2833 345.884 26.0873 345.684 25.938 345.441C25.7887 345.198 25.714 344.895 25.714 344.531C25.714 344.186 25.7887 343.882 25.938 343.621C26.0873 343.36 26.2927 343.14 26.554 342.963C26.8247 342.786 27.142 342.65 27.506 342.557C27.8793 342.464 28.2853 342.417 28.724 342.417C29.1813 342.417 29.5873 342.468 29.942 342.571C30.2967 342.664 30.5953 342.8 30.838 342.977C31.09 343.154 31.2813 343.369 31.412 343.621C31.5427 343.864 31.608 344.125 31.608 344.405C31.608 344.461 31.6033 344.522 31.594 344.587C31.594 344.643 31.594 344.68 31.594 344.699H30.166V344.573C30.166 344.386 30.1147 344.218 30.012 344.069C29.9093 343.92 29.746 343.798 29.522 343.705C29.3073 343.612 29.018 343.565 28.654 343.565C28.4113 343.565 28.1967 343.588 28.01 343.635C27.8233 343.672 27.6693 343.728 27.548 343.803C27.4267 343.878 27.3333 343.966 27.268 344.069C27.212 344.172 27.184 344.288 27.184 344.419C27.184 344.634 27.2587 344.802 27.408 344.923C27.5667 345.035 27.772 345.133 28.024 345.217C28.276 345.292 28.5467 345.376 28.836 345.469C29.172 345.562 29.5127 345.66 29.858 345.763C30.2033 345.856 30.5207 345.978 30.81 346.127C31.1087 346.276 31.3467 346.482 31.524 346.743C31.7107 347.004 31.804 347.354 31.804 347.793C31.804 348.194 31.7247 348.544 31.566 348.843C31.4073 349.142 31.1833 349.384 30.894 349.571C30.614 349.748 30.2827 349.879 29.9 349.963C29.5173 350.056 29.102 350.103 28.654 350.103ZM36.0518 350.103C35.2958 350.103 34.6611 349.968 34.1478 349.697C33.6438 349.417 33.2611 348.992 32.9998 348.423C32.7385 347.854 32.6078 347.13 32.6078 346.253C32.6078 345.366 32.7385 344.643 32.9998 344.083C33.2611 343.514 33.6485 343.094 34.1618 342.823C34.6751 342.543 35.3145 342.403 36.0798 342.403C36.7798 342.403 37.3631 342.538 37.8298 342.809C38.3058 343.07 38.6651 343.472 38.9078 344.013C39.1505 344.554 39.2718 345.236 39.2718 346.057V346.617H34.1058C34.1245 347.14 34.2038 347.578 34.3438 347.933C34.4838 348.278 34.6938 348.535 34.9738 348.703C35.2631 348.862 35.6271 348.941 36.0658 348.941C36.3365 348.941 36.5791 348.908 36.7938 348.843C37.0085 348.768 37.1905 348.666 37.3398 348.535C37.4891 348.395 37.6058 348.232 37.6898 348.045C37.7738 347.849 37.8158 347.63 37.8158 347.387H39.2438C39.2438 347.826 39.1691 348.213 39.0198 348.549C38.8705 348.885 38.6511 349.17 38.3618 349.403C38.0818 349.627 37.7458 349.8 37.3538 349.921C36.9618 350.042 36.5278 350.103 36.0518 350.103ZM34.1338 345.553H37.7458C37.7458 345.189 37.7038 344.886 37.6198 344.643C37.5451 344.391 37.4331 344.186 37.2838 344.027C37.1345 343.868 36.9571 343.756 36.7518 343.691C36.5465 343.616 36.3131 343.579 36.0518 343.579C35.6598 343.579 35.3238 343.649 35.0438 343.789C34.7731 343.929 34.5631 344.148 34.4138 344.447C34.2645 344.736 34.1711 345.105 34.1338 345.553ZM43.3977 350.103C42.6604 350.103 42.0444 349.968 41.5497 349.697C41.0551 349.417 40.6817 348.992 40.4297 348.423C40.1871 347.854 40.0657 347.13 40.0657 346.253C40.0657 345.376 40.1917 344.657 40.4437 344.097C40.6957 343.528 41.0691 343.103 41.5637 342.823C42.0677 342.543 42.6837 342.403 43.4117 342.403C43.9157 342.403 44.3544 342.468 44.7277 342.599C45.1011 342.72 45.4184 342.907 45.6797 343.159C45.9411 343.402 46.1324 343.705 46.2537 344.069C46.3844 344.433 46.4497 344.848 46.4497 345.315H44.9797C44.9797 344.923 44.9237 344.601 44.8117 344.349C44.6997 344.097 44.5271 343.91 44.2937 343.789C44.0604 343.658 43.7571 343.593 43.3837 343.593C42.9917 343.593 42.6604 343.686 42.3897 343.873C42.1191 344.05 41.9137 344.326 41.7737 344.699C41.6337 345.063 41.5637 345.544 41.5637 346.141V346.379C41.5637 346.948 41.6291 347.424 41.7597 347.807C41.8997 348.18 42.1051 348.46 42.3757 348.647C42.6557 348.824 43.0104 348.913 43.4397 348.913C43.8131 348.913 44.1117 348.848 44.3357 348.717C44.5691 348.577 44.7417 348.381 44.8537 348.129C44.9751 347.868 45.0357 347.555 45.0357 347.191H46.4497C46.4497 347.63 46.3844 348.026 46.2537 348.381C46.1324 348.736 45.9411 349.044 45.6797 349.305C45.4277 349.557 45.1104 349.753 44.7277 349.893C44.3451 350.033 43.9017 350.103 43.3977 350.103ZM50.7789 350.103C50.0136 350.103 49.3649 349.968 48.8329 349.697C48.3103 349.417 47.9136 348.992 47.6429 348.423C47.3816 347.854 47.2509 347.13 47.2509 346.253C47.2509 345.366 47.3816 344.643 47.6429 344.083C47.9136 343.514 48.3103 343.094 48.8329 342.823C49.3649 342.543 50.0136 342.403 50.7789 342.403C51.5629 342.403 52.2163 342.543 52.7389 342.823C53.2616 343.094 53.6536 343.514 53.9149 344.083C54.1856 344.643 54.3209 345.366 54.3209 346.253C54.3209 347.13 54.1856 347.854 53.9149 348.423C53.6536 348.992 53.2616 349.417 52.7389 349.697C52.2163 349.968 51.5629 350.103 50.7789 350.103ZM50.7789 348.899C51.2456 348.899 51.6283 348.81 51.9269 348.633C52.2256 348.446 52.4449 348.166 52.5849 347.793C52.7343 347.42 52.8089 346.948 52.8089 346.379V346.127C52.8089 345.558 52.7343 345.086 52.5849 344.713C52.4449 344.34 52.2256 344.064 51.9269 343.887C51.6283 343.7 51.2456 343.607 50.7789 343.607C50.3216 343.607 49.9436 343.7 49.6449 343.887C49.3463 344.064 49.1223 344.34 48.9729 344.713C48.8329 345.086 48.7629 345.558 48.7629 346.127V346.379C48.7629 346.948 48.8329 347.42 48.9729 347.793C49.1223 348.166 49.3463 348.446 49.6449 348.633C49.9436 348.81 50.3216 348.899 50.7789 348.899ZM55.525 349.935V342.571H56.729L56.855 343.621H56.953C57.1304 343.35 57.3404 343.126 57.583 342.949C57.8257 342.772 58.0917 342.636 58.381 342.543C58.6797 342.45 59.0064 342.403 59.361 342.403C59.8277 342.403 60.2384 342.487 60.593 342.655C60.9477 342.814 61.223 343.075 61.419 343.439C61.6244 343.803 61.727 344.293 61.727 344.909V349.935H60.271V345.133C60.271 344.853 60.2337 344.62 60.159 344.433C60.0937 344.246 59.9957 344.097 59.865 343.985C59.7344 343.873 59.5804 343.794 59.403 343.747C59.2257 343.7 59.0297 343.677 58.815 343.677C58.479 343.677 58.171 343.761 57.891 343.929C57.6204 344.088 57.401 344.312 57.233 344.601C57.065 344.89 56.981 345.231 56.981 345.623V349.935H55.525ZM65.8044 350.103C65.2071 350.103 64.6891 349.968 64.2504 349.697C63.8118 349.426 63.4711 349.006 63.2284 348.437C62.9951 347.868 62.8784 347.13 62.8784 346.225C62.8784 345.338 62.9998 344.615 63.2424 344.055C63.4851 343.495 63.8211 343.08 64.2504 342.809C64.6798 342.538 65.1744 342.403 65.7344 342.403C66.0611 342.403 66.3644 342.44 66.6444 342.515C66.9244 342.59 67.1718 342.706 67.3864 342.865C67.6104 343.024 67.7971 343.224 67.9464 343.467H68.0444V339.813H69.5004V349.935H68.3104L68.1704 348.927H68.0724C67.8298 349.319 67.5078 349.613 67.1064 349.809C66.7144 350.005 66.2804 350.103 65.8044 350.103ZM66.2104 348.843C66.6398 348.843 66.9851 348.75 67.2464 348.563C67.5171 348.367 67.7178 348.087 67.8484 347.723C67.9791 347.35 68.0444 346.897 68.0444 346.365V346.169C68.0444 345.721 68.0024 345.338 67.9184 345.021C67.8344 344.704 67.7131 344.447 67.5544 344.251C67.3958 344.046 67.2044 343.896 66.9804 343.803C66.7564 343.71 66.5044 343.663 66.2244 343.663C65.7951 343.663 65.4451 343.752 65.1744 343.929C64.9038 344.097 64.7031 344.363 64.5724 344.727C64.4511 345.091 64.3904 345.562 64.3904 346.141V346.393C64.3904 346.972 64.4558 347.443 64.5864 347.807C64.7171 348.162 64.9131 348.423 65.1744 348.591C65.4451 348.759 65.7904 348.843 66.2104 348.843ZM73.8138 350.103C73.3005 350.103 72.8478 350.047 72.4558 349.935C72.0638 349.823 71.7372 349.669 71.4758 349.473C71.2145 349.277 71.0138 349.044 70.8738 348.773C70.7432 348.493 70.6778 348.185 70.6778 347.849C70.6778 347.802 70.6778 347.76 70.6778 347.723C70.6872 347.686 70.6918 347.653 70.6918 347.625H72.1338C72.1338 347.653 72.1338 347.681 72.1338 347.709C72.1338 347.728 72.1338 347.751 72.1338 347.779C72.1338 348.068 72.2132 348.302 72.3718 348.479C72.5305 348.647 72.7405 348.768 73.0018 348.843C73.2725 348.908 73.5665 348.941 73.8838 348.941C74.1638 348.941 74.4205 348.908 74.6538 348.843C74.8965 348.768 75.0925 348.661 75.2418 348.521C75.4005 348.381 75.4798 348.204 75.4798 347.989C75.4798 347.709 75.3818 347.494 75.1858 347.345C74.9898 347.196 74.7332 347.079 74.4158 346.995C74.0985 346.902 73.7672 346.804 73.4218 346.701C73.1138 346.617 72.8058 346.528 72.4978 346.435C72.1992 346.332 71.9285 346.202 71.6858 346.043C71.4432 345.884 71.2472 345.684 71.0978 345.441C70.9485 345.198 70.8738 344.895 70.8738 344.531C70.8738 344.186 70.9485 343.882 71.0978 343.621C71.2472 343.36 71.4525 343.14 71.7138 342.963C71.9845 342.786 72.3018 342.65 72.6658 342.557C73.0392 342.464 73.4452 342.417 73.8838 342.417C74.3412 342.417 74.7472 342.468 75.1018 342.571C75.4565 342.664 75.7552 342.8 75.9978 342.977C76.2498 343.154 76.4412 343.369 76.5718 343.621C76.7025 343.864 76.7678 344.125 76.7678 344.405C76.7678 344.461 76.7632 344.522 76.7538 344.587C76.7538 344.643 76.7538 344.68 76.7538 344.699H75.3258V344.573C75.3258 344.386 75.2745 344.218 75.1718 344.069C75.0692 343.92 74.9058 343.798 74.6818 343.705C74.4672 343.612 74.1778 343.565 73.8138 343.565C73.5712 343.565 73.3565 343.588 73.1698 343.635C72.9832 343.672 72.8292 343.728 72.7078 343.803C72.5865 343.878 72.4932 343.966 72.4278 344.069C72.3718 344.172 72.3438 344.288 72.3438 344.419C72.3438 344.634 72.4185 344.802 72.5678 344.923C72.7265 345.035 72.9318 345.133 73.1838 345.217C73.4358 345.292 73.7065 345.376 73.9958 345.469C74.3318 345.562 74.6725 345.66 75.0178 345.763C75.3632 345.856 75.6805 345.978 75.9698 346.127C76.2685 346.276 76.5065 346.482 76.6838 346.743C76.8705 347.004 76.9638 347.354 76.9638 347.793C76.9638 348.194 76.8845 348.544 76.7258 348.843C76.5672 349.142 76.3432 349.384 76.0538 349.571C75.7738 349.748 75.4425 349.879 75.0598 349.963C74.6772 350.056 74.2618 350.103 73.8138 350.103ZM78.4536 349.935V348.311H80.0076V349.935H78.4536Z" fill="#7F7F90"/>
<g filter="url(#filter1_i_7_309)">
<rect x="25" y="41.9351" width="223" height="96.1437" rx="14.8667" fill="url(#paint1_linear_7_309)" fill-opacity="0.05"/>
<path d="M55.7126 84.9995V95.0145" stroke="#EBDDF3" stroke-width="2.00299" stroke-linecap="round"/>
<path d="M61.7214 81.6611V98.3527" stroke="#EBDDF3" stroke-width="2.00299" stroke-linecap="round"/>
<path d="M67.7305 78.3228V101.691" stroke="#EBDDF3" stroke-width="2.00299" stroke-linecap="round"/>
<path d="M73.7395 81.6611V98.3527" stroke="#EBDDF3" stroke-width="2.00299" stroke-linecap="round"/>
<path d="M79.7485 84.9995V95.0145" stroke="#EBDDF3" stroke-width="2.00299" stroke-linecap="round"/>
<path d="M106.856 90.8364V89.7602C106.856 88.7649 107.041 87.8506 107.411 87.0174C107.805 86.161 108.314 85.3856 108.939 84.6912C109.587 83.9969 110.305 83.3372 111.091 82.7123C111.878 82.0873 112.677 81.4856 113.487 80.9069C114.552 80.1431 115.535 79.3793 116.438 78.6155C117.341 77.8517 118.07 77.03 118.625 76.1505C119.204 75.2709 119.493 74.2872 119.493 73.1994C119.493 72.5745 119.343 71.9958 119.042 71.4635C118.764 70.9311 118.324 70.5029 117.723 70.1789C117.121 69.8317 116.334 69.6581 115.362 69.6581C114.297 69.6581 113.429 69.8433 112.758 70.2136C112.11 70.5608 111.624 71.0468 111.3 71.6718C110.999 72.2736 110.848 72.9795 110.848 73.7896V75.2131H107.238C107.215 75.0973 107.191 74.9238 107.168 74.6923C107.145 74.4608 107.134 74.1715 107.134 73.8243C107.134 72.1115 107.515 70.7344 108.279 69.6928C109.066 68.6281 110.096 67.8527 111.369 67.3667C112.665 66.8575 114.054 66.6029 115.535 66.6029C116.97 66.6029 118.174 66.8112 119.146 67.2278C120.141 67.6213 120.928 68.1536 121.507 68.8249C122.109 69.4961 122.537 70.2367 122.792 71.0468C123.069 71.8569 123.208 72.6439 123.208 73.4077C123.208 74.5187 123.012 75.5255 122.618 76.4282C122.248 77.3309 121.715 78.1757 121.021 78.9627C120.35 79.7496 119.551 80.5134 118.625 81.2541C117.723 81.9716 116.751 82.6891 115.709 83.4067C115.061 83.8464 114.424 84.2978 113.8 84.7607C113.198 85.2236 112.665 85.6981 112.202 86.1841C111.74 86.6471 111.427 87.0984 111.265 87.5382H123.347V90.8364H106.856ZM133.842 91.253C132.129 91.253 130.741 90.929 129.676 90.2809C128.611 89.6328 127.824 88.7533 127.315 87.6423C126.806 86.5082 126.551 85.2467 126.551 83.858H130.231C130.231 84.807 130.37 85.6171 130.648 86.2883C130.926 86.9364 131.342 87.434 131.898 87.7812C132.453 88.1052 133.159 88.2673 134.016 88.2673C135.312 88.2673 136.284 87.9316 136.932 87.2604C137.603 86.566 138.066 85.5824 138.321 84.3093C138.575 83.0363 138.714 81.5319 138.737 79.7959C138.529 80.1431 138.159 80.525 137.626 80.9416C137.094 81.3351 136.446 81.6707 135.682 81.9485C134.918 82.2031 134.074 82.3304 133.148 82.3304C131.458 82.3304 130.069 81.9948 128.982 81.3235C127.894 80.6292 127.084 79.6918 126.551 78.5113C126.019 77.3078 125.753 75.9769 125.753 74.5187C125.753 72.8985 126.1 71.4982 126.794 70.3178C127.489 69.1373 128.438 68.2231 129.641 67.575C130.845 66.9269 132.199 66.6029 133.703 66.6029C135.069 66.6029 136.296 66.7996 137.383 67.1931C138.471 67.5866 139.397 68.2346 140.161 69.1373C140.925 70.0169 141.503 71.2089 141.897 72.7133C142.29 74.1947 142.487 76.0347 142.487 78.2336C142.487 80.6639 142.29 82.7239 141.897 84.4135C141.503 86.08 140.936 87.4224 140.196 88.4408C139.478 89.4361 138.587 90.1536 137.522 90.5934C136.458 91.0332 135.231 91.253 133.842 91.253ZM133.912 79.3793C134.93 79.3793 135.775 79.171 136.446 78.7544C137.117 78.3146 137.615 77.7244 137.939 76.9837C138.286 76.2199 138.46 75.3751 138.46 74.4493C138.46 73.5466 138.298 72.7249 137.974 71.9842C137.65 71.2436 137.152 70.6649 136.481 70.2483C135.81 69.8085 134.965 69.5887 133.946 69.5887C132.928 69.5887 132.083 69.8201 131.412 70.283C130.764 70.7228 130.278 71.313 129.954 72.0537C129.63 72.7943 129.468 73.6276 129.468 74.5534C129.468 75.4561 129.63 76.2778 129.954 77.0184C130.278 77.736 130.764 78.3146 131.412 78.7544C132.06 79.171 132.893 79.3793 133.912 79.3793Z" fill="white"/>
<path d="M155.313 90.8364V79.5983H157.15L157.343 81.2007H157.492C157.749 80.7876 158.041 80.4458 158.368 80.1752C158.71 79.9045 159.087 79.698 159.5 79.5556C159.928 79.4131 160.384 79.3419 160.868 79.3419C161.566 79.3419 162.171 79.4843 162.684 79.7692C163.211 80.0541 163.61 80.5312 163.88 81.2007H164.03C164.286 80.8019 164.585 80.4671 164.927 80.1965C165.269 79.9117 165.654 79.698 166.081 79.5556C166.523 79.4131 166.993 79.3419 167.491 79.3419C168.161 79.3419 168.752 79.463 169.264 79.7051C169.777 79.933 170.183 80.3247 170.482 80.8802C170.781 81.4215 170.931 82.1479 170.931 83.0595V90.8364H168.709V83.4654C168.709 83.0381 168.659 82.6891 168.559 82.4185C168.46 82.1336 168.324 81.9129 168.153 81.7562C167.982 81.5853 167.776 81.4642 167.534 81.393C167.292 81.3218 167.028 81.2862 166.743 81.2862C166.273 81.2862 165.853 81.4143 165.483 81.6707C165.112 81.9129 164.813 82.2547 164.585 82.6963C164.358 83.1378 164.244 83.6577 164.244 84.2559V90.8364H162.022V83.4654C162.022 83.0381 161.972 82.6891 161.872 82.4185C161.772 82.1336 161.637 81.9129 161.466 81.7562C161.295 81.5853 161.089 81.4642 160.846 81.393C160.604 81.3218 160.348 81.2862 160.077 81.2862C159.607 81.2862 159.18 81.4143 158.795 81.6707C158.411 81.9129 158.105 82.2547 157.877 82.6963C157.649 83.1378 157.535 83.6577 157.535 84.2559V90.8364H155.313ZM177.412 91.0928C176.629 91.0928 175.938 91.0073 175.34 90.8364C174.741 90.6655 174.243 90.4305 173.844 90.1314C173.445 89.8323 173.139 89.4762 172.925 89.0631C172.726 88.6358 172.626 88.1658 172.626 87.653C172.626 87.5818 172.626 87.5177 172.626 87.4607C172.64 87.4037 172.648 87.3539 172.648 87.3112H174.848C174.848 87.3539 174.848 87.3966 174.848 87.4393C174.848 87.4678 174.848 87.5034 174.848 87.5462C174.848 87.9877 174.969 88.3438 175.211 88.6144C175.454 88.8708 175.774 89.056 176.173 89.1699C176.586 89.2696 177.035 89.3195 177.519 89.3195C177.946 89.3195 178.338 89.2696 178.694 89.1699C179.064 89.056 179.363 88.8922 179.591 88.6785C179.833 88.4649 179.955 88.1943 179.955 87.8667C179.955 87.4393 179.805 87.1117 179.506 86.8839C179.207 86.656 178.815 86.4779 178.331 86.3497C177.847 86.2073 177.341 86.0577 176.814 85.901C176.344 85.7729 175.874 85.6375 175.404 85.4951C174.948 85.3384 174.535 85.139 174.165 84.8969C173.794 84.6547 173.495 84.3485 173.267 83.9782C173.039 83.6078 172.925 83.1449 172.925 82.5894C172.925 82.0624 173.039 81.5995 173.267 81.2007C173.495 80.8019 173.808 80.4671 174.207 80.1965C174.62 79.9259 175.105 79.7194 175.66 79.5769C176.23 79.4345 176.849 79.3633 177.519 79.3633C178.217 79.3633 178.836 79.4416 179.378 79.5983C179.919 79.7407 180.375 79.9473 180.745 80.2179C181.13 80.4885 181.422 80.8161 181.621 81.2007C181.82 81.571 181.92 81.9698 181.92 82.3971C181.92 82.4826 181.913 82.5752 181.899 82.6749C181.899 82.7604 181.899 82.8173 181.899 82.8458H179.72V82.6535C179.72 82.3687 179.641 82.1123 179.485 81.8844C179.328 81.6565 179.079 81.4713 178.737 81.3289C178.409 81.1864 177.968 81.1152 177.412 81.1152C177.042 81.1152 176.714 81.1508 176.429 81.2221C176.144 81.279 175.909 81.3645 175.724 81.4784C175.539 81.5924 175.397 81.7277 175.297 81.8844C175.211 82.0411 175.169 82.2191 175.169 82.4185C175.169 82.7461 175.283 83.0025 175.511 83.1877C175.753 83.3586 176.066 83.5081 176.451 83.6363C176.835 83.7503 177.248 83.8785 177.69 84.0209C178.203 84.1633 178.722 84.3129 179.249 84.4696C179.776 84.612 180.261 84.7972 180.702 85.0251C181.158 85.253 181.521 85.5663 181.792 85.9651C182.077 86.364 182.219 86.8981 182.219 87.5675C182.219 88.18 182.098 88.7141 181.856 89.1699C181.614 89.6257 181.272 89.9961 180.831 90.2809C180.403 90.5516 179.898 90.751 179.314 90.8792C178.73 91.0216 178.096 91.0928 177.412 91.0928Z" fill="#7F7F90"/>
<path d="M106.418 114.507V103.515H108.212V112.953H113.693V114.507H106.418ZM113.737 114.507L118.047 103.515H120.339L124.665 114.507H122.742L121.765 111.96H116.557L115.58 114.507H113.737ZM117.134 110.437H121.172L119.938 107.216C119.906 107.12 119.858 106.987 119.794 106.816C119.73 106.645 119.66 106.458 119.586 106.255C119.522 106.052 119.452 105.849 119.377 105.646C119.313 105.432 119.254 105.24 119.201 105.069H119.105C119.041 105.272 118.961 105.513 118.865 105.79C118.768 106.068 118.672 106.335 118.576 106.591C118.491 106.848 118.416 107.056 118.352 107.216L117.134 110.437ZM127.075 114.507V105.053H123.437V103.515H132.539V105.053H128.869V114.507H127.075ZM133.874 114.507V103.515H142.399V105.053H135.669V108.114H141.694V109.652H135.669V112.969H142.495V114.507H133.874ZM144.351 114.507V103.515H146.081L151.097 110.405C151.161 110.469 151.23 110.56 151.305 110.678C151.391 110.795 151.471 110.913 151.546 111.03C151.62 111.148 151.674 111.244 151.706 111.319H151.786C151.786 111.158 151.786 111.003 151.786 110.854C151.786 110.704 151.786 110.555 151.786 110.405V103.515H153.516V114.507H151.85L146.77 107.537C146.685 107.409 146.578 107.248 146.45 107.056C146.322 106.853 146.226 106.698 146.161 106.591H146.081C146.081 106.741 146.081 106.896 146.081 107.056C146.081 107.206 146.081 107.366 146.081 107.537V114.507H144.351ZM160.557 114.7C159.435 114.7 158.479 114.502 157.689 114.107C156.909 113.701 156.311 113.076 155.894 112.232C155.477 111.388 155.269 110.314 155.269 109.011C155.269 107.088 155.734 105.662 156.663 104.733C157.603 103.793 158.907 103.323 160.573 103.323C161.492 103.323 162.314 103.478 163.041 103.787C163.778 104.097 164.355 104.562 164.771 105.181C165.199 105.79 165.412 106.57 165.412 107.521H163.586C163.586 106.933 163.463 106.442 163.217 106.047C162.971 105.651 162.619 105.352 162.159 105.149C161.711 104.946 161.187 104.845 160.589 104.845C159.841 104.845 159.206 104.994 158.682 105.294C158.169 105.582 157.78 106.02 157.512 106.608C157.256 107.195 157.128 107.943 157.128 108.851V109.203C157.128 110.111 157.256 110.859 157.512 111.447C157.78 112.034 158.169 112.472 158.682 112.761C159.195 113.038 159.831 113.177 160.589 113.177C161.209 113.177 161.748 113.081 162.207 112.889C162.667 112.686 163.019 112.387 163.265 111.992C163.521 111.596 163.65 111.105 163.65 110.517H165.412C165.412 111.468 165.199 112.253 164.771 112.873C164.355 113.492 163.778 113.952 163.041 114.251C162.314 114.55 161.486 114.7 160.557 114.7ZM170.104 114.507V109.989L165.826 103.515H167.877L171.017 108.386H171.097L174.206 103.515H176.177L171.899 109.989V114.507H170.104Z" fill="#7F7F90"/>
<rect x="24.3323" y="41.2674" width="224.335" height="97.479" rx="15.5343" stroke="url(#paint2_linear_7_309)" stroke-opacity="0.25" stroke-width="1.33533"/>
</g>
<rect x="0.5" y="1.43506" width="386" height="387" rx="24.5" stroke="url(#paint3_linear_7_309)" stroke-opacity="0.25"/>
</g>
<defs>
<filter id="filter0_i_7_309" x="0" y="0.935059" width="387" height="398" filterUnits="userSpaceOnUse" color-interpolation-filters="sRGB">
<feFlood flood-opacity="0" result="BackgroundImageFix"/>
<feBlend mode="normal" in="SourceGraphic" in2="BackgroundImageFix" result="shape"/>
<feColorMatrix in="SourceAlpha" type="matrix" values="0 0 0 0 0 0 0 0 0 0 0 0 0 0 0 0 0 0 127 0" result="hardAlpha"/>
<feOffset dy="10"/>
<feGaussianBlur stdDeviation="12.5"/>
<feComposite in2="hardAlpha" operator="arithmetic" k2="-1" k3="1"/>
<feColorMatrix type="matrix" values="0 0 0 0 0.901961 0 0 0 0 0.866667 0 0 0 0 0.996078 0 0 0 0.1 0"/>
<feBlend mode="normal" in2="shape" result="effect1_innerShadow_7_309"/>
</filter>
<filter id="filter1_i_7_309" x="23.6646" y="40.5996" width="225.671" height="112.168" filterUnits="userSpaceOnUse" color-interpolation-filters="sRGB">
<feFlood flood-opacity="0" result="BackgroundImageFix"/>
<feBlend mode="normal" in="SourceGraphic" in2="BackgroundImageFix" result="shape"/>
<feColorMatrix in="SourceAlpha" type="matrix" values="0 0 0 0 0 0 0 0 0 0 0 0 0 0 0 0 0 0 127 0" result="hardAlpha"/>
<feOffset dy="13.3533"/>
<feGaussianBlur stdDeviation="16.6916"/>
<feComposite in2="hardAlpha" operator="arithmetic" k2="-1" k3="1"/>
<feColorMatrix type="matrix" values="0 0 0 0 0.901961 0 0 0 0 0.866667 0 0 0 0 0.996078 0 0 0 0.1 0"/>
<feBlend mode="normal" in2="shape" result="effect1_innerShadow_7_309"/>
</filter>
<linearGradient id="paint0_linear_7_309" x1="193.5" y1="387.935" x2="193.5" y2="1.93506" gradientUnits="userSpaceOnUse">
<stop stop-color="white" stop-opacity="0"/>
<stop offset="1" stop-color="white"/>
</linearGradient>
<linearGradient id="paint1_linear_7_309" x1="136.5" y1="41.9351" x2="136.5" y2="138.079" gradientUnits="userSpaceOnUse">
<stop stop-color="white"/>
<stop offset="1" stop-color="white" stop-opacity="0"/>
</linearGradient>
<linearGradient id="paint2_linear_7_309" x1="136.5" y1="41.9351" x2="136.5" y2="138.079" gradientUnits="userSpaceOnUse">
<stop stop-color="#E6DDFE"/>
<stop offset="1" stop-color="#E6DDFE" stop-opacity="0"/>
</linearGradient>
<linearGradient id="paint3_linear_7_309" x1="193.5" y1="-16.8288" x2="193.5" y2="387.935" gradientUnits="userSpaceOnUse">
<stop stop-color="#E6DDFE"/>
<stop offset="1" stop-color="#E6DDFE" stop-opacity="0"/>
</linearGradient>
</defs>
</svg>
